<svg width="88" height="90" viewBox="0 0 88 90" fill="none" xmlns="http://www.w3.org/2000/svg">
<path d="M1.84375 0.5H1H0.5V1V87V88.2343L1.35903 87.348L1.84375 86.8479V87V87.5H2.34375H6.375H6.875V87V81.6569L9.90625 78.5294V87V87.5H10.4062H14.4375H14.9375V87V73.3385L17.9688 70.211V87V87.5H18.4688H22.5H23V87V65.02L26.0312 61.8925V87V87.5H26.5312H30.5625H31.0625V87V56.7016L34.0938 53.5741V87V87.5H34.5938H38.625H39.125V87V48.3831L42.1562 45.2556V87V87.5H42.6562H46.6875H47.1875V87V40.2838L50.2188 37.3458V87V87.5H50.7188H54.75H55.25V87V32.4694L58.2812 29.5314V87V87.5H58.7812H62.8125H63.3125V87V24.655L66.3438 21.717V87V87.5H66.8438H70.875H71.375V87V16.8405L74.4062 13.9026V87V87.5H74.9062H78.9375H79.4375V87V9.02612L82.4688 6.08814V87V87.5H82.9688H87H87.5V87V1.2117L88.2343 0.5H87.5H87H82.9688H82.4688H79.4375H78.9375H74.9062H74.4062H71.375H70.875H66.8438H66.3438H63.3125H62.8125H58.7812H58.2812H55.25H54.75H50.7188H50.2188H47.1875H46.6875H42.6562H42.1562H39.125H38.625H34.5938H34.0938H31.0625H30.5625H26.5312H26.0312H23H22.5H18.4688H17.9688H14.9375H14.4375H10.4062H9.90625H6.875H6.375H2.34375H1.84375Z" stroke="#151515"/>
</svg>
