<svg width="86" height="86" viewBox="0 0 86 86" fill="none" xmlns="http://www.w3.org/2000/svg">
<path d="M0.5 20.5077C0.5 9.45775 9.45775 0.5 20.5077 0.5C31.5576 0.5 40.5154 9.45775 40.5154 20.5077C40.5154 31.5576 31.5576 40.5154 20.5077 40.5154C9.45775 40.5154 0.5 31.5576 0.5 20.5077ZM85.5 65.4923C85.5 76.5423 76.5423 85.5 65.4923 85.5C54.4424 85.5 45.4846 76.5423 45.4846 65.4923C45.4846 54.4424 54.4424 45.4846 65.4923 45.4846C76.5423 45.4846 85.5 54.4424 85.5 65.4923ZM28.6487 73.6333C25.5873 76.6947 22.2913 77.9281 19.2743 77.9089C16.25 77.8897 13.4634 76.6118 11.4258 74.5742C9.3882 72.5366 8.11033 69.75 8.09107 66.7257C8.07186 63.7087 9.30525 60.4127 12.3667 57.3513C15.4281 54.2899 18.7241 53.0565 21.7411 53.0757C24.7654 53.0949 27.552 54.3728 29.5896 56.4104C31.6272 58.448 32.9051 61.2346 32.9243 64.2589C32.9435 67.2759 31.7101 70.5719 28.6487 73.6333ZM57.3513 12.3667C60.4127 9.30525 63.7087 8.07186 66.7257 8.09107C69.75 8.11033 72.5366 9.3882 74.5742 11.4258C76.6118 13.4634 77.8897 16.25 77.9089 19.2743C77.9281 22.2913 76.6947 25.5873 73.6333 28.6487C70.5719 31.7101 67.2759 32.9435 64.2589 32.9243C61.2346 32.9051 58.448 31.6272 56.4104 29.5896C54.3728 27.552 53.0949 24.7654 53.0757 21.7411C53.0565 18.7241 54.2899 15.4281 57.3513 12.3667Z" stroke="#151515"/>
</svg>
