<svg width="86" height="86" viewBox="0 0 86 86" fill="none" xmlns="http://www.w3.org/2000/svg">
<path fill-rule="evenodd" clip-rule="evenodd" d="M82.1671 14.0408C82.1488 14.0517 82.1305 14.0626 82.112 14.0735C80.4482 15.0569 78.1394 15.9839 75.2813 16.8115C67.4014 14.5746 55.86 13.1633 43 13.1633C30.14 13.1633 18.5986 14.5746 10.7187 16.8115C7.86064 15.9839 5.55178 15.0569 3.88798 14.0735C3.86953 14.0626 3.85118 14.0517 3.83293 14.0408C3.85118 14.0299 3.86953 14.019 3.88798 14.0081C5.94519 12.7922 8.98857 11.6625 12.8369 10.7004C20.5183 8.78004 31.183 7.58163 43 7.58163C54.817 7.58163 65.4817 8.78004 73.1631 10.7004C77.0114 11.6625 80.0548 12.7922 82.112 14.0081C82.1305 14.019 82.1488 14.0299 82.1671 14.0408ZM83.0895 13.4359C76.8482 9.42462 61.2522 6.58163 43 6.58163C24.7478 6.58163 9.15176 9.42462 2.9105 13.4359C1.5239 12.4281 1 11.5057 1 10.75C1 9.83756 1.76384 8.68199 3.88798 7.42648C5.94519 6.21054 8.98857 5.08084 12.8369 4.11874C20.5183 2.1984 31.183 1 43 1C54.817 1 65.4817 2.1984 73.1631 4.11874C77.0114 5.08084 80.0548 6.21054 82.112 7.42648C84.2362 8.68199 85 9.83756 85 10.75C85 11.5057 84.4761 12.4281 83.0895 13.4359ZM83.9478 14.0408C85.2804 13.0037 86 11.8978 86 10.75C86 4.81294 66.7482 0 43 0C19.2518 0 0 4.81294 0 10.75C0 11.8978 0.719601 13.0037 2.05217 14.0408C0.719601 15.078 0 16.1838 0 17.3316C0 18.4795 0.719601 19.5853 2.05217 20.6224C0.719601 21.6596 0 22.7654 0 23.9133C0 25.0611 0.719601 26.1669 2.05217 27.2041C0.719601 28.2412 0 29.3471 0 30.4949C0 31.6427 0.719601 32.7486 2.05217 33.7857C0.719601 34.8229 0 35.9287 0 37.0765C0 38.2244 0.719602 39.3302 2.05218 40.3673C0.719602 41.4045 0 42.5103 0 43.6582C0 44.806 0.719601 45.9118 2.05217 46.949C0.719601 47.9861 0 49.092 0 50.2398C0 51.3876 0.719602 52.4935 2.05218 53.5306C0.719602 54.5678 0 55.6736 0 56.8214C0 57.8887 0.622134 58.9197 1.78068 59.8929C0.622134 60.8661 0 61.897 0 62.9643C0 64.0316 0.622134 65.0625 1.78068 66.0357C0.622134 67.0089 0 68.0399 0 69.1071C0 70.1744 0.622133 71.2054 1.78068 72.1786C0.622133 73.1518 0 74.1827 0 75.25C0 81.1871 19.2518 86 43 86C66.7482 86 86 81.1871 86 75.25C86 74.1827 85.3779 73.1518 84.2193 72.1786C85.3779 71.2054 86 70.1744 86 69.1071C86 68.0399 85.3779 67.0089 84.2193 66.0357C85.3779 65.0625 86 64.0316 86 62.9643C86 61.897 85.3779 60.8661 84.2193 59.8929C85.3779 58.9197 86 57.8887 86 56.8214C86 55.6736 85.2804 54.5678 83.9478 53.5306C85.2804 52.4935 86 51.3876 86 50.2398C86 49.092 85.2804 47.9861 83.9478 46.949C85.2804 45.9118 86 44.806 86 43.6582C86 42.5103 85.2804 41.4045 83.9478 40.3673C85.2804 39.3302 86 38.2244 86 37.0765C86 35.9287 85.2804 34.8229 83.9478 33.7857C85.2804 32.7486 86 31.6427 86 30.4949C86 29.3471 85.2804 28.2412 83.9478 27.2041C85.2804 26.1669 86 25.0611 86 23.9133C86 22.7654 85.2804 21.6596 83.9478 20.6224C85.2804 19.5853 86 18.4795 86 17.3316C86 16.1838 85.2804 15.078 83.9478 14.0408ZM83.0895 14.6457C81.5774 15.6175 79.5163 16.5208 77.0013 17.3316C79.5163 18.1425 81.5774 19.0457 83.0895 20.0175C84.4761 19.0097 85 18.0873 85 17.3316C85 16.576 84.4761 15.6536 83.0895 14.6457ZM73.3602 17.3316C73.2948 17.315 73.229 17.2985 73.1631 17.282C65.4817 15.3617 54.817 14.1633 43 14.1633C31.183 14.1633 20.5183 15.3617 12.8369 17.282C12.771 17.2985 12.7052 17.315 12.6398 17.3316C12.7052 17.3482 12.771 17.3648 12.8369 17.3813C17.9685 18.6642 24.4316 19.6249 31.6802 20.1213C35.2869 19.8759 39.0823 19.7449 43 19.7449C46.9177 19.7449 50.7131 19.8759 54.3198 20.1213C61.5684 19.6249 68.0315 18.6642 73.1631 17.3813C73.229 17.3648 73.2948 17.3482 73.3602 17.3316ZM60.044 20.6224C65.9169 19.9879 71.1117 19.0354 75.2813 17.8518C78.1394 18.6793 80.4482 19.6063 82.112 20.5897L82.1671 20.6225L82.112 20.6552C80.4482 21.6386 78.1394 22.5656 75.2813 23.3931C71.1117 22.2095 65.9169 21.257 60.044 20.6224ZM31.6802 21.1236C35.2869 21.369 39.0823 21.5 43 21.5C46.9177 21.5 50.7131 21.369 54.3198 21.1236C61.5684 21.62 68.0315 22.5807 73.1631 23.8636C73.229 23.8801 73.2948 23.8967 73.3602 23.9133C73.2948 23.9299 73.229 23.9464 73.1631 23.9629C68.0315 25.2458 61.5684 26.2065 54.3198 26.7029C50.7131 26.4575 46.9177 26.3265 43 26.3265C39.0823 26.3265 35.2869 26.4575 31.6802 26.7029C24.4316 26.2065 17.9685 25.2458 12.8369 23.9629C12.8042 23.9547 12.7715 23.9465 12.7389 23.9383C12.7058 23.93 12.6727 23.9216 12.6398 23.9133C12.7052 23.8967 12.771 23.8801 12.8369 23.8636C17.9685 22.5807 24.4316 21.62 31.6802 21.1236ZM25.956 20.6224C20.0831 19.9879 14.8883 19.0354 10.7187 17.8518C7.86064 18.6793 5.55178 19.6063 3.88798 20.5897L3.83293 20.6225L3.88798 20.6552C5.55178 21.6386 7.86064 22.5656 10.7187 23.3931C14.8883 22.2095 20.0831 21.257 25.956 20.6224ZM8.9987 17.3316C6.48372 16.5208 4.42257 15.6175 2.9105 14.6457C1.5239 15.6536 1 16.576 1 17.3316C1 18.0873 1.5239 19.0097 2.9105 20.0175C4.42257 19.0457 6.48372 18.1425 8.9987 17.3316ZM77.0013 23.9133C79.5163 23.1024 81.5774 22.1992 83.0895 21.2274C84.4761 22.2352 85 23.1576 85 23.9133C85 24.6689 84.4761 25.5913 83.0895 26.5992C81.5774 25.6274 79.5163 24.7241 77.0013 23.9133ZM75.2813 24.4334C71.1117 25.6171 65.9169 26.5695 60.044 27.2041C65.9169 27.8386 71.1117 28.7911 75.2813 29.9747C78.1394 29.1472 80.4482 28.2202 82.112 27.2368L82.1671 27.2041L82.112 27.1714C80.4482 26.188 78.1394 25.261 75.2813 24.4334ZM43 28.0816C39.0823 28.0816 35.2869 27.9506 31.6802 27.7052C24.4316 28.2017 17.9685 29.1624 12.8369 30.4453C12.771 30.4618 12.7052 30.4783 12.6398 30.4949C12.7052 30.5115 12.771 30.528 12.8369 30.5445C17.9685 31.8274 24.4316 32.7881 31.6802 33.2846C35.2869 33.0392 39.0823 32.9082 43 32.9082C46.9177 32.9082 50.7131 33.0392 54.3198 33.2846C61.5684 32.7881 68.0315 31.8274 73.1631 30.5445C73.2003 30.5352 73.2375 30.5259 73.2747 30.5165C73.3032 30.5093 73.3318 30.5021 73.3602 30.4949C73.2948 30.4783 73.229 30.4618 73.1631 30.4453C68.0315 29.1624 61.5684 28.2017 54.3198 27.7052C50.7131 27.9506 46.9177 28.0816 43 28.0816ZM10.7187 24.4334C14.8883 25.6171 20.0831 26.5695 25.956 27.2041C20.0831 27.8386 14.8883 28.7911 10.7187 29.9748C7.86064 29.1472 5.55178 28.2202 3.88798 27.2368L3.83293 27.2041L3.88798 27.1714C5.55178 26.188 7.86064 25.261 10.7187 24.4334ZM2.9105 21.2274C4.42257 22.1992 6.48372 23.1024 8.9987 23.9133C6.48372 24.7241 4.42257 25.6274 2.9105 26.5992C1.5239 25.5913 1 24.6689 1 23.9133C1 23.1576 1.5239 22.2352 2.9105 21.2274ZM83.0895 27.809C81.5774 28.7808 79.5163 29.684 77.0013 30.4949C79.5163 31.3058 81.5774 32.209 83.0895 33.1808C84.4761 32.173 85 31.2506 85 30.4949C85 29.7392 84.4761 28.8168 83.0895 27.809ZM60.044 33.7857C65.9169 33.1512 71.1117 32.1987 75.2813 31.015C78.1394 31.8426 80.4482 32.7696 82.112 33.753L82.1671 33.7857L82.112 33.8184C80.4482 34.8018 78.1394 35.7288 75.2813 36.5564C71.1117 35.3727 65.9169 34.4203 60.044 33.7857ZM31.6802 34.2869C35.2869 34.5323 39.0823 34.6633 43 34.6633C46.9177 34.6633 50.7131 34.5323 54.3198 34.2869C61.5684 34.7833 68.0315 35.744 73.1631 37.0269C73.229 37.0434 73.2947 37.0599 73.3602 37.0765C73.2947 37.0931 73.229 37.1097 73.1631 37.1262C68.0315 38.409 61.5684 39.3698 54.3198 39.8662C50.7131 39.6208 46.9177 39.4898 43 39.4898C39.0823 39.4898 35.2869 39.6208 31.6802 39.8662C24.4316 39.3698 17.9685 38.409 12.8369 37.1262C12.771 37.1097 12.7052 37.0931 12.6398 37.0765C12.7052 37.0599 12.771 37.0434 12.8369 37.0269C17.9685 35.744 24.4316 34.7833 31.6802 34.2869ZM25.956 33.7857C20.0831 33.1512 14.8883 32.1987 10.7187 31.015C7.86064 31.8426 5.55178 32.7696 3.88798 33.753L3.83293 33.7857L3.88798 33.8184C5.55178 34.8018 7.86065 35.7288 10.7187 36.5564C14.8883 35.3727 20.0831 34.4203 25.956 33.7857ZM8.9987 30.4949C6.48372 29.684 4.42257 28.7808 2.9105 27.809C1.5239 28.8168 1 29.7392 1 30.4949C1 31.2506 1.5239 32.173 2.9105 33.1808C4.42257 32.209 6.48372 31.3058 8.9987 30.4949ZM77.0013 37.0765C79.5163 36.2657 81.5774 35.3624 83.0895 34.3906C84.4761 35.3985 85 36.3209 85 37.0765C85 37.8322 84.4761 38.7546 83.0895 39.7624C81.5774 38.7906 79.5163 37.8874 77.0013 37.0765ZM75.2813 37.5967C71.1117 38.7803 65.9169 39.7328 60.044 40.3673C65.9169 41.0019 71.1117 41.9544 75.2813 43.138C78.1394 42.3105 80.4482 41.3835 82.112 40.4L82.1671 40.3673L82.112 40.3346C80.4482 39.3512 78.1394 38.4242 75.2813 37.5967ZM43 41.2449C39.0823 41.2449 35.2869 41.1139 31.6802 40.8685C24.4316 41.3649 17.9685 42.3256 12.8369 43.6085C12.771 43.625 12.7052 43.6416 12.6398 43.6582C12.7052 43.6748 12.771 43.6913 12.8369 43.7078C17.9685 44.9907 24.4316 45.9514 31.6802 46.4478C35.2869 46.2024 39.0823 46.0714 43 46.0714C46.9177 46.0714 50.7131 46.2024 54.3198 46.4478C61.5684 45.9514 68.0315 44.9907 73.1631 43.7078C73.229 43.6913 73.2948 43.6748 73.3602 43.6582L73.2876 43.6398L73.1631 43.6085C68.0315 42.3256 61.5684 41.3649 54.3198 40.8685C50.7131 41.1139 46.9177 41.2449 43 41.2449ZM10.7187 37.5967C14.8883 38.7803 20.0831 39.7328 25.956 40.3673C20.0831 41.0019 14.8883 41.9544 10.7187 43.138C7.86064 42.3105 5.55178 41.3835 3.88798 40.4L3.83293 40.3673L3.88798 40.3346C5.55178 39.3512 7.86064 38.4242 10.7187 37.5967ZM2.9105 34.3906C4.42257 35.3624 6.48373 36.2657 8.9987 37.0765C6.48373 37.8874 4.42257 38.7906 2.9105 39.7624C1.5239 38.7546 1 37.8322 1 37.0765C1 36.3209 1.5239 35.3985 2.9105 34.3906ZM83.0895 40.9722C81.5774 41.9441 79.5163 42.8473 77.0013 43.6582C79.5163 44.469 81.5774 45.3723 83.0895 46.3441C84.4761 45.3362 85 44.4138 85 43.6582C85 42.9025 84.4761 41.9801 83.0895 40.9722ZM60.044 46.949C65.9169 46.3144 71.1117 45.3619 75.2813 44.1783C78.1394 45.0059 80.4482 45.9329 82.112 46.9163L82.1671 46.949L82.112 46.9817C80.4482 47.9651 78.1394 48.8921 75.2813 49.7196C71.1117 48.536 65.9169 47.5835 60.044 46.949ZM31.6802 47.4501C35.2869 47.6955 39.0823 47.8265 43 47.8265C46.9177 47.8265 50.7131 47.6955 54.3198 47.4501C61.5684 47.9466 68.0315 48.9073 73.1631 50.1902C73.229 50.2067 73.2948 50.2232 73.3602 50.2398C73.2948 50.2564 73.229 50.2729 73.1631 50.2894C68.7077 51.4033 63.2487 52.2742 57.1434 52.8093C52.714 52.4238 47.9549 52.2143 43 52.2143C38.0451 52.2143 33.286 52.4238 28.8566 52.8093C22.7513 52.2742 17.2923 51.4033 12.8369 50.2894C12.771 50.2729 12.7052 50.2564 12.6398 50.2398C12.7052 50.2232 12.771 50.2067 12.8369 50.1902C17.9685 48.9073 24.4316 47.9466 31.6802 47.4501ZM25.956 46.949C20.0831 46.3144 14.8883 45.3619 10.7187 44.1783C7.86064 45.0059 5.55178 45.9329 3.88798 46.9163L3.83293 46.949L3.88798 46.9817C5.55178 47.9651 7.86065 48.8921 10.7187 49.7197C14.8883 48.536 20.0831 47.5835 25.956 46.949ZM8.9987 43.6582C6.48372 42.8473 4.42257 41.9441 2.9105 40.9722C1.5239 41.9801 1 42.9025 1 43.6582C1 44.4138 1.5239 45.3362 2.9105 46.3441C4.42257 45.3723 6.48372 44.469 8.9987 43.6582ZM77.0013 50.2398C79.5163 49.4289 81.5774 48.5257 83.0895 47.5539C84.4761 48.5617 85 49.4841 85 50.2398C85 50.9955 84.4761 51.9179 83.0895 52.9257C81.5774 51.9539 79.5163 51.0507 77.0013 50.2398ZM75.2813 50.7599C71.5675 51.8142 67.0404 52.6851 61.9453 53.3112C67.3861 53.9799 72.1792 54.9276 76.0259 56.0796C78.5423 55.3095 80.5952 54.4598 82.112 53.5633L82.1671 53.5306L82.112 53.4979C80.4482 52.5145 78.1394 51.5875 75.2813 50.7599ZM43 53.2143C44.9621 53.2143 46.8925 53.2473 48.7827 53.3112C46.8925 53.3751 44.9621 53.4082 43 53.4082C41.0379 53.4082 39.1075 53.3751 37.2173 53.3112C39.1075 53.2473 41.0379 53.2143 43 53.2143ZM43 54.4082C38.0451 54.4082 33.286 54.1987 28.8566 53.8131C22.7513 54.3482 17.2923 55.2192 12.8369 56.333C12.4838 56.4213 12.1375 56.511 11.7981 56.602C12.1375 56.6931 12.4838 56.7828 12.8369 56.8711C16.7259 57.8433 21.3795 58.6305 26.5602 59.1708C31.6248 58.6465 37.1773 58.3571 43 58.3571C48.8227 58.3571 54.3752 58.6465 59.4398 59.1708C64.6205 58.6305 69.2741 57.8433 73.1631 56.8711C73.5162 56.7828 73.8625 56.6931 74.2019 56.602C73.8625 56.511 73.5162 56.4213 73.1631 56.333C68.7077 55.2192 63.2487 54.3482 57.1434 53.8131C52.714 54.1987 47.9549 54.4082 43 54.4082ZM10.7187 50.7599C14.4325 51.8142 18.9596 52.6851 24.0547 53.3112C18.6139 53.9799 13.8208 54.9276 9.97405 56.0796C7.45767 55.3095 5.40477 54.4598 3.88798 53.5633L3.83293 53.5306L3.88798 53.4979C5.55178 52.5145 7.86064 51.5875 10.7187 50.7599ZM2.9105 47.5539C4.42257 48.5257 6.48372 49.4289 8.9987 50.2398C6.48373 51.0507 4.42258 51.9539 2.9105 52.9257C1.5239 51.9179 1 50.9955 1 50.2398C1 49.4841 1.5239 48.5617 2.9105 47.5539ZM83.0895 54.1355C81.7124 55.0206 79.88 55.8487 77.664 56.602C80.0499 57.4131 81.9913 58.311 83.3983 59.2732C84.5546 58.3567 85 57.5182 85 56.8214C85 56.0658 84.4761 55.1434 83.0895 54.1355ZM63.6346 59.6735C68.3806 59.0233 72.5825 58.1558 76.0259 57.1245C78.5423 57.8946 80.5952 58.7442 82.112 59.6408C82.255 59.7253 82.3918 59.8093 82.5226 59.8929C82.3918 59.9764 82.255 60.0605 82.112 60.1449C80.7395 60.9562 78.928 61.7291 76.7313 62.4394C73.1626 61.3126 68.7097 60.3688 63.6346 59.6735ZM53.3654 59.6735C50.0498 59.467 46.5777 59.3571 43 59.3571C39.4223 59.3571 35.9502 59.467 32.6346 59.6735C35.9502 59.8799 39.4223 59.9898 43 59.9898C46.5777 59.9898 50.0498 59.8799 53.3654 59.6735ZM26.5602 60.1762C31.6248 60.7005 37.1773 60.9898 43 60.9898C48.8227 60.9898 54.3752 60.7005 59.4398 60.1762C64.6205 60.7165 69.2741 61.5037 73.1631 62.4759C73.7966 62.6343 74.4083 62.7972 74.9973 62.9643C74.4083 63.1314 73.7966 63.2943 73.1631 63.4527C69.7735 64.3001 65.803 65.0069 61.409 65.5322C55.8286 64.8703 49.5873 64.5 43 64.5C36.4127 64.5 30.1714 64.8703 24.591 65.5322C20.197 65.0069 16.2265 64.3001 12.8369 63.4527C12.2034 63.2943 11.5917 63.1314 11.0027 62.9643C11.5917 62.7972 12.2034 62.6343 12.8369 62.4759C16.7259 61.5037 21.3795 60.7165 26.5602 60.1762ZM22.3654 59.6735C17.6194 59.0233 13.4175 58.1558 9.97405 57.1245C7.45767 57.8946 5.40477 58.7442 3.88798 59.6408C3.74503 59.7253 3.60823 59.8093 3.47742 59.8929C3.60823 59.9764 3.74503 60.0605 3.88798 60.1449C5.26051 60.9562 7.07201 61.7291 9.26867 62.4394C12.8374 61.3126 17.2903 60.3688 22.3654 59.6735ZM8.33596 56.602C6.12004 55.8487 4.28757 55.0206 2.9105 54.1355C1.5239 55.1434 1 56.0658 1 56.8214C1 57.5182 1.44539 58.3567 2.60174 59.2732C4.00875 58.311 5.95009 57.4131 8.33596 56.602ZM78.2926 62.9643C80.3924 62.2117 82.1169 61.3888 83.3983 60.5125C84.5546 61.429 85 62.2675 85 62.9643C85 63.661 84.5546 64.4995 83.3983 65.4161C82.1169 64.5398 80.3924 63.7169 78.2926 62.9643ZM76.7313 63.4892C73.5249 64.5016 69.6048 65.3663 65.1609 66.0357C69.6048 66.7051 73.5249 67.5698 76.7313 68.5822C78.928 67.8719 80.7395 67.0991 82.112 66.2878C82.255 66.2033 82.3918 66.1193 82.5226 66.0357C82.3918 65.9522 82.255 65.8681 82.112 65.7836C80.7395 64.9724 78.928 64.1995 76.7313 63.4892ZM43 65.5C47.6864 65.5 52.1915 65.6885 56.4012 66.0357C52.1915 66.3829 47.6864 66.5714 43 66.5714C38.3136 66.5714 33.8085 66.3829 29.5988 66.0357C33.8085 65.6885 38.3136 65.5 43 65.5ZM43 67.5714C36.4127 67.5714 30.1714 67.2011 24.591 66.5392C20.197 67.0645 16.2265 67.7714 12.8369 68.6187C12.2034 68.7771 11.5917 68.94 11.0027 69.1071C11.5917 69.2742 12.2034 69.4372 12.8369 69.5955C20.5183 71.5159 31.183 72.7143 43 72.7143C54.817 72.7143 65.4817 71.5159 73.1631 69.5955C73.7966 69.4372 74.4083 69.2742 74.9973 69.1071C74.4083 68.94 73.7966 68.7771 73.1631 68.6187C69.7735 67.7714 65.803 67.0645 61.409 66.5392C55.8285 67.2011 49.5873 67.5714 43 67.5714ZM9.26867 63.4892C12.475 64.5016 16.3952 65.3663 20.8391 66.0357C16.3952 66.7051 12.4751 67.5698 9.26868 68.5822C7.07201 67.8719 5.26051 67.0991 3.88798 66.2878C3.74503 66.2033 3.60823 66.1193 3.47741 66.0357C3.60823 65.9522 3.74503 65.8681 3.88798 65.7836C5.26051 64.9724 7.07201 64.1995 9.26867 63.4892ZM2.60173 60.5125C3.88308 61.3888 5.60757 62.2117 7.70738 62.9643C5.60757 63.7169 3.88308 64.5398 2.60174 65.4161C1.44539 64.4995 1 63.661 1 62.9643C1 62.2675 1.44538 61.429 2.60173 60.5125ZM83.3983 66.6554C82.1169 67.5316 80.3924 68.3546 78.2926 69.1071C80.3924 69.8597 82.1169 70.6826 83.3983 71.5589C84.5546 70.6424 85 69.8039 85 69.1071C85 68.4104 84.5546 67.5719 83.3983 66.6554ZM9.26867 69.6321C17.1446 72.1189 29.327 73.7143 43 73.7143C56.673 73.7143 68.8554 72.1189 76.7313 69.6321C78.928 70.3424 80.7395 71.1152 82.112 71.9265C82.255 72.011 82.3918 72.095 82.5226 72.1786C82.3918 72.2621 82.255 72.3462 82.112 72.4307C80.0548 73.6466 77.0114 74.7763 73.1631 75.7384C65.4817 77.6587 54.817 78.8571 43 78.8571C31.183 78.8571 20.5183 77.6587 12.8369 75.7384C8.98857 74.7763 5.94519 73.6466 3.88798 72.4307C3.74503 72.3462 3.60823 72.2621 3.47741 72.1786C3.60823 72.095 3.74503 72.011 3.88798 71.9265C5.26051 71.1152 7.07201 70.3424 9.26867 69.6321ZM7.70738 69.1071C5.60757 68.3546 3.88307 67.5316 2.60173 66.6554C1.44538 67.5719 1 68.4104 1 69.1071C1 69.8039 1.44539 70.6424 2.60174 71.5589C3.88308 70.6826 5.60757 69.8597 7.70738 69.1071ZM43 79.8571C61.561 79.8571 77.3753 76.9171 83.3983 72.7982C84.5546 73.7148 85 74.5533 85 75.25C85 76.1624 84.2362 77.318 82.112 78.5735C80.0548 79.7895 77.0114 80.9192 73.1631 81.8813C65.4817 83.8016 54.817 85 43 85C31.183 85 20.5183 83.8016 12.8369 81.8813C8.98857 80.9192 5.94519 79.7895 3.88798 78.5735C1.76384 77.318 1 76.1624 1 75.25C1 74.5533 1.44538 73.7148 2.60173 72.7982C8.62469 76.9171 24.439 79.8571 43 79.8571Z" fill="#ABABAB"/>
</svg>
