<svg width="225" height="72" viewBox="0 0 225 72" fill="none" xmlns="http://www.w3.org/2000/svg">
<g clip-path="url(#clip0_64_764)">
<path d="M182.39 39.7758C183.029 37.0169 184.567 34.3569 186.303 32.1465C186.93 31.3481 188.735 30.0834 188.635 28.9828C188.523 27.7349 186.632 26.2482 185.909 25.2614C184.332 23.1125 183.171 20.583 182.508 18.0051C182.299 17.1936 181.578 15.3283 182.041 14.5504C182.484 13.8043 184.272 14.0636 184.998 14.1139C186.938 14.2464 188.902 14.5448 190.77 15.082C191.666 15.3395 192.995 16.0819 193.929 15.8916C195.222 15.6286 196.438 13.1682 197.306 12.2374C199.43 9.95788 202.096 7.97499 204.924 6.6543C204.268 5.10605 202.874 3.8264 201.571 2.80045C194.263 -2.96355 182.734 0.588119 180.139 9.63144C178.819 14.2352 179.966 19.3855 182.067 23.5881C182.678 24.81 183.415 26.028 184.233 27.123C184.612 27.6304 185.39 28.3019 185.39 28.9847C185.39 29.7625 184.386 30.6336 183.949 31.2175C182.631 32.9747 181.567 34.9315 180.793 36.9852C180.587 37.5262 179.952 38.7163 180.354 39.2666C180.705 39.7422 181.855 39.7068 182.39 39.7758ZM182.95 15.2126C183.018 18.4229 186.777 17.4697 189.282 18.0928C190.869 18.4882 193.858 20.5196 195.388 20.1708C196.503 19.9171 197.858 16.6825 198.609 15.7722C201.088 12.769 204.046 10.9988 207.347 9.07369C207.981 11.3942 208.915 13.5301 209.178 15.9588C209.339 17.4156 208.926 19.8182 209.508 21.1277C209.794 21.7675 210.668 21.8701 211.259 22.0735C212.745 22.5902 214.177 23.2076 215.542 23.9873C217.127 24.892 218.65 25.9329 220.011 27.1547C220.455 27.5539 221.157 28.5519 221.857 28.3616C222.669 28.1415 223.182 26.6921 223.492 26.0075C224.668 23.3979 225.279 20.4767 224.877 17.6339C223.839 10.2582 217.177 5.60783 209.956 6.11335C205.226 6.44538 201.037 9.76201 197.853 12.9816C196.915 13.9311 195.601 16.7478 194.386 17.1582C193.557 17.438 191.808 16.3468 190.964 16.1229C188.272 15.4122 185.717 15.2126 182.95 15.2126ZM204.737 11.3047C205.2 14.4478 206.117 17.1657 206.038 20.4226C206.016 21.2919 205.263 23.3158 205.965 23.9855C206.772 24.7521 209.059 24.81 210.137 25.1718C212.622 26.0075 214.984 27.3114 217.028 28.9473C217.709 29.4939 219.624 30.7978 219.624 31.7585C219.624 32.5345 217.965 33.3795 217.401 33.7563C215.781 34.8363 214.015 35.7466 212.187 36.4182C211.375 36.7148 209.934 36.8677 209.32 37.4945C208.569 38.2593 209.087 40.4474 208.967 41.4528C208.536 45.1015 206.664 48.2036 206.042 51.6881C208.851 52.5853 211.892 52.964 214.795 52.2645C224.791 49.8582 227.175 38.0448 221.806 30.2885C219.891 27.5203 216.546 25.2856 213.492 23.937C212.312 23.4147 209.131 22.9595 208.47 21.8739C207.795 20.764 208.306 18.3502 208.276 17.078C208.22 14.8284 207.593 12.4668 206.789 10.3794L204.737 11.3047Z" fill="#FFC72F"/>
<path d="M33.4177 41.6355C36.0498 40.4697 38.3589 39.5239 40.2107 37.1699C44.3978 31.8535 43.8098 22.6815 38.6315 18.2457C31.5136 12.1459 19.3706 14.2818 10.6996 14.2818H4.181C3.17857 14.2818 2.06786 14.14 1.21104 14.7742C-0.478354 16.0277 0.270204 19.8573 0.270204 21.7246V62.662C0.270204 64.7661 -0.539956 69.0397 0.645417 70.8305C1.86999 72.6828 6.87096 71.7799 8.83662 71.7799H23.5483C27.2687 71.7799 30.976 71.946 34.5359 70.6533C38.1461 69.3419 41.2038 67.0046 43.0444 63.591C47.6814 54.9916 43.0127 43.833 33.4177 41.6355ZM10.3263 22.2842H21.3138C24.0542 22.2842 26.8674 22.2208 29.3202 23.6515C34.1121 26.444 33.3972 34.8139 28.7621 37.375C26.5052 38.6211 23.9814 38.4737 21.5005 38.4737H10.3263V22.2842ZM30.2517 62.6116C27.6028 63.9361 24.7449 63.7775 21.872 63.7775H10.3263V45.5416H21.6853C24.6833 45.5416 27.741 45.4689 30.4384 47.0078C36.1002 50.2386 36.1991 59.6382 30.2517 62.6116ZM57.8774 15.2331C57.1326 14.2631 55.9398 14.2818 54.8328 14.2818H48.3161V66.7565C48.3161 68.0193 47.9539 69.9481 48.8089 70.9965C49.5238 71.8713 50.6513 71.7799 51.6668 71.7799H58.3703V19.6783C58.3703 18.3445 58.7436 16.3579 57.8774 15.2331ZM112.016 35.3082C111.262 30.7903 109.578 26.2649 106.704 22.6554C100.433 14.7798 91.4767 14.2818 82.2065 14.2818H69.1712C67.618 14.2818 65.3257 13.8341 64.2374 15.2312C63.4104 16.2964 63.7707 18.227 63.7707 19.4917V71.7799H82.3932C86.5635 71.7799 90.7823 72.0672 94.8704 71.1009C110.56 67.3907 114.312 49.0579 112.016 35.3082ZM100.766 53.3594C99.7482 56.5305 98.0289 59.4778 95.2419 61.4029C89.4681 65.3948 80.4742 63.7794 73.8268 63.7794V22.2842C80.4947 22.2842 89.4606 20.7303 95.2419 24.7857C103.375 30.49 103.512 44.7862 100.766 53.3594ZM167.981 14.8675C167.775 13.8024 164.417 14.2818 163.583 14.2818C159.515 14.2818 154.447 13.4069 151.938 17.4454C149.168 21.9055 148.046 28.1097 146.388 33.0754C143.146 42.7939 139.545 52.4305 136.767 62.2908C135.677 59.4088 135.024 56.2936 134.036 53.3594C131.176 44.8645 128.309 36.3696 125.47 27.8672C124.495 24.9461 123.469 22.0417 122.491 19.1205C122.009 17.6767 121.695 15.9009 120.377 14.9607C118.012 13.2763 112.75 14.2818 109.954 14.2818C110.631 18.7997 113.045 23.5452 114.546 27.8654C117.967 37.7145 121.428 47.5618 124.727 57.452C125.785 60.6232 126.84 63.8111 128.009 66.943C128.718 68.8457 129.511 70.6402 131.555 71.3919C134.143 72.3414 137.585 71.7799 140.308 71.7799C141.124 71.7799 142.683 72.0765 143.379 71.5878C144.186 71.0226 144.481 69.1367 144.777 68.2432C145.733 65.378 146.801 62.5482 147.757 59.683C151.346 48.9217 155.043 38.1454 158.938 27.4904C160.103 24.3044 161.445 20.6818 164.143 18.4583C165.095 17.6767 168.28 16.4027 167.981 14.8675Z" fill="#016B69"/>
<path d="M203.247 47.403C201.019 46.0114 199.025 43.9782 197.539 41.8199C196.951 40.9656 196.107 38.6208 195.166 38.2142C193.949 37.6881 190.931 39.5833 189.652 39.9322C185.954 40.9432 182.581 40.6205 178.851 40.1467C179.409 37.4456 180.589 34.8621 182.017 32.5173C182.603 31.5548 184.162 30.1371 184.166 28.9824C184.171 27.5536 182.051 25.4121 181.354 24.1437C179.926 21.5433 179.226 18.6576 178.666 15.77C176.718 15.9416 174.767 17.2325 173.266 18.4151C166.101 24.0504 166.279 34.9199 173.824 40.1989C177.929 43.0697 183.143 43.4465 187.976 42.6705C189.499 42.4262 192.51 40.8126 193.916 41.195C194.683 41.4039 195.194 42.7022 195.616 43.3104C196.873 45.131 198.364 46.7072 200.08 48.1006C200.554 48.4868 201.411 49.3971 202.088 49.2833C202.785 49.1658 203.085 47.9645 203.247 47.403Z" fill="#FFC72F"/>
<path d="M202.502 50.9399L196.252 45.5434L193.547 42.3667L188.35 43.6034L179.226 43.6818C179.226 47.7427 180.288 51.6413 183.191 54.6296C189.151 60.763 198.923 59.2259 203.913 52.7997C206.274 49.7592 207.398 45.9669 207.85 42.1932C208.001 40.9341 207.411 37.8021 208.203 36.8769C208.972 35.9778 211.272 35.767 212.375 35.3641C214.667 34.5284 216.736 33.1816 218.707 31.7714C218.388 31.0961 217.723 30.1541 216.844 30.3052C215.853 30.475 214.738 31.5382 213.865 32.0363C212.3 32.9242 210.574 33.5677 208.837 34.0266C208.068 34.2299 206.185 34.2523 205.677 34.8866C205.287 35.3716 205.554 36.2464 205.617 36.7948C205.782 38.1789 205.726 39.6824 205.664 41.074C205.5 44.7301 203.872 47.6681 202.502 50.9399Z" fill="#FFC72F"/>
</g>
<defs>
<clipPath id="clip0_64_764">
<rect width="225" height="71.9997" fill="white"/>
</clipPath>
</defs>
</svg>
