<svg width="62" height="93" viewBox="0 0 62 93" fill="none" xmlns="http://www.w3.org/2000/svg">
<path d="M53.0267 33.1423H7.65813C3.63609 33.1423 0.418457 36.36 0.418457 40.3822V85.7517C0.418457 92.1871 8.22122 95.4049 12.8063 90.9001L58.175 45.5305C62.6796 40.9453 59.462 33.1423 53.0267 33.1423Z" fill="url(#paint0_linear_59_730)"/>
<path d="M54.4746 0H7.81888C3.7164 0 0.337891 3.29814 0.337891 7.48116V54.1378C0.337891 60.7341 8.38197 64.1127 13.0475 59.3666L59.7032 12.7099C64.4492 8.04425 61.1511 0 54.4746 0Z" fill="url(#paint1_linear_59_730)"/>
<path d="M13.1282 59.3666L39.3519 33.1423H7.65824C3.6362 33.1423 0.418567 36.36 0.418567 40.3822V54.0574C0.338127 60.7341 8.38221 64.0323 13.1282 59.3666Z" fill="#2F7BF2"/>
<defs>
<linearGradient id="paint0_linear_59_730" x1="53.3915" y1="36.0528" x2="-0.615081" y2="67.9996" gradientUnits="userSpaceOnUse">
<stop stop-color="#C06AE4"/>
<stop offset="1" stop-color="#4D24C6"/>
</linearGradient>
<linearGradient id="paint1_linear_59_730" x1="60.3619" y1="2.10611" x2="0.337889" y2="36.8568" gradientUnits="userSpaceOnUse">
<stop stop-color="#00FDC2"/>
<stop offset="1" stop-color="#00C3DE"/>
</linearGradient>
</defs>
</svg>
