<svg width="56" height="46" viewBox="0 0 56 46" fill="none" xmlns="http://www.w3.org/2000/svg">
<path fill-rule="evenodd" clip-rule="evenodd" d="M7.27573 -1.38823e-05C5.2605 0.958179 3.58949 2.47622 2.35813 4.46744C1.12677 6.45866 0.359157 8.88406 0.0991291 11.6052C-0.160899 14.3263 0.0917472 17.2898 0.842642 20.3265C1.59354 23.3632 2.82797 26.4137 4.47547 29.3037C6.12297 32.1937 8.15127 34.8667 10.4446 37.1701C12.7378 39.4734 15.2512 41.362 17.8412 42.728C20.4311 44.094 23.0469 44.9107 25.5392 45.1314C26.3505 45.2033 27.1434 45.2115 27.9136 45.1569C28.6838 45.2115 29.4768 45.2033 30.288 45.1314C32.7803 44.9107 35.3961 44.094 37.986 42.728C40.576 41.362 43.0894 39.4734 45.3826 37.1701C47.6759 34.8667 49.7042 32.1937 51.3517 29.3037C52.9992 26.4137 54.2337 23.3632 54.9846 20.3265C55.7355 17.2898 55.9881 14.3263 55.7281 11.6052C55.4681 8.88406 54.7004 6.45866 53.4691 4.46744C52.2377 2.47622 50.5667 0.958179 48.5515 -1.38823e-05L36.006 22.0072L27.9136 36.2027L19.8212 22.0072L7.27573 -1.38823e-05ZM27.7737 22.7035C33.2966 22.7035 37.7737 18.2263 37.7737 12.7035C37.7737 7.18064 33.2966 2.70349 27.7737 2.70349C22.2509 2.70349 17.7737 7.18064 17.7737 12.7035C17.7737 18.2263 22.2509 22.7035 27.7737 22.7035Z" fill="#151515"/>
</svg>
