<svg width="208" height="93" viewBox="0 0 208 93" fill="none" xmlns="http://www.w3.org/2000/svg">
<path d="M50.5781 31.8154H7.02682C3.16589 31.8154 0.0771484 34.9042 0.0771484 38.7652V82.3174C0.0771484 88.495 7.56735 91.5839 11.9688 87.2595L55.5201 43.7073C59.8443 39.3058 56.7555 31.8154 50.5781 31.8154Z" fill="url(#paint0_linear_87_827)"/>
<path d="M51.9681 0H7.18132C3.24318 0 0 3.16603 0 7.18148V51.9692C0 58.3012 7.72185 61.5445 12.2005 56.9885L56.9873 12.2008C61.5432 7.72202 58.3772 0 51.9681 0Z" fill="url(#paint1_linear_87_827)"/>
<path d="M12.2783 56.9892L37.4515 31.8154H7.02739C3.16646 31.8154 0.0777232 34.9042 0.0777232 38.7652V51.8927C0.000504643 58.3019 7.72236 61.468 12.2783 56.9892Z" fill="#2F7BF2"/>
<path d="M77.0488 32.6919H101.064V38.1745H83.7668V50.2209H97.2801V55.7035H83.7668V73.5414H77.0488V32.6919Z" fill="#2B3648"/>
<path d="M104.616 32.5362C104.616 30.1423 106.469 28.2891 108.863 28.2891C111.18 28.2891 113.11 30.1423 113.11 32.5362C113.11 34.93 111.257 36.7833 108.863 36.7833C106.469 36.8605 104.616 34.93 104.616 32.5362ZM105.543 41.1076H112.261V73.4629H105.543V41.1076Z" fill="#2B3648"/>
<path d="M142.144 55.3932C142.144 49.4472 138.901 46.4356 134.036 46.4356C129.094 46.4356 125.851 49.5244 125.851 55.3932V73.4627H119.133V41.1074H125.851V44.814C128.013 42.1885 131.565 40.5669 135.503 40.5669C143.071 40.5669 148.785 45.3546 148.785 54.3893V73.4627H142.144V55.3932Z" fill="#2B3648"/>
<path d="M162.221 73.4627H155.503V41.1074H162.221V45.8179C164.074 42.5746 167.317 40.5669 171.873 40.5669V47.5167H170.174C165.232 47.5167 162.221 49.6017 162.221 56.397V73.4627Z" fill="#2B3648"/>
<path d="M189.324 40.5669C194.807 40.5669 198.513 43.1152 200.521 45.8179V41.1074H207.239V73.4627H200.521V68.5978C198.436 71.3778 194.575 73.926 189.17 73.926C180.753 73.926 174.035 67.0534 174.035 57.092C174.035 47.1306 180.83 40.5669 189.324 40.5669ZM190.714 46.3584C185.695 46.3584 180.908 50.1422 180.908 57.092C180.908 64.0418 185.695 68.1345 190.714 68.1345C195.734 68.1345 200.521 64.1963 200.521 57.2465C200.521 50.2966 195.811 46.3584 190.714 46.3584Z" fill="#2B3648"/>
<path d="M84.7707 85.433H85.6202V88.9851C85.1568 89.3712 84.6163 89.6801 83.9986 89.9117C83.3808 90.1434 82.7631 90.2206 82.0681 90.2206C81.1415 90.2206 80.2921 89.989 79.5199 89.5256C78.7477 89.0623 78.13 88.4445 77.6666 87.7496C77.2033 86.9774 76.9717 86.1279 76.9717 85.2785C76.9717 84.3519 77.2033 83.5797 77.6666 82.8075C78.13 82.0353 78.7477 81.4947 79.5199 81.0314C80.2921 80.5681 81.1415 80.3364 82.0681 80.3364C82.7631 80.3364 83.3808 80.4909 83.9986 80.7225C84.6163 80.9542 85.1568 81.2631 85.6202 81.7264L85.0796 82.4214C84.6935 82.0353 84.2302 81.7264 83.6897 81.572C83.1492 81.3403 82.6086 81.2631 82.0681 81.2631C81.2959 81.2631 80.6009 81.4175 79.9832 81.8036C79.3655 82.1897 78.8249 82.653 78.516 83.2708C78.13 83.8886 77.9755 84.5835 77.9755 85.3557C77.9755 86.1279 78.13 86.8229 78.516 87.4407C78.9021 88.0584 79.3655 88.599 80.0604 88.9079C80.6782 89.294 81.3731 89.4484 82.1453 89.4484C82.6086 89.4484 83.0719 89.3712 83.5353 89.2167C83.9986 89.0623 84.3847 88.8306 84.848 88.599V85.433H84.7707Z" fill="#2B3648"/>
<path d="M89.0176 80.2575C89.172 80.4119 89.172 80.5664 89.172 80.7208C89.172 80.8752 89.0948 81.0297 89.0176 81.1841C88.8631 81.3386 88.7087 81.4158 88.5543 81.4158C88.3998 81.4158 88.2454 81.3386 88.091 81.1841C87.9365 81.0297 87.9365 80.8752 87.9365 80.7208C87.9365 80.5664 88.0137 80.4119 88.091 80.2575C88.2454 80.103 88.3998 80.103 88.5543 80.103C88.7087 80.103 88.9404 80.1803 89.0176 80.2575ZM88.091 82.883H89.0176V90.2189H88.091V82.883Z" fill="#2B3648"/>
<path d="M96.1991 90.1421V88.9066C95.8902 89.3699 95.5041 89.6788 95.0408 89.8332C94.5775 90.0649 94.037 90.1421 93.4192 90.1421C92.9559 90.1421 92.4926 90.0649 92.1065 89.8332C91.7204 89.6788 91.4116 89.3699 91.2571 89.061C91.0255 88.7521 90.9482 88.366 90.9482 87.9027C90.9482 87.2849 91.1799 86.7444 91.6432 86.4355C92.1065 86.0494 92.8015 85.895 93.6509 85.895H96.1219V85.3544C96.1219 84.8139 95.9674 84.3506 95.5813 84.0417C95.1953 83.7328 94.7319 83.5784 94.037 83.5784C93.2648 83.5784 92.4926 83.8872 91.6432 84.4278L91.2571 83.81C91.7204 83.5011 92.1837 83.1923 92.647 83.0378C93.1104 82.8834 93.5737 82.8062 94.1914 82.8062C95.0408 82.8062 95.7358 83.0378 96.2763 83.5011C96.7396 83.9645 96.9713 84.5822 97.0485 85.3544V90.2193H96.1991V90.1421ZM95.2725 88.9838C95.7358 88.6749 96.0447 88.2888 96.1991 87.671V86.6672H93.8053C93.1876 86.6672 92.647 86.7444 92.3382 86.976C92.0293 87.2077 91.7976 87.5166 91.7976 87.9027C91.7976 88.366 91.9521 88.6749 92.261 88.9838C92.5698 89.2154 93.0331 89.3699 93.5737 89.3699C94.2686 89.4471 94.8092 89.2926 95.2725 88.9838Z" fill="#2B3648"/>
<path d="M106.778 89.6792C106.237 89.9881 105.774 90.2197 105.156 90.2197C104.615 90.2197 104.152 90.0653 103.843 89.6792C103.534 89.3703 103.38 88.8298 103.38 88.1348V83.8105H102.299V83.1155H103.38V81.2622H104.307V83.1155H106.7V83.8877H104.307V88.0576C104.307 88.9842 104.615 89.4475 105.31 89.4475C105.696 89.4475 106.083 89.2931 106.546 89.0614L106.778 89.6792Z" fill="#2B3648"/>
<path d="M112.878 90.1419V88.9063C112.569 89.3697 112.183 89.6785 111.72 89.833C111.256 90.0646 110.716 90.1419 110.098 90.1419C109.635 90.1419 109.171 90.0646 108.785 89.833C108.399 89.6785 108.09 89.3697 107.936 89.0608C107.704 88.7519 107.627 88.3658 107.627 87.9025C107.627 87.2847 107.859 86.7442 108.322 86.4353C108.785 86.0492 109.48 85.8947 110.33 85.8947H112.801V85.3542C112.801 84.8137 112.646 84.3503 112.26 84.0415C111.951 83.7326 111.411 83.5781 110.716 83.5781C109.944 83.5781 109.171 83.887 108.322 84.4276L107.936 83.8098C108.399 83.5009 108.862 83.192 109.326 83.0376C109.789 82.8832 110.252 82.8059 110.87 82.8059C111.72 82.8059 112.415 83.0376 112.955 83.5009C113.418 83.9642 113.65 84.582 113.727 85.3542V90.2191H112.878V90.1419ZM111.951 88.9835C112.415 88.6747 112.723 88.2886 112.878 87.6708V86.6669H110.484C109.866 86.6669 109.326 86.7442 109.017 86.9758C108.708 87.2075 108.476 87.5164 108.476 87.9025C108.476 88.3658 108.631 88.6747 108.94 88.9835C109.249 89.2152 109.712 89.3696 110.252 89.3696C110.947 89.4469 111.488 89.2924 111.951 88.9835ZM110.175 80.6438C110.33 80.8754 110.638 80.9527 110.87 80.9527C111.179 80.9527 111.411 80.8754 111.565 80.6438C111.72 80.4121 111.874 80.1805 111.874 79.8716H112.569C112.569 80.4121 112.415 80.7982 112.028 81.1071C111.72 81.416 111.333 81.5704 110.793 81.5704C110.33 81.5704 109.944 81.416 109.557 81.1071C109.249 80.7982 109.094 80.4121 109.017 79.8716H109.712C109.866 80.1805 110.021 80.4121 110.175 80.6438Z" fill="#2B3648"/>
<path d="M122.067 83.5799C122.53 84.1204 122.839 84.8154 122.839 85.6648V90.1436H121.912V85.8965C121.912 85.2015 121.758 84.661 121.372 84.2749C120.986 83.8888 120.445 83.6571 119.75 83.6571C118.978 83.6571 118.36 83.8888 117.974 84.3521C117.511 84.8154 117.279 85.4332 117.202 86.2054V90.1436H116.275V82.8077H117.125V84.5065C117.356 83.966 117.743 83.5027 118.206 83.1938C118.669 82.8849 119.287 82.7305 119.982 82.7305C120.831 82.8077 121.526 83.1166 122.067 83.5799Z" fill="#2B3648"/>
<path d="M131.411 82.8838V89.4475C131.411 90.1425 131.256 90.7602 130.947 91.3008C130.639 91.8413 130.252 92.2274 129.635 92.5363C129.094 92.8452 128.476 92.9996 127.704 92.9996C126.623 92.9996 125.619 92.6135 124.693 91.9185L125.156 91.2236C125.542 91.5325 125.928 91.7641 126.314 91.9958C126.7 92.1502 127.164 92.2274 127.627 92.2274C128.476 92.2274 129.094 91.9958 129.635 91.5324C130.098 91.0691 130.407 90.3741 130.407 89.6019V88.4436C130.175 88.9842 129.789 89.3703 129.326 89.6792C128.863 89.988 128.322 90.1425 127.627 90.1425C127.009 90.1425 126.392 89.988 125.928 89.6792C125.388 89.3703 125.002 88.9842 124.77 88.4436C124.461 87.9031 124.307 87.2853 124.307 86.5904C124.307 85.8954 124.461 85.2776 124.77 84.8143C125.079 84.2738 125.465 83.8876 125.928 83.5788C126.469 83.2699 127.009 83.1155 127.704 83.1155C128.322 83.1155 128.863 83.2699 129.326 83.5788C129.789 83.8876 130.175 84.2738 130.407 84.8143V83.1927H131.411V82.8838ZM129.249 88.7525C129.635 88.5209 129.944 88.212 130.175 87.7487C130.407 87.3626 130.484 86.822 130.484 86.3587C130.484 85.8182 130.407 85.3548 130.175 84.9687C129.944 84.5826 129.635 84.1965 129.249 83.9649C128.863 83.7332 128.399 83.5788 127.859 83.5788C127.318 83.5788 126.932 83.7332 126.469 83.9649C126.083 84.1965 125.774 84.5054 125.542 84.9687C125.31 85.3548 125.233 85.8954 125.233 86.3587C125.233 86.8992 125.31 87.3626 125.542 87.7487C125.774 88.1348 126.083 88.5209 126.469 88.7525C126.855 88.9842 127.318 89.1386 127.859 89.1386C128.399 89.1386 128.863 88.9842 129.249 88.7525Z" fill="#2B3648"/>
<path d="M143.765 82.8838V89.4475C143.765 90.1425 143.611 90.7602 143.302 91.3008C142.993 91.8413 142.607 92.2274 141.989 92.5363C141.449 92.8452 140.831 92.9996 140.059 92.9996C138.978 92.9996 137.974 92.6135 137.047 91.9185L137.511 91.2236C137.897 91.5325 138.283 91.7641 138.669 91.9958C139.055 92.1502 139.518 92.2274 139.982 92.2274C140.831 92.2274 141.449 91.9958 141.989 91.5324C142.453 91.0691 142.761 90.3741 142.761 89.6019V88.4436C142.53 88.9842 142.144 89.3703 141.68 89.6792C141.217 89.988 140.676 90.1425 139.982 90.1425C139.364 90.1425 138.746 89.988 138.283 89.6792C137.742 89.3703 137.356 88.9842 137.124 88.4436C136.816 87.9031 136.661 87.2853 136.661 86.5904C136.661 85.8954 136.816 85.2776 137.124 84.8143C137.433 84.2738 137.819 83.8876 138.283 83.5788C138.823 83.2699 139.364 83.1155 140.059 83.1155C140.676 83.1155 141.217 83.2699 141.68 83.5788C142.144 83.8876 142.53 84.2738 142.761 84.8143V83.1927H143.765V82.8838ZM141.603 88.7525C141.989 88.5209 142.298 88.212 142.53 87.7487C142.761 87.3626 142.839 86.822 142.839 86.3587C142.839 85.8182 142.761 85.3548 142.53 84.9687C142.298 84.5826 141.989 84.1965 141.603 83.9649C141.217 83.7332 140.754 83.5788 140.213 83.5788C139.673 83.5788 139.287 83.7332 138.823 83.9649C138.437 84.1965 138.128 84.5054 137.897 84.9687C137.665 85.3548 137.588 85.8954 137.588 86.3587C137.588 86.8992 137.665 87.3626 137.897 87.7487C138.128 88.1348 138.437 88.5209 138.823 88.7525C139.209 88.9842 139.673 89.1386 140.213 89.1386C140.754 89.1386 141.217 88.9842 141.603 88.7525Z" fill="#2B3648"/>
<path d="M147.086 80.2575C147.24 80.4119 147.24 80.5664 147.24 80.7208C147.24 80.8752 147.163 81.0297 147.086 81.1841C146.932 81.3386 146.777 81.4158 146.623 81.4158C146.468 81.4158 146.314 81.3386 146.159 81.1841C146.005 81.0297 146.005 80.8752 146.005 80.7208C146.005 80.5664 146.082 80.4119 146.159 80.2575C146.314 80.103 146.468 80.103 146.623 80.103C146.854 80.103 147.009 80.1803 147.086 80.2575ZM146.159 82.883H147.086V90.2189H146.159V82.883Z" fill="#2B3648"/>
<path d="M154.267 90.143V88.9075C153.959 89.3708 153.572 89.6797 153.109 89.8341C152.646 90.0658 152.105 90.143 151.488 90.143C151.024 90.143 150.561 90.0658 150.175 89.8341C149.789 89.6797 149.48 89.3708 149.325 89.0619C149.094 88.753 149.017 88.3669 149.017 87.9036C149.017 87.2858 149.248 86.7453 149.712 86.4364C150.175 86.0503 150.87 85.8959 151.719 85.8959H154.19V85.3553C154.19 84.8148 154.036 84.3515 153.65 84.0426C153.341 83.7337 152.8 83.5793 152.105 83.5793C151.333 83.5793 150.561 83.8882 149.712 84.4287L149.325 83.8109C149.789 83.5021 150.252 83.1932 150.715 83.0387C151.179 82.8843 151.642 82.8071 152.26 82.8071C153.109 82.8071 153.804 83.0387 154.345 83.5021C154.808 83.9654 155.04 84.5831 155.117 85.3553V90.2202H154.267V90.143ZM153.341 88.9847C153.804 88.6758 154.113 88.2897 154.267 87.6719V86.6681H151.874C151.256 86.6681 150.715 86.7453 150.407 86.977C150.098 87.2086 149.866 87.5175 149.866 87.9036C149.866 88.3669 150.02 88.6758 150.329 88.9847C150.638 89.2163 151.101 89.3708 151.642 89.3708C152.337 89.448 152.878 89.2936 153.341 88.9847ZM153.264 79.7183L154.19 80.1044L152.414 81.4943L151.565 81.4171L153.264 79.7183Z" fill="#2B3648"/>
<path d="M164.846 89.6792C164.305 89.9881 163.842 90.2197 163.224 90.2197C162.684 90.2197 162.22 90.0653 161.912 89.6792C161.603 89.3703 161.448 88.8298 161.448 88.1348V83.8105H160.367V83.1155H161.448V81.2622H162.375V83.1155H164.769V83.8877H162.375V88.0576C162.375 88.9842 162.684 89.4475 163.379 89.4475C163.765 89.4475 164.151 89.2931 164.614 89.0614L164.846 89.6792Z" fill="#2B3648"/>
<path d="M168.321 83.2695C168.784 82.9606 169.325 82.8062 169.943 82.8062V83.6556C169.17 83.6556 168.553 83.8872 168.089 84.3506C167.626 84.8139 167.317 85.4316 167.317 86.2038V90.1421H166.391V82.8062H167.317V84.505C167.549 83.9645 167.858 83.5784 168.321 83.2695Z" fill="#2B3648"/>
<path d="M172.26 80.2575C172.414 80.4119 172.414 80.5664 172.414 80.7208C172.414 80.8752 172.337 81.0297 172.26 81.1841C172.105 81.3386 171.951 81.4158 171.796 81.4158C171.642 81.4158 171.488 81.3386 171.333 81.1841C171.179 81.0297 171.179 80.8752 171.179 80.7208C171.179 80.5664 171.256 80.4119 171.333 80.2575C171.488 80.103 171.642 80.103 171.796 80.103C171.951 80.103 172.105 80.1803 172.26 80.2575ZM172.26 91.3772C172.414 91.5316 172.414 91.6861 172.414 91.8405C172.414 91.9949 172.337 92.1494 172.26 92.3038C172.105 92.4583 171.951 92.5355 171.796 92.5355C171.642 92.5355 171.488 92.4583 171.333 92.3038C171.179 92.1494 171.179 91.9949 171.179 91.8405C171.179 91.6861 171.256 91.5316 171.333 91.3772C171.488 91.2227 171.642 91.2227 171.796 91.2227C171.951 91.2227 172.105 91.3 172.26 91.3772ZM171.333 82.883H172.26V90.2189H171.333V82.883Z" fill="#2B3648"/>
<path d="M182.143 89.6792C181.602 89.9881 181.139 90.2197 180.521 90.2197C179.981 90.2197 179.517 90.0653 179.208 89.6792C178.9 89.3703 178.745 88.8298 178.745 88.1348V83.8105H177.664V83.1155H178.745V81.2622H179.672V83.1155H182.066V83.8877H179.672V88.0576C179.672 88.9842 179.981 89.4475 180.676 89.4475C181.062 89.4475 181.448 89.2931 181.911 89.0614L182.143 89.6792Z" fill="#2B3648"/>
<path d="M189.633 83.5793C190.097 84.1198 190.405 84.8148 190.405 85.6642V90.143H189.479V85.8959C189.479 85.2009 189.324 84.6604 188.938 84.2743C188.552 83.8882 188.012 83.6565 187.317 83.6565C186.545 83.6565 185.85 83.9654 185.386 84.4287C184.923 84.9692 184.691 85.6642 184.691 86.5136V90.0658H183.765V79.7183H184.691V84.5059C185.155 83.3476 186.158 82.7299 187.626 82.7299C188.398 82.8071 189.093 83.1159 189.633 83.5793Z" fill="#2B3648"/>
<path d="M200.135 82.0346C200.135 82.4207 200.058 82.6524 199.826 82.9613C199.594 83.1929 199.363 83.3474 198.977 83.4246V90.1427H198.05V88.3667C197.818 88.9072 197.432 89.3705 196.969 89.6794C196.506 89.9883 195.888 90.1427 195.27 90.1427C194.421 90.1427 193.726 89.9111 193.262 89.3705C192.799 88.83 192.567 88.135 192.567 87.2856V82.8068H193.494V87.0539C193.494 87.7489 193.648 88.2895 194.035 88.6756C194.421 89.0617 194.961 89.2161 195.579 89.2161C196.351 89.2161 196.969 88.9072 197.432 88.4439C197.895 87.9033 198.127 87.2084 198.127 86.3589V82.8068H198.513C198.822 82.8068 199.054 82.7296 199.208 82.5752C199.363 82.4207 199.44 82.2663 199.44 82.0346C199.44 81.803 199.363 81.5713 199.208 81.3396L199.98 81.0308C200.058 81.4169 200.135 81.7257 200.135 82.0346ZM196.274 91.3783C196.428 91.5327 196.428 91.6871 196.428 91.8416C196.428 91.996 196.351 92.1505 196.274 92.3049C196.119 92.4593 195.965 92.5366 195.811 92.5366C195.656 92.5366 195.502 92.4593 195.347 92.3049C195.193 92.1505 195.193 91.996 195.193 91.8416C195.193 91.6871 195.27 91.5327 195.347 91.3783C195.502 91.2238 195.656 91.2238 195.811 91.2238C195.965 91.2238 196.197 91.301 196.274 91.3783Z" fill="#2B3648"/>
<path d="M204.459 83.6556C203.919 83.6556 203.456 83.81 203.069 84.0417C202.683 84.2733 202.297 84.6594 202.066 85.0455C201.834 85.5089 201.679 85.9722 201.679 86.5127C201.679 87.0533 201.834 87.5938 202.066 87.9799C202.297 88.4432 202.606 88.7521 203.069 88.9838C203.456 89.2154 203.919 89.3699 204.459 89.3699C204.923 89.3699 205.386 89.2927 205.772 89.1382C206.158 88.9838 206.467 88.7521 206.776 88.4432L207.316 88.9838C207.008 89.3699 206.544 89.6788 206.081 89.9104C205.618 90.1421 205.077 90.2193 204.459 90.2193C203.764 90.2193 203.147 90.0648 202.606 89.756C202.066 89.4471 201.602 88.9838 201.293 88.4432C200.985 87.9027 200.83 87.2077 200.83 86.5127C200.83 85.8177 200.985 85.2 201.293 84.5822C201.602 84.0417 202.066 83.5784 202.606 83.2695C203.147 82.9606 203.764 82.8062 204.459 82.8062C205 82.8062 205.54 82.8834 206.004 83.115C206.467 83.2695 206.853 83.5784 207.239 83.8872L206.699 84.505C206.081 83.9645 205.309 83.6556 204.459 83.6556Z" fill="#2B3648"/>
<defs>
<linearGradient id="paint0_linear_87_827" x1="50.9282" y1="34.6093" x2="-0.914988" y2="65.2764" gradientUnits="userSpaceOnUse">
<stop stop-color="#C06AE4"/>
<stop offset="1" stop-color="#4D24C6"/>
</linearGradient>
<linearGradient id="paint1_linear_87_827" x1="57.6196" y1="2.02174" x2="-2.0991e-06" y2="35.3804" gradientUnits="userSpaceOnUse">
<stop stop-color="#00FDC2"/>
<stop offset="1" stop-color="#00C3DE"/>
</linearGradient>
</defs>
</svg>
