<svg width="86" height="86" viewBox="0 0 86 86" fill="none" xmlns="http://www.w3.org/2000/svg">
<path fill-rule="evenodd" clip-rule="evenodd" d="M73.4056 73.4056C65.3415 81.4697 54.4043 86 43 86V84.9887C54.1361 84.9887 64.8161 80.5649 72.6905 72.6905C80.5649 64.8161 84.9887 54.1361 84.9887 43C84.9887 31.8639 80.5649 21.1839 72.6905 13.3095C64.8161 5.43511 54.1361 1.01132 43 1.01131V0C54.4043 2.2205e-06 65.3415 4.53035 73.4056 12.5944C81.4697 20.6585 86 31.5957 86 43C86 54.4043 81.4697 65.3415 73.4056 73.4056ZM23.5476 6.89856H52.9821V5.89856H23.5476V6.89856ZM44.2798 12.5298H15.1012V11.5298H44.2798V12.5298ZM8.19033 18.929H40.1844V17.929H8.19033V18.929ZM38.3927 24.5597H4.86299V23.5597H38.3927V24.5597ZM2.30355 30.446H37.1131V29.446H2.30355V30.446ZM36.3452 36.5892H1.02379V35.5892H36.3452V36.5892ZM0 43.2443H36.0893V42.2443H0V43.2443ZM37.113 49.3863H0.767747V48.3863H37.113V49.3863ZM2.30355 55.0173H38.3928V54.0173H2.30355V55.0173ZM40.4406 60.6486H4.60725V59.6486H40.4406V60.6486ZM9.47016 67.304H43.7678V66.304H9.47016V67.304ZM47.3512 74.4702H17.1488V73.4702H47.3512V74.4702ZM27.6427 80.3577H50.9344V79.3577H27.6427V80.3577Z" fill="#ABABAB"/>
</svg>
