<svg width="86" height="86" viewBox="0 0 86 86" fill="none" xmlns="http://www.w3.org/2000/svg">
<path fill-rule="evenodd" clip-rule="evenodd" d="M43.3747 0.41921L43.0013 0L42.6279 0.41921L29.4306 15.2367L16.2332 0.41921L15.884 0.0271177L15.5094 0.395087L0 15.6317L0.700806 16.3451L15.8357 1.47641L29.0572 16.321L29.4306 16.7402L29.8039 16.321L43.0013 1.50353L56.1987 16.321L56.572 16.7402L56.9454 16.321L70.1669 1.47641L85.3018 16.3451L86.0026 15.6317L70.4932 0.395087L70.1186 0.0271177L69.7694 0.41921L56.572 15.2367L43.3747 0.41921ZM43.3747 14.2707L43.0013 13.8515L42.6279 14.2707L29.4306 29.0882L16.2332 14.2707L15.884 13.8786L15.5094 14.2466L0 29.4832L0.700806 30.1966L15.8357 15.3279L29.0572 30.1725L29.4306 30.5917L29.8039 30.1725L43.0013 15.355L56.1987 30.1725L56.572 30.5917L56.9454 30.1725L70.1669 15.3279L85.3018 30.1966L86.0026 29.4832L70.4932 14.2466L70.1186 13.8786L69.7694 14.2707L56.572 29.0882L43.3747 14.2707ZM43.0013 27.7032L43.3747 28.1224L56.572 42.9399L69.7694 28.1224L70.1186 27.7303L70.4932 28.0983L86.0026 43.335L85.3018 44.0483L70.1669 29.1796L56.9454 44.0242L56.572 44.4434L56.1987 44.0242L43.0013 29.2067L29.8039 44.0242L29.4306 44.4434L29.0572 44.0242L15.8357 29.1796L0.700806 44.0483L0 43.335L15.5094 28.0983L15.884 27.7303L16.2332 28.1224L29.4306 42.9399L42.6279 28.1224L43.0013 27.7032ZM43.3747 41.9739L43.0013 41.5547L42.6279 41.9739L29.4306 56.7914L16.2332 41.9739L15.884 41.5818L15.5094 41.9498L0 57.1865L0.700806 57.8998L15.8357 43.0311L29.0572 57.8757L29.4306 58.2949L29.8039 57.8757L43.0013 43.0582L56.1987 57.8757L56.572 58.2949L56.9454 57.8757L70.1669 43.0311L85.3018 57.8998L86.0026 57.1865L70.4932 41.9498L70.1186 41.5818L69.7694 41.9739L56.572 56.7914L43.3747 41.9739ZM43.0013 55.4062L43.3747 55.8254L56.572 70.6429L69.7694 55.8254L70.1186 55.4333L70.4932 55.8013L86.0026 71.0379L85.3018 71.7513L70.1669 56.8826L56.9454 71.7272L56.572 72.1464L56.1987 71.7272L43.0013 56.9097L29.8039 71.7272L29.4306 72.1464L29.0572 71.7272L15.8357 56.8826L0.700806 71.7513L0 71.0379L15.5094 55.8013L15.884 55.4333L16.2332 55.8254L29.4306 70.6429L42.6279 55.8254L43.0013 55.4062ZM43.3747 69.6769L43.0013 69.2577L42.6279 69.6769L29.4306 84.4943L16.2332 69.6769L15.884 69.2848L15.5094 69.6528L0 84.8894L0.700806 85.6028L15.8357 70.7341L29.0572 85.5787L29.4306 85.9979L29.8039 85.5787L43.0013 70.7612L56.1987 85.5787L56.572 85.9979L56.9454 85.5787L70.1669 70.7341L85.3018 85.6028L86.0026 84.8894L70.4932 69.6528L70.1186 69.2848L69.7694 69.6769L56.572 84.4943L43.3747 69.6769Z" fill="#ABABAB"/>
</svg>
