<?xml version="1.0" encoding="UTF-8"?>
<svg id="Layer_1" data-name="Layer 1" xmlns="http://www.w3.org/2000/svg" version="1.1" viewBox="0 0 92.8 92.9">
  <defs>
    <style>
      .cls-1 {
        fill: none;
        stroke: #cadbea;
        stroke-width: 5px;
      }

      .cls-2 {
        fill: #cadbea;
      }

      .cls-2, .cls-3 {
        stroke-width: 0px;
      }

      .cls-3 {
        fill: #818a91;
      }
    </style>
  </defs>
  <g>
    <path class="cls-3" d="M42,92.9H9.6C4.3,92.9,0,88.6,0,83.3c0,0,0,0,0,0V9.6C0,4.3,4.3,0,9.5,0c0,0,0,0,0,0h39.8c9.4,0,16.9,7.6,17,17,0,1.2-.9,2.2-2.1,2.2,0,0,0,0,0,0h0c-1.2,0-2.2-.9-2.2-2.1,0,0,0,0,0,0,0-6.9-5.6-12.5-12.5-12.5H9.6c-2.8,0-5.1,2.3-5.2,5.1,0,0,0,0,0,0v73.7c0,2.8,2.3,5.1,5.1,5.2,0,0,0,0,0,0h32.4c1.2,0,2.2.9,2.3,2.2,0,1.2-.9,2.2-2.2,2.3,0,0,0,0,0,0Z"/>
    <path class="cls-3" d="M64.1,53.8c-1.2,0-2.2-.9-2.2-2.1,0,0,0,0,0,0v-25.1c0-1.2.9-2.2,2.1-2.2,0,0,0,0,0,0h0c1.2,0,2.2.9,2.2,2.1,0,0,0,0,0,0v25.1c0,1.2-1,2.2-2.2,2.2Z"/>
    <path class="cls-3" d="M64.1,19.2h-7.4c-5.3,0-9.6-4.3-9.6-9.5,0,0,0,0,0,0V2.2c0-1.2.9-2.2,2.2-2.3,1.2,0,2.2.9,2.3,2.2,0,0,0,0,0,0v7.4c0,2.8,2.3,5.1,5.1,5.2,0,0,0,0,0,0h7.4c1.2,0,2.2,1,2.2,2.3,0,1.2-1,2.1-2.2,2.2Z"/>
    <path class="cls-2" d="M87.5,69c-1-.7-2.4-.5-3.1.5-.7,1-.5,2.3.4,3.1,2.2,1.7,3.6,4.3,3.5,7.1,0,4.9-4,8.8-8.8,8.8-1.2,0-2.3-.2-3.4-.7,6.5-6.7,6.4-17.4-.2-24-6.7-6.5-17.4-6.4-24,.2-6.5,6.7-6.4,17.4.2,24,3.2,3.1,7.4,4.8,11.9,4.8,2.9,0,5.7-.7,8.3-2.1,6.1,4,14.4,2.2,18.4-3.9,1.4-2.2,2.1-4.7,2.1-7.2,0-4.2-1.9-8.2-5.3-10.6ZM51.6,75.9c0-6.9,5.6-12.5,12.5-12.5s12.5,5.6,12.5,12.5-5.6,12.5-12.5,12.5h0c-6.9,0-12.5-5.6-12.5-12.5,0,0,0,0,0,0Z"/>
  </g>
  <path class="cls-2" d="M13.9,38.7c-.9,0-1.6-.7-1.6-1.5q0,0-.1,0c-.7-.2-1.3-.6-1.8-1-.6-.5-1-1.1-1.3-1.8-.2-.4-.2-.8,0-1.2.2-.4.5-.7.9-.9.2,0,.4-.1.6-.1.6,0,1.2.4,1.5,1,.1.3.3.5.5.7.2.2.4.3.6.3.6.2,1.3.2,1.9,0,.2,0,.4-.2.5-.3.2-.2.3-.4.3-.6,0-.3.1-.6.1-.9,0-.3,0-.6-.2-.9-.1-.2-.3-.4-.5-.5-.3-.2-.6-.3-.9-.4-.5-.1-.9-.3-1.3-.4-.5-.1-1-.3-1.5-.5-.6-.2-1.1-.5-1.5-.9-.5-.4-.8-.9-1.1-1.5-.3-.7-.4-1.4-.4-2.2,0-.6.1-1.2.3-1.8.4-1.2,1.4-2.2,2.6-2.7.2,0,.4-.2.6-.2,0-.8.8-1.4,1.6-1.4.8,0,1.5.6,1.6,1.4.2,0,.5.2.7.2.7.3,1.2.7,1.7,1.3.4.5.7,1.1,1,1.7.1.4,0,.8-.1,1.2-.2.4-.5.6-.9.8-.2,0-.3,0-.5,0-.7,0-1.3-.5-1.5-1.1,0-.2-.2-.5-.3-.6-.1-.2-.3-.3-.5-.4-.3-.1-.6-.2-1-.2-.4,0-.7,0-1,.2-.2,0-.4.2-.6.4l-.3.5c0,.2-.1.5-.1.7,0,.3,0,.5.1.8,0,.2.1.3.3.4.2.1.4.3.6.3.4.2.8.3,1.1.4.5.1,1,.3,1.4.4.6.2,1.2.4,1.7.8.6.4,1.1.9,1.5,1.5.4.8.6,1.6.6,2.5,0,.6-.1,1.2-.3,1.8-.2.6-.5,1.2-1,1.7-.5.5-1.1.9-1.7,1.2-.2.1-.5.2-.7.2-.1.8-.8,1.4-1.7,1.5ZM13.8,36c0,0,0,.1.1.2,0,0,0-.1.1-.2h-.2ZM13.9,21.5c0,0,0,.1-.1.2h.2c0,0,0-.1-.1-.2h0Z"/>
  <ellipse class="cls-1" cx="33.5" cy="36.9" rx="9.5" ry="15"/>
</svg>