<?xml version="1.0" encoding="UTF-8"?>
<svg id="Layer_1" data-name="Layer 1" xmlns="http://www.w3.org/2000/svg" version="1.1" viewBox="0 0 85.5 94.4">
  <defs>
    <style>
      .cls-1 {
        fill: #cadbea;
      }

      .cls-1, .cls-2 {
        stroke-width: 0px;
      }

      .cls-2 {
        fill: #818a91;
      }
    </style>
  </defs>
  <g>
    <path class="cls-1" d="M9.6,51.6c-1.2,0-2.2-.9-2.2-2.1,0,0,0,0,0,0v-4.4c0-1.2.9-2.2,2.2-2.3,1.2,0,2.2.9,2.3,2.2,0,0,0,0,0,0v4.4c0,1.2-1,2.2-2.2,2.2Z"/>
    <path class="cls-1" d="M28.1,79.3c-.4,0-.8,0-1.1-.3l-3.8-2.2c-1.1-.6-1.5-1.9-.9-3,.6-1.1,1.9-1.5,3-.9,0,0,0,0,0,0l3.8,2.2c1,.6,1.4,2,.8,3-.4.7-1.1,1.1-1.9,1.1Z"/>
    <path class="cls-1" d="M57.4,79.3c-.8,0-1.5-.4-1.9-1.1-.6-1.1-.2-2.4.8-3l3.8-2.2c1.1-.6,2.4-.2,3,.8.6,1.1.2,2.4-.8,3l-3.8,2.2c-.3.2-.7.3-1.1.3Z"/>
    <path class="cls-1" d="M75.9,51.6c-1.2,0-2.2-.9-2.2-2.1,0,0,0,0,0,0v-4.4c0-1.2.9-2.2,2.2-2.3,1.2,0,2.2.9,2.3,2.2,0,0,0,0,0,0v4.4c0,1.2-.9,2.2-2.1,2.2,0,0,0,0,0,0Z"/>
    <path class="cls-1" d="M61.3,21.7c-.4,0-.8,0-1.1-.3l-3.8-2.2c-1-.6-1.4-2-.8-3,.6-1,1.9-1.4,3-.8l3.8,2.2c1,.6,1.4,2,.8,3-.4.7-1.1,1.1-1.9,1.1Z"/>
    <path class="cls-1" d="M24.3,21.7c-.8,0-1.5-.4-1.9-1.1-.6-1.1-.2-2.4.8-3l3.8-2.2c1.1-.6,2.4-.2,3,.8s.2,2.4-.8,3l-3.8,2.2c-.3.2-.7.3-1.1.3Z"/>
  </g>
  <path class="cls-1" d="M42.8,19.2c-5.3,0-9.6-4.3-9.6-9.6S37.5,0,42.8,0s9.6,4.3,9.6,9.6h0c0,5.3-4.3,9.6-9.5,9.6,0,0,0,0,0,0ZM42.8,4.4c-2.9,0-5.2,2.3-5.2,5.2,0,2.9,2.3,5.2,5.2,5.2s5.2-2.3,5.2-5.2c0-2.8-2.3-5.1-5.1-5.2,0,0,0,0,0,0Z"/>
  <path class="cls-1" d="M42.8,94.4c-5.3,0-9.6-4.3-9.6-9.6s4.3-9.6,9.6-9.6,9.6,4.3,9.6,9.6h0c0,5.3-4.3,9.6-9.5,9.6,0,0,0,0,0,0ZM42.8,79.6c-2.9,0-5.2,2.3-5.2,5.2,0,2.9,2.3,5.2,5.2,5.2s5.2-2.3,5.2-5.2c0-2.8-2.3-5.1-5.1-5.2,0,0,0,0,0,0Z"/>
  <path class="cls-1" d="M75.9,75.9c-5.3,0-9.6-4.3-9.6-9.6s4.3-9.6,9.6-9.6,9.6,4.3,9.6,9.6h0c0,5.3-4.3,9.6-9.5,9.6,0,0,0,0,0,0ZM75.9,61.2c-2.9,0-5.2,2.3-5.2,5.2s2.3,5.2,5.2,5.2,5.2-2.3,5.2-5.2c0-2.8-2.3-5.1-5.1-5.2,0,0,0,0,0,0Z"/>
  <path class="cls-1" d="M75.9,37.6c-5.3,0-9.6-4.3-9.6-9.6s4.3-9.6,9.6-9.6,9.6,4.3,9.6,9.6h0c0,5.3-4.3,9.6-9.5,9.6,0,0,0,0,0,0ZM75.9,22.9c-2.9,0-5.2,2.3-5.2,5.2s2.3,5.2,5.2,5.2c2.9,0,5.2-2.3,5.2-5.2,0-2.8-2.3-5.1-5.1-5.2,0,0,0,0,0,0Z"/>
  <path class="cls-1" d="M9.6,37.6c-5.3,0-9.6-4.3-9.6-9.6s4.3-9.6,9.6-9.6,9.6,4.3,9.6,9.6h0c0,5.3-4.3,9.6-9.5,9.6,0,0,0,0,0,0ZM9.6,22.9c-2.9,0-5.2,2.3-5.2,5.2s2.3,5.2,5.2,5.2,5.2-2.3,5.2-5.2h0c0-2.8-2.3-5.1-5.1-5.2,0,0,0,0,0,0Z"/>
  <path class="cls-1" d="M9.6,75.9c-5.3,0-9.6-4.3-9.6-9.6s4.3-9.6,9.6-9.6,9.6,4.3,9.6,9.6h0c0,5.3-4.3,9.6-9.5,9.6,0,0,0,0,0,0ZM9.6,61.2c-2.9,0-5.2,2.3-5.2,5.2s2.3,5.2,5.2,5.2,5.2-2.3,5.2-5.2c0-2.8-2.3-5.1-5.1-5.2,0,0,0,0,0,0Z"/>
  <path class="cls-2" d="M42.8,67.8c-11.4,0-20.6-9.2-20.6-20.6,0-11.4,9.2-20.6,20.6-20.6,11.4,0,20.6,9.2,20.6,20.6,0,11.4-9.3,20.6-20.6,20.6ZM42.8,31c-9,0-16.2,7.3-16.2,16.2s7.3,16.2,16.2,16.2,16.2-7.3,16.2-16.2h0c0-8.9-7.3-16.2-16.2-16.2h0Z"/>
</svg>