<?xml version="1.0" encoding="UTF-8"?><svg id="Layer_1_copy" xmlns="http://www.w3.org/2000/svg" width="85" height="85.07" viewBox="0 0 85 85.07"><defs><style>.cls-1{fill:#818a91;}.cls-2{fill:#cadbea;}</style></defs><path class="cls-2" d="m6.99,81h71.03v1.07c0,1.66-1.34,3-3,3H9.99c-1.66,0-3-1.34-3-3v-1.07h0Z"/><path class="cls-1" d="m79.03,0H5.97C2.69,0,0,2.69,0,5.97v69.05c0,3.29,2.69,5.97,5.97,5.97h73.05c3.29,0,5.97-2.69,5.97-5.97V5.97c0-3.29-2.69-5.97-5.97-5.97Zm.99,73.1c0,1.6-1.31,2.91-2.91,2.91H7.9c-1.6,0-2.91-1.31-2.91-2.91V7.9c0-1.6,1.31-2.91,2.91-2.91h69.21c1.6,0,2.91,1.31,2.91,2.91v65.21Z"/><circle class="cls-2" cx="42.5" cy="40.36" r="6.35"/><rect class="cls-2" x="40.31" y="17.72" width="4.38" height="10.07"/><rect class="cls-2" x="40.31" y="53.21" width="4.38" height="10.07" transform="translate(84.99 116.5) rotate(-180)"/><rect class="cls-2" x="24.94" y="26.59" width="4.38" height="10.07" transform="translate(-13.82 39.31) rotate(-60)"/><rect class="cls-2" x="55.68" y="44.34" width="4.38" height="10.07" transform="translate(129.56 23.95) rotate(120)"/><rect class="cls-2" x="24.94" y="44.34" width="4.38" height="10.07" transform="translate(-2.06 97.55) rotate(-120)"/><rect class="cls-2" x="55.68" y="26.59" width="4.38" height="10.07" transform="translate(56.33 -34.3) rotate(60)"/><path class="cls-1" d="m42.5,25.98c-7.94,0-14.38,6.44-14.38,14.38s6.44,14.38,14.38,14.38,14.38-6.44,14.38-14.38-6.44-14.38-14.38-14.38Zm0,24.73c-5.72,0-10.35-4.64-10.35-10.35s4.64-10.35,10.35-10.35,10.35,4.64,10.35,10.35-4.64,10.35-10.35,10.35Z"/><path class="cls-1" d="m42.5,33.17c-3.97,0-7.19,3.22-7.19,7.19s3.22,7.19,7.19,7.19,7.19-3.22,7.19-7.19-3.22-7.19-7.19-7.19Zm0,11.79c-2.54,0-4.6-2.06-4.6-4.6s2.06-4.6,4.6-4.6,4.6,2.06,4.6,4.6-2.06,4.6-4.6,4.6Z"/><path class="cls-2" d="m42.5,9.36c-3.04,0-5.51,2.47-5.51,5.51s2.47,5.51,5.51,5.51,5.51-2.47,5.51-5.51-2.47-5.51-5.51-5.51Zm0,8.05c-1.4,0-2.54-1.14-2.54-2.54s1.14-2.54,2.54-2.54,2.54,1.14,2.54,2.54-1.14,2.54-2.54,2.54Z"/><path class="cls-2" d="m42.5,71.64c3.04,0,5.51-2.47,5.51-5.51,0-3.04-2.47-5.51-5.51-5.51s-5.51,2.47-5.51,5.51c0,3.04,2.47,5.51,5.51,5.51Zm0-8.05c1.4,0,2.54,1.14,2.54,2.54s-1.14,2.54-2.54,2.54-2.54-1.14-2.54-2.54,1.14-2.54,2.54-2.54Z"/><path class="cls-2" d="m15.53,24.93c-1.52,2.64-.62,6.01,2.02,7.53s6.01.62,7.53-2.02.62-6.01-2.02-7.53c-2.64-1.52-6.01-.62-7.53,2.02Zm6.97,4.03c-.7,1.21-2.25,1.63-3.47.93s-1.63-2.25-.93-3.47,2.25-1.63,3.47-.93,1.63,2.25.93,3.47Z"/><path class="cls-2" d="m69.47,56.07c1.52-2.64.62-6.01-2.02-7.53-2.64-1.52-6.01-.62-7.53,2.02s-.62,6.01,2.02,7.53,6.01.62,7.53-2.02Zm-6.97-4.03c.7-1.21,2.25-1.63,3.47-.93s1.63,2.25.93,3.47-2.25,1.63-3.47.93-1.63-2.25-.93-3.47Z"/><path class="cls-2" d="m15.53,56.07c1.52,2.64,4.89,3.54,7.53,2.02s3.54-4.89,2.02-7.53c-1.52-2.64-4.89-3.54-7.53-2.02-2.64,1.52-3.54,4.89-2.02,7.53Zm6.97-4.03c.7,1.21.29,2.77-.93,3.47s-2.77.29-3.47-.93-.29-2.77.93-3.47,2.77-.29,3.47.93Z"/><path class="cls-2" d="m69.47,24.93c-1.52-2.64-4.89-3.54-7.53-2.02s-3.54,4.89-2.02,7.53,4.89,3.54,7.53,2.02c2.64-1.52,3.54-4.89,2.02-7.53Zm-6.97,4.03c-.7-1.21-.29-2.77.93-3.47s2.77-.29,3.47.93.29,2.77-.93,3.47-2.77.29-3.47-.93Z"/></svg>