<?xml version="1.0" encoding="UTF-8"?>
<svg id="Layer_1" data-name="Layer 1" xmlns="http://www.w3.org/2000/svg" version="1.1" viewBox="0 0 85.5 86">
  <defs>
    <style>
      .cls-1 {
        fill: #cadbea;
      }

      .cls-1, .cls-2 {
        stroke-width: 0px;
      }

      .cls-2 {
        fill: #818a91;
      }
    </style>
  </defs>
  <path class="cls-1" d="M50.7,49.4c-1.1,1.5,1.5,4.8,4.7,7.2,2.8,2.1,6,3.5,7.7,2.8,6.1-2.9,10.1-8.8,10.1-11.1s-2.9-6.5-12.7.1c-2.7,2-7.7-2-9.8,1Z"/>
  <path class="cls-1" d="M82.5,34.6c-2.9-13.8-12.7-25.2-26-30,0,0-.1,0-.1,0v7.8c.1,2-1,3.8-2.9,4.6-4.1,1.8-8.1.8-9.8,5.5-1.4,3.5,2.3,13,6.8,13s8.4-11.4,10.1-11.4,2.8,3.5,4.8,6c1.3,1.7,3.4,2.8,5.6,2.7h3.8l7.8,1.8Z"/>
  <g>
    <path class="cls-1" d="M28.2,50.5c-.3-2.7,3.2-4.8,5.4-6.9s2.8-5.5,1.7-7.4c-3.5-6.4-11.9-3-12.8,3.7-.2,1.2-.4,2.3-.8,3.4"/>
    <path class="cls-1" d="M20.2,50.6c-.4-.8-1.3-1.1-2.1-.7-.2,0-.4.2-.5.4h0c-2.1,2.1-6.1,1-7.2-2.1-1.3-3.4,3.1-4.6,2.4-9-.1-1.2-1.4-1.8-2.9-2l-7.3.3c-.2,1.8-.4,3.5-.4,5.3,0,8.7,2.8,17.2,8,24.2,0,0,5.8,5.5,5.8,6.3h0c2.8,2.5,6.8,2.9,10.1,1.2,1.4-.7,2.8-1.7,4.4-2.7.5-.3.9-.7,1.3-1.2.6-.6.6-1.6,0-2.2-.2-.3-.5-.6-.7-.9-4.4-5.1-8-10.8-11-16.8Z"/>
  </g>
  <path class="cls-2" d="M67.8,86c-8.9,0-21.7-8-33.2-21.5-11.1-13-15.6-28.1-17.1-34-.2-1.2.5-2.3,1.7-2.6,1.1-.2,2.2.5,2.5,1.5,1.1,4.3,5.4,19.6,16.2,32.3,14,16.4,28.9,22.9,34,18.7,2.1-1.8,2.7-5.6,1.6-10.8l-.4-2.1c-.2-1.2.6-2.4,1.8-2.6s2.4.6,2.6,1.8l.4,2.1c1.5,6.9.4,12.1-3.1,15-2,1.6-4.4,2.4-6.9,2.3Z"/>
  <path class="cls-2" d="M10.8,17.7c-1.2,0-2.2-1-2.2-2.2,0-.6.2-1.1.6-1.5l7.4-7.4c.9-.9,2.2-.9,3.1,0s.9,2.2,0,3.1l-7.4,7.4c-.4.4-1,.7-1.5.7Z"/>
  <path class="cls-2" d="M25.6,17.7c-.6,0-1.1-.2-1.5-.7l-7.4-7.4c-.9-.9-.9-2.2,0-3.1s2.2-.9,3.1,0l7.4,7.4c.9.8.9,2.2,0,3,0,0,0,0,0,0-.4.4-1,.7-1.6.7Z"/>
  <path class="cls-2" d="M42.8,85.5C19.2,85.5,0,66.4,0,42.8c0-6.4,1.4-12.7,4.2-18.5.5-1.1,1.8-1.6,2.9-1,1.1.5,1.6,1.8,1,2.9-2.5,5.2-3.8,10.8-3.8,16.6,0,21.2,17.2,38.3,38.3,38.3,1.2,0,2.2,1,2.2,2.3,0,1.2-1,2.1-2.2,2.2h0Z"/>
  <path class="cls-2" d="M67.2,77.3c-.7,0-1.4-.3-1.8-.9-.7-1-.5-2.4.4-3.1,16.9-12.8,20.2-36.9,7.4-53.7-7.2-9.6-18.5-15.2-30.5-15.2-4.4,0-8.8.7-13,2.2-1.1.4-2.4-.1-2.8-1.3-.4-1.1.1-2.4,1.3-2.8,0,0,0,0,0,0C32.9.8,37.8,0,42.8,0c23.6,0,42.8,19.2,42.8,42.8,0,13.4-6.3,26-17,34.1-.4.3-.9.4-1.3.4Z"/>
  <path class="cls-2" d="M16.6,24.5c-.4-.4-.6-1-.6-1.6v-10.4c0-1.2.9-2.2,2.1-2.2,0,0,0,0,.1,0,1.2,0,2.2.9,2.2,2.1,0,0,0,0,0,.1v10.4c0,1.2-.9,2.2-2.1,2.2,0,0,0,0-.1,0-.6,0-1.2-.2-1.6-.6Z"/>
</svg>