<?xml version="1.0" encoding="UTF-8"?><svg id="Layer_1" xmlns="http://www.w3.org/2000/svg" viewBox="0 0 200 200"><defs><style>.cls-1{fill:#818a91;}.cls-1,.cls-2,.cls-3{stroke-linecap:round;stroke-linejoin:round;stroke-width:6.5px;}.cls-1,.cls-3{stroke:#818a91;}.cls-2{fill:#cadbea;stroke:#cadbea;}.cls-3{fill:none;}</style></defs><path class="cls-2" d="m73.05,79.32l-19.31-23.11c-7.95,8.43-13.63,19.02-16.03,30.82l30.03,2.49c1.18-3.72,2.99-7.16,5.3-10.2Z"/><path class="cls-3" d="m66.5,104.57l-30.01-2.49c.75,21.03,11.72,39.46,28.09,50.46l13.69-26.84c-6.25-5.23-10.57-12.68-11.78-21.13Z"/><path class="cls-2" d="m107.53,36.7v30.12c15.03,3.44,26.25,16.88,26.25,32.96,0,18.68-15.14,33.81-33.81,33.81-2.84,0-5.6-.36-8.24-1.02l-13.69,26.85c6.84,2.51,14.22,3.89,21.93,3.89,35.09,0,63.53-28.45,63.53-63.53,0-32.53-24.45-59.33-55.97-63.07Z"/><path class="cls-1" d="m92.43,36.7c-9.91,1.17-19.12,4.63-27.1,9.82l19.31,23.11c2.44-1.24,5.05-2.2,7.79-2.82v-30.11Z"/></svg>