<?xml version="1.0" encoding="UTF-8"?><svg id="Layer_1" xmlns="http://www.w3.org/2000/svg" viewBox="0 0 200 200"><defs><style>.cls-1{fill:#cadbea;}.cls-1,.cls-2,.cls-3{stroke-linecap:round;stroke-linejoin:round;stroke-width:6.5px;}.cls-1,.cls-3{stroke:#cadbea;}.cls-2{stroke:#818a91;}.cls-2,.cls-3{fill:none;}</style></defs><line class="cls-2" x1="17.38" y1="69.7" x2="81.5" y2="69.7"/><line class="cls-2" x1="117.35" y1="85.89" x2="17.38" y2="85.89"/><path class="cls-2" d="m136.01,128.17h4.62c5.49,0,9.94-4.45,9.94-9.94h0c0-5.49-4.45-9.94-9.94-9.94h-3.97"/><rect class="cls-2" x="81.5" y="128.17" width="69.08" height="19.89" rx="9.94" ry="9.94" transform="translate(232.08 276.22) rotate(180)"/><line class="cls-2" x1="136.66" y1="148.06" x2="185.12" y2="148.06"/><path class="cls-3" d="m136.01,104.47v10.13c0,7.49-6.07,13.57-13.57,13.57H28.44c-7.49,0-13.57-6.07-13.57-13.57v-49.09c0-7.49,6.07-13.57,13.57-13.57h51.65"/><path class="cls-2" d="m165.27,108.28l-12.83-.04c-14.96-.04-28.52-8.81-34.69-22.44l-4.63-10.23h-15.14c-9.66,0-18.34-5.89-21.91-14.87l-1.12-2.81c-1.13-2.85.97-5.94,4.03-5.94h52.64c8.97,0,17.62,3.32,24.28,9.32l11.18,10.06c3.62,3.26,8.33,5.07,13.2,5.07h4.83"/><rect class="cls-1" x="32.84" y="100.14" width="12.22" height="8.14"/></svg>