<?xml version="1.0" standalone="no"?>
<!DOCTYPE svg PUBLIC "-//W3C//DTD SVG 20010904//EN"
 "http://www.w3.org/TR/2001/REC-SVG-20010904/DTD/svg10.dtd">
<svg version="1.0" xmlns="http://www.w3.org/2000/svg"
 width="680.000000pt" height="680.000000pt" viewBox="0 0 680.000000 680.000000"
 preserveAspectRatio="xMidYMid meet">
<metadata>
Created by potrace 1.14, written by Peter Selinger 2001-2017
</metadata>
<g transform="translate(0.000000,680.000000) scale(0.100000,-0.100000)"
fill="#000000" stroke="none">
<path d="M5643 4705 c0 -113 3 -165 11 -166 6 0 165 -1 354 -1 188 -1 342 -3
342 -5 0 -22 -48 -167 -67 -202 -41 -75 -121 -171 -142 -171 -5 0 -19 -8 -32
-19 -65 -51 -226 -77 -319 -51 -55 15 -109 38 -132 58 -17 14 -18 3 -15 -198
l2 -213 48 -12 c26 -7 78 -11 115 -10 216 8 370 100 478 285 24 41 44 80 44
87 0 7 4 21 10 31 8 13 40 117 45 142 9 53 16 61 48 58 l32 -3 0 -298 c0 -191
4 -297 10 -298 6 0 80 -1 165 -2 l155 -1 2 577 2 577 -578 0 -578 0 0 -165z"/>
<path d="M2715 4311 c-168 -41 -269 -118 -349 -264 -27 -50 -66 -158 -81 -224
-5 -26 -12 -33 -31 -33 l-24 0 -1 140 c0 77 0 187 -1 245 l0 105 -204 0 c-156
0 -204 -3 -205 -12 -1 -17 -1 -2309 0 -2325 1 -10 49 -13 206 -13 l204 0 0
353 c0 768 -2 714 22 720 23 6 26 1 59 -108 63 -205 174 -328 350 -390 119
-42 306 -38 455 9 191 60 333 204 421 428 23 57 60 201 62 238 1 8 4 35 7 60
43 363 -61 726 -260 908 -90 83 -208 143 -330 167 -71 15 -231 12 -300 -4z
m158 -415 c73 -37 117 -81 161 -165 55 -105 76 -214 71 -371 -7 -219 -66 -348
-210 -458 -41 -32 -226 -49 -276 -26 -116 52 -164 88 -219 168 -73 107 -104
215 -102 363 2 228 97 415 249 489 97 48 230 48 326 0z"/>
<path d="M4387 4323 c-1 0 -27 -4 -57 -8 -130 -15 -205 -36 -310 -87 -138 -67
-239 -183 -265 -308 -19 -90 -1 -209 42 -278 46 -73 187 -184 208 -164 5 4 5
2 2 -4 -6 -10 75 -46 163 -73 30 -9 166 -35 240 -47 14 -2 39 -6 55 -9 17 -2
53 -7 80 -10 108 -12 227 -46 253 -72 7 -7 21 -18 30 -25 37 -27 63 -85 63
-141 1 -81 -40 -149 -122 -201 -73 -46 -256 -65 -373 -38 -128 29 -248 116
-291 212 -10 22 -23 40 -29 39 -6 0 -92 -35 -191 -78 -178 -76 -180 -77 -177
-106 5 -42 48 -128 92 -184 91 -115 258 -207 435 -240 123 -23 391 -35 402
-18 2 4 9 5 14 1 14 -8 181 15 254 36 97 28 203 88 273 155 34 33 62 65 62 72
0 6 4 13 8 15 13 5 52 96 63 149 10 45 9 78 -5 170 -6 37 -53 127 -93 176 -63
78 -231 180 -325 197 -15 2 -31 7 -35 9 -5 3 -53 14 -108 25 -99 20 -133 26
-210 37 -68 10 -78 12 -150 30 -150 37 -220 102 -219 204 0 94 49 150 164 187
73 24 238 23 305 -1 123 -44 199 -107 231 -192 10 -24 22 -42 28 -40 6 2 90
30 186 62 96 32 179 61 185 66 16 15 -25 117 -77 191 -27 37 -74 89 -106 114
-60 47 -201 122 -248 130 -15 3 -31 7 -36 10 -5 3 -21 7 -36 9 -15 3 -38 7
-51 9 -66 14 -314 29 -324 19z"/>
<path d="M43 4282 l-42 -3 1 -548 c1 -576 6 -652 49 -810 41 -152 146 -304
246 -356 21 -11 40 -22 43 -25 19 -20 158 -52 245 -57 229 -13 380 78 489 293
20 39 39 80 41 90 2 11 12 42 21 69 9 28 18 56 20 63 2 7 14 12 26 10 l23 -3
0 -240 0 -240 202 -1 c175 0 202 2 205 15 2 9 4 403 3 876 l0 860 -212 3 -213
2 0 -397 c-1 -219 -3 -416 -6 -438 -35 -290 -120 -460 -263 -527 -63 -30 -199
-32 -251 -4 -95 51 -158 167 -176 326 -3 30 -6 277 -6 548 l0 492 -31 0 c-18
1 -108 2 -202 3 -93 1 -189 1 -212 -1z"/>
</g>
</svg>
