<svg width="86" height="87" viewBox="0 0 86 87" fill="none" xmlns="http://www.w3.org/2000/svg">
<path fill-rule="evenodd" clip-rule="evenodd" d="M27.932 0.846924H28.1415H56.9989H57.4989V1.34692V29.5836H85.5H86V30.0836V58.1108V58.3185L85.8528 58.4651L68.3959 75.849L67.5431 76.6983V75.4947V47.9676H39.8982H39.3982V47.4676V19.5856H10.6845H9.49098L10.3282 18.7349L27.7851 0.996212L27.932 0.846924ZM28.3509 1.84692L11.8781 18.5856H39.8982H40.3982V19.0856V46.9676H68.0431H68.5431V47.4676V74.2912L85 57.9031V30.5836H56.9989H56.4989V30.0836V1.84692H28.3509ZM8.18785 29.3734L0.705605 36.8237L1.46329e-05 36.1151L7.48226 28.6648L8.18785 29.3734ZM0.705622 43.9191L15.3125 29.3734L14.6068 28.6648L0 43.2106L0.705622 43.9191ZM22.794 29.3734L0.705622 51.3694L-1.90735e-06 50.6608L22.0884 28.6648L22.794 29.3734ZM0.705622 58.8197L30.2755 29.3734L29.5699 28.6648L0 58.1111L0.705622 58.8197ZM30.6318 36.1142L0.705622 65.9152L0 65.2066L29.9262 35.4056L30.6318 36.1142ZM0.705622 73.0107L30.6318 43.2096L29.9262 42.5011L0 72.3021L0.705622 73.0107ZM30.6318 49.9502L0.705622 79.7512L0 79.0426L29.9262 49.2416L30.6318 49.9502ZM0.705622 86.8469L30.6318 57.0459L29.9262 56.3373L0 86.1384L0.705622 86.8469ZM39.1822 57.0459L9.25598 86.8469L8.55035 86.1384L38.4765 56.3373L39.1822 57.0459ZM17.4501 86.8469L47.3763 57.0459L46.6706 56.3373L16.7444 86.1384L17.4501 86.8469ZM55.5703 57.0459L25.6441 86.8469L24.9385 86.1384L54.8647 56.3373L55.5703 57.0459ZM34.1945 86.847L59.133 62.0128L58.4274 61.3042L33.4889 86.1384L34.1945 86.847ZM59.133 69.4627L41.676 86.8467L40.9704 86.1381L58.4273 68.7541L59.133 69.4627ZM49.87 86.8468L59.1337 77.6227L58.4281 76.9141L49.1644 86.1382L49.87 86.8468Z" fill="#ABABAB"/>
</svg>
