<svg width="30" height="16" viewBox="0 0 30 16" fill="none" xmlns="http://www.w3.org/2000/svg">
<mask id="path-1-inside-1_2404_236" fill="white">
<path fill-rule="evenodd" clip-rule="evenodd" d="M22.1429 16C18.9733 16 16.2421 14.0891 14.9998 11.3371L14.9998 16C12.916 16 10.9175 15.1571 9.44399 13.6569C8.77717 12.9779 8.24259 12.1895 7.85711 11.3331V16C5.77327 16 3.77477 15.1571 2.30127 13.6569C0.827772 12.1566 -3.24249e-05 10.1217 -3.24249e-05 8C-3.24249e-05 5.87827 0.827772 3.84344 2.30127 2.34315C3.77477 0.842855 5.77327 0 7.85711 0V4.6669C8.24259 3.8105 8.77717 3.02209 9.44399 2.34315C10.9175 0.842855 12.916 0 14.9998 0L14.9998 4.66293C16.2421 1.91089 18.9733 0 22.1429 0C26.4822 0 30 3.58172 30 8C30 12.4183 26.4822 16 22.1429 16Z"/>
</mask>
<path d="M14.9998 11.3371H13.9998L15.9113 10.9257L14.9998 11.3371ZM14.9998 16H15.9998V17H14.9998V16ZM9.44399 13.6569L8.73054 14.3576L8.73054 14.3576L9.44399 13.6569ZM7.85711 11.3331H6.85711L8.769 10.9226L7.85711 11.3331ZM7.85711 16H8.85711V17H7.85711V16ZM2.30127 13.6569L1.58782 14.3576V14.3576L2.30127 13.6569ZM2.30127 2.34315L3.01472 3.04385V3.04385L2.30127 2.34315ZM7.85711 0V-1H8.85711V0H7.85711ZM7.85711 4.6669L8.769 5.07735L6.85711 4.6669H7.85711ZM9.44399 2.34315L10.1574 3.04385V3.04385L9.44399 2.34315ZM14.9998 0V-1H15.9998V2.04523e-07L14.9998 0ZM14.9998 4.66293L15.9113 5.07434L13.9998 4.66293H14.9998ZM15.9113 10.9257C17.001 13.3398 19.3883 15 22.1429 15V17C18.5583 17 15.4831 14.8384 14.0884 11.7485L15.9113 10.9257ZM13.9998 16V11.3371H15.9998L15.9998 16H13.9998ZM10.1574 12.9561C11.4448 14.267 13.1871 15 14.9998 15V17C12.6449 17 10.3901 16.0473 8.73054 14.3576L10.1574 12.9561ZM8.769 10.9226C9.10674 11.673 9.57467 12.3628 10.1574 12.9561L8.73054 14.3576C7.97968 13.593 7.37843 12.706 6.94523 11.7435L8.769 10.9226ZM6.85711 16V11.3331H8.85711V16H6.85711ZM3.01472 12.9561C4.30213 14.267 6.04436 15 7.85711 15V17C5.50218 17 3.24742 16.0473 1.58782 14.3576L3.01472 12.9561ZM0.999968 8C0.999968 9.86227 1.72671 11.6447 3.01472 12.9561L1.58782 14.3576C-0.071167 12.6684 -1.00003 10.3812 -1.00003 8H0.999968ZM3.01472 3.04385C1.72671 4.35528 0.999968 6.13773 0.999968 8H-1.00003C-1.00003 5.61881 -0.071167 3.33159 1.58783 1.64244L3.01472 3.04385ZM7.85711 1C6.04436 1 4.30213 1.73304 3.01472 3.04385L1.58783 1.64244C3.24742 -0.0473287 5.50218 -1 7.85711 -1V1ZM6.85711 4.6669V0H8.85711V4.6669H6.85711ZM10.1574 3.04385C9.57467 3.63722 9.10674 4.32699 8.769 5.07735L6.94523 4.25645C7.37843 3.29402 7.97968 2.40696 8.73055 1.64244L10.1574 3.04385ZM14.9998 1C13.1871 1 11.4448 1.73304 10.1574 3.04385L8.73055 1.64244C10.3901 -0.0473287 12.6449 -1 14.9998 -1V1ZM13.9998 4.66293L13.9998 -2.04523e-07L15.9998 2.04523e-07L15.9998 4.66293H13.9998ZM22.1429 1C19.3883 1 17.001 2.66016 15.9113 5.07434L14.0884 4.25151C15.4831 1.16163 18.5583 -1 22.1429 -1V1ZM29 8C29 4.11694 25.913 1 22.1429 1V-1C27.0514 -1 31 3.0465 31 8H29ZM22.1429 15C25.913 15 29 11.8831 29 8H31C31 12.9535 27.0514 17 22.1429 17V15Z" fill="#151515" mask="url(#path-1-inside-1_2404_236)"/>
</svg>
