<svg width="63" height="33" viewBox="0 0 63 33" fill="none" xmlns="http://www.w3.org/2000/svg">
<path fill-rule="evenodd" clip-rule="evenodd" d="M16.5 33C23.1558 33 28.8912 29.0591 31.5 23.3835L31.5 33C35.8761 33 40.0729 31.2616 43.1673 28.1673C44.5678 26.7668 45.6905 25.1404 46.5 23.3739L46.5 33C50.8761 33 55.0729 31.2616 58.1673 28.1673C61.2616 25.0729 63 20.8761 63 16.5C63 12.1239 61.2616 7.92709 58.1673 4.83274C55.0729 1.73839 50.8761 0 46.5 0V9.62613C45.6905 7.85956 44.5678 6.23323 43.1673 4.83274C40.0729 1.73839 35.8761 0 31.5 0V9.61654C28.8912 3.94088 23.1558 0 16.5 0C7.3873 0 0 7.3873 0 16.5C0 25.6127 7.3873 33 16.5 33Z" fill="#151515"/>
</svg>
