<svg width="88" height="88" viewBox="0 0 88 88" fill="none" xmlns="http://www.w3.org/2000/svg">
<path d="M15.3333 15.3333V1H1V15.3333H15.3333ZM15.3333 15.3333H29.6667M15.3333 15.3333V29.6667M29.6667 15.3333V29.6667M29.6667 15.3333H44M29.6667 15.3333V1H44V15.3333M29.6667 29.6667H15.3333M29.6667 29.6667H44M29.6667 29.6667V44M15.3333 29.6667H1V44H15.3333M15.3333 29.6667V44M15.3333 44H29.6667M15.3333 44V58.3333M29.6667 44V58.3333M29.6667 44H44M29.6667 58.3333H15.3333M29.6667 58.3333H44M29.6667 58.3333V72.6667M15.3333 58.3333H1V72.6667H15.3333M15.3333 58.3333V72.6667M15.3333 72.6667H29.6667M15.3333 72.6667V87H29.6667V72.6667M29.6667 72.6667H44M44 15.3333H58.3333M44 15.3333V29.6667M58.3333 15.3333V29.6667M58.3333 15.3333H72.6667M58.3333 15.3333V1H72.6667V15.3333M58.3333 29.6667H44M58.3333 29.6667H72.6667M58.3333 29.6667V44M44 29.6667V44M44 44H58.3333M44 44V58.3333M58.3333 44V58.3333M58.3333 44H72.6667M58.3333 58.3333H44M58.3333 58.3333H72.6667M58.3333 58.3333V72.6667M44 58.3333V72.6667M44 72.6667H58.3333M44 72.6667V87H58.3333V72.6667M58.3333 72.6667H72.6667M72.6667 15.3333H87V29.6667H72.6667M72.6667 15.3333V29.6667M72.6667 29.6667V44M72.6667 44H87V58.3333H72.6667M72.6667 44V58.3333M72.6667 58.3333V72.6667M72.6667 72.6667H87V87H72.6667V72.6667Z" stroke="#151515"/>
</svg>
