<svg width="102" height="115" viewBox="0 0 102 115" fill="none" xmlns="http://www.w3.org/2000/svg">
<path d="M49.1098 10.4521C48.3496 10.6673 47.6189 10.9764 46.9344 11.3724L22.287 25.5021C20.7878 26.3722 19.5433 27.6243 18.6792 29.1323C17.8151 30.6402 17.3619 32.3505 17.3654 34.0907L7 61.6082C7 61.717 7 61.816 7 61.9248C12.0214 65.7014 18.2877 67.4083 24.5189 66.6969C30.7501 65.9855 46.8414 49.1358 50.8923 44.3234C54.9433 39.5111 57.0137 33.3255 56.6806 27.0303C56.3474 20.7351 53.6359 14.8053 49.0999 10.4521H49.1098Z" fill="#B65FFC"/>
<path d="M49.1098 10.4521C48.3496 10.6673 47.6189 10.9764 46.9344 11.3724L22.287 25.5021C20.7878 26.3722 19.5433 27.6243 18.6792 29.1323C17.8151 30.6402 17.3619 32.3505 17.3654 34.0907L7 61.6082C7 61.717 7 61.816 7 61.9248C12.0214 65.7014 18.2877 67.4083 24.5189 66.6969C30.7501 65.9855 46.8414 49.1358 50.8923 44.3234C54.9433 39.5111 57.0137 33.3255 56.6806 27.0303C56.3474 20.7351 53.6359 14.8053 49.0999 10.4521H49.1098Z" fill="url(#paint0_linear_550_9347)"/>
<path d="M82.1948 75.8196C79.8929 74.9048 77.3571 74.758 74.965 75.401C72.5729 76.0441 70.4525 77.4426 68.9195 79.3883C67.3865 81.3339 66.523 83.7228 66.4576 86.1989C66.3921 88.6751 67.1282 91.1061 68.5563 93.1301C75.6387 90.3264 82.3539 86.6719 88.554 82.2472C87.9836 80.8016 87.1259 79.4867 86.0329 78.3819C84.9399 77.2772 83.6342 76.4055 82.1948 75.8196Z" fill="#1CFFC7"/>
<g filter="url(#filter0_b_550_9347)">
<path d="M47 9.73323C49.4752 8.30417 52.5248 8.30417 55 9.73323L90.3013 30.1144C92.7765 31.5435 94.3013 34.1845 94.3013 37.0426V77.805C94.3013 80.6632 92.7765 83.3042 90.3013 84.7332L55 105.114C52.5248 106.543 49.4752 106.543 47 105.114L11.6987 84.7332C9.22352 83.3042 7.69873 80.6631 7.69873 77.805V37.0426C7.69873 34.1845 9.22352 31.5435 11.6987 30.1144L47 9.73323Z" fill="#B65FFC" fill-opacity="0.25"/>
<path d="M47.25 10.1662C49.5705 8.82649 52.4295 8.8265 54.75 10.1662L90.0513 30.5474C92.3718 31.8872 93.8013 34.3631 93.8013 37.0426V77.805C93.8013 80.4845 92.3718 82.9605 90.0513 84.3002L54.75 104.681C52.4295 106.021 49.5705 106.021 47.25 104.681L11.9487 84.3002C9.62822 82.9605 8.19873 80.4845 8.19873 77.805V37.0426C8.19873 34.3631 9.62822 31.8872 11.9487 30.5474L47.25 10.1662Z" stroke="url(#paint1_linear_550_9347)"/>
</g>
<path d="M48.0005 20.6715C49.8569 19.5997 52.1441 19.5997 54.0005 20.6715L81.3293 36.4498C83.1857 37.5216 84.3293 39.5024 84.3293 41.646V73.2026C84.3293 75.3462 83.1857 77.327 81.3293 78.3988L54.0005 94.1771C52.1441 95.2489 49.8569 95.2489 48.0005 94.1771L20.6716 78.3988C18.8152 77.327 17.6716 75.3462 17.6716 73.2026V41.646C17.6716 39.5024 18.8152 37.5216 20.6716 36.4498L48.0005 20.6715Z" fill="black" fill-opacity="0.5"/>
<g filter="url(#filter1_i_550_9347)">
<path d="M59.2098 61.7903V51.512C59.2098 50.8247 58.6527 50.2676 57.9654 50.2676L47.6871 50.2676M43.0742 66.4032L59.0485 50.4289" stroke="url(#paint2_linear_550_9347)" stroke-width="6" stroke-linecap="round" stroke-linejoin="round"/>
</g>
<path d="M48.25 1.58889C49.9517 0.606411 52.0483 0.606411 53.75 1.58889L97.9795 27.1248C99.6812 28.1073 100.729 29.923 100.729 31.8879V82.9597C100.729 84.9247 99.6812 86.7404 97.9795 87.7229L53.75 113.259C52.0483 114.241 49.9517 114.241 48.25 113.259L4.02053 87.7229C2.31882 86.7404 1.27053 84.9247 1.27053 82.9597V31.8879C1.27053 29.923 2.31882 28.1073 4.02053 27.1248L48.25 1.58889Z" stroke="url(#paint3_linear_550_9347)" stroke-opacity="0.5"/>
<defs>
<filter id="filter0_b_550_9347" x="-62.3008" y="-61.3389" width="226.602" height="237.525" filterUnits="userSpaceOnUse" color-interpolation-filters="sRGB">
<feFlood flood-opacity="0" result="BackgroundImageFix"/>
<feGaussianBlur in="BackgroundImageFix" stdDeviation="35"/>
<feComposite in2="SourceAlpha" operator="in" result="effect1_backgroundBlur_550_9347"/>
<feBlend mode="normal" in="SourceGraphic" in2="effect1_backgroundBlur_550_9347" result="shape"/>
</filter>
<filter id="filter1_i_550_9347" x="40.0742" y="47.2676" width="22.1348" height="22.1357" filterUnits="userSpaceOnUse" color-interpolation-filters="sRGB">
<feFlood flood-opacity="0" result="BackgroundImageFix"/>
<feBlend mode="normal" in="SourceGraphic" in2="BackgroundImageFix" result="shape"/>
<feColorMatrix in="SourceAlpha" type="matrix" values="0 0 0 0 0 0 0 0 0 0 0 0 0 0 0 0 0 0 127 0" result="hardAlpha"/>
<feOffset/>
<feGaussianBlur stdDeviation="1.24444"/>
<feComposite in2="hardAlpha" operator="arithmetic" k2="-1" k3="1"/>
<feColorMatrix type="matrix" values="0 0 0 0 1 0 0 0 0 1 0 0 0 0 1 0 0 0 1 0"/>
<feBlend mode="normal" in2="shape" result="effect1_innerShadow_550_9347"/>
</filter>
<linearGradient id="paint0_linear_550_9347" x1="27.2086" y1="49.5289" x2="57.6942" y2="23.015" gradientUnits="userSpaceOnUse">
<stop stop-color="#B65FFC"/>
<stop offset="1"/>
</linearGradient>
<linearGradient id="paint1_linear_550_9347" x1="51" y1="7.42383" x2="51" y2="71.7717" gradientUnits="userSpaceOnUse">
<stop stop-color="#B65FFC"/>
<stop offset="1" stop-color="#B65FFC" stop-opacity="0"/>
</linearGradient>
<linearGradient id="paint2_linear_550_9347" x1="48.039" y1="55.7537" x2="54.9251" y2="66.1585" gradientUnits="userSpaceOnUse">
<stop stop-color="white"/>
<stop offset="1" stop-color="#B65FFC"/>
</linearGradient>
<linearGradient id="paint3_linear_550_9347" x1="1" y1="57.4238" x2="102.5" y2="57.4238" gradientUnits="userSpaceOnUse">
<stop stop-color="#F4EFFF"/>
<stop offset="0.442178" stop-color="#B65FFC"/>
<stop offset="1" stop-color="#F4EFFF"/>
</linearGradient>
</defs>
</svg>
