<svg width="36" height="55" viewBox="0 0 36 55" fill="none" xmlns="http://www.w3.org/2000/svg">
<path d="M30.7396 19.3359H4.27064C1.92411 19.3359 0.046875 21.2132 0.046875 23.5598V50.0293C0.046875 53.7839 4.59916 55.6611 7.27422 53.033L33.7432 26.5634C36.3713 23.8883 34.4941 19.3359 30.7396 19.3359Z" fill="url(#paint0_linear_584_3512)"/>
<path d="M31.5844 0H4.36456C1.97109 0 0 1.9242 0 4.36466V31.5851C0 35.4335 4.69308 37.4046 7.41506 34.6357L34.6349 7.41522C37.4038 4.69318 35.4797 0 31.5844 0Z" fill="url(#paint1_linear_584_3512)"/>
<path d="M7.46229 34.6357L22.7617 19.3359H4.27099C1.92446 19.3359 0.0472243 21.2132 0.0472243 23.5598V31.5382C0.000293534 35.4335 4.69337 37.3577 7.46229 34.6357Z" fill="#2F7BF2"/>
<defs>
<linearGradient id="paint0_linear_584_3512" x1="30.9524" y1="21.034" x2="-0.556109" y2="39.6724" gradientUnits="userSpaceOnUse">
<stop stop-color="#C06AE4"/>
<stop offset="1" stop-color="#4D24C6"/>
</linearGradient>
<linearGradient id="paint1_linear_584_3512" x1="35.0192" y1="1.22874" x2="2.1626e-07" y2="21.503" gradientUnits="userSpaceOnUse">
<stop stop-color="#00FDC2"/>
<stop offset="1" stop-color="#00C3DE"/>
</linearGradient>
</defs>
</svg>
