<svg width="102" height="115" viewBox="0 0 102 115" fill="none" xmlns="http://www.w3.org/2000/svg">
<path d="M49.1098 10.4521C48.3496 10.6673 47.6189 10.9764 46.9344 11.3724L22.287 25.5021C20.7878 26.3722 19.5433 27.6243 18.6792 29.1323C17.8151 30.6402 17.3619 32.3505 17.3654 34.0907L7 61.6082C7 61.717 7 61.816 7 61.9248C12.0214 65.7014 18.2877 67.4083 24.5189 66.6969C30.7501 65.9855 46.8414 49.1358 50.8923 44.3234C54.9433 39.5111 57.0137 33.3255 56.6806 27.0303C56.3474 20.7351 53.6359 14.8053 49.0999 10.4521H49.1098Z" fill="#B65FFC"/>
<path d="M49.1098 10.4521C48.3496 10.6673 47.6189 10.9764 46.9344 11.3724L22.287 25.5021C20.7878 26.3722 19.5433 27.6243 18.6792 29.1323C17.8151 30.6402 17.3619 32.3505 17.3654 34.0907L7 61.6082C7 61.717 7 61.816 7 61.9248C12.0214 65.7014 18.2877 67.4083 24.5189 66.6969C30.7501 65.9855 46.8414 49.1358 50.8923 44.3234C54.9433 39.5111 57.0137 33.3255 56.6806 27.0303C56.3474 20.7351 53.6359 14.8053 49.0999 10.4521H49.1098Z" fill="url(#paint0_linear_550_9313)"/>
<path d="M82.1948 75.8196C79.8929 74.9048 77.3571 74.758 74.965 75.401C72.5729 76.0441 70.4525 77.4426 68.9195 79.3883C67.3865 81.3339 66.523 83.7228 66.4576 86.1989C66.3921 88.6751 67.1282 91.1061 68.5563 93.1301C75.6387 90.3264 82.3539 86.6719 88.554 82.2472C87.9836 80.8016 87.1259 79.4867 86.0329 78.3819C84.9399 77.2772 83.6342 76.4055 82.1948 75.8196Z" fill="#1CFFC7"/>
<g filter="url(#filter0_b_550_9313)">
<path d="M47 9.73323C49.4752 8.30417 52.5248 8.30417 55 9.73323L90.3013 30.1144C92.7765 31.5435 94.3013 34.1845 94.3013 37.0426V77.805C94.3013 80.6632 92.7765 83.3042 90.3013 84.7332L55 105.114C52.5248 106.543 49.4752 106.543 47 105.114L11.6987 84.7332C9.22352 83.3042 7.69873 80.6631 7.69873 77.805V37.0426C7.69873 34.1845 9.22352 31.5435 11.6987 30.1144L47 9.73323Z" fill="#B65FFC" fill-opacity="0.25"/>
<path d="M47.25 10.1662C49.5705 8.82649 52.4295 8.8265 54.75 10.1662L90.0513 30.5474C92.3718 31.8872 93.8013 34.3631 93.8013 37.0426V77.805C93.8013 80.4845 92.3718 82.9605 90.0513 84.3002L54.75 104.681C52.4295 106.021 49.5705 106.021 47.25 104.681L11.9487 84.3002C9.62822 82.9605 8.19873 80.4845 8.19873 77.805V37.0426C8.19873 34.3631 9.62822 31.8872 11.9487 30.5474L47.25 10.1662Z" stroke="url(#paint1_linear_550_9313)"/>
</g>
<path d="M48.0005 20.6715C49.8569 19.5997 52.1441 19.5997 54.0005 20.6715L81.3293 36.4498C83.1857 37.5216 84.3293 39.5024 84.3293 41.646V73.2026C84.3293 75.3462 83.1857 77.327 81.3293 78.3988L54.0005 94.1771C52.1441 95.2489 49.8569 95.2489 48.0005 94.1771L20.6716 78.3988C18.8152 77.327 17.6716 75.3462 17.6716 73.2026V41.646C17.6716 39.5024 18.8152 37.5216 20.6716 36.4498L48.0005 20.6715Z" fill="black" fill-opacity="0.5"/>
<path d="M48.25 1.58889C49.9517 0.606411 52.0483 0.606411 53.75 1.58889L97.9795 27.1248C99.6812 28.1073 100.729 29.923 100.729 31.8879V82.9597C100.729 84.9247 99.6812 86.7404 97.9795 87.7229L53.75 113.259C52.0483 114.241 49.9517 114.241 48.25 113.259L4.02053 87.7229C2.31882 86.7404 1.27053 84.9247 1.27053 82.9597V31.8879C1.27053 29.923 2.31882 28.1073 4.02053 27.1248L48.25 1.58889Z" stroke="url(#paint2_linear_550_9313)" stroke-opacity="0.5"/>
<g filter="url(#filter1_di_550_9313)">
<path d="M58.6318 51.7238H52.9346L54.0363 44.2296C54.0691 44.0074 54.0588 43.7798 54.0061 43.5626C53.9534 43.3453 53.8595 43.1438 53.7311 42.9719C53.6027 42.8 53.4428 42.6619 53.2625 42.5673C53.0822 42.4726 52.8859 42.4237 52.6872 42.4238H45.6451C45.3217 42.4239 45.0089 42.554 44.7621 42.791C44.5154 43.028 44.3507 43.3564 44.2973 43.7181L42.0187 59.2181C41.986 59.4401 41.9963 59.6676 42.0489 59.8847C42.1015 60.1018 42.1953 60.3033 42.3235 60.4752C42.4518 60.647 42.6115 60.7851 42.7917 60.8799C42.9718 60.9746 43.1679 61.0238 43.3665 61.0238H48.834V73.4238L59.7827 54.1124C59.9156 53.8781 59.9903 53.6076 59.9991 53.3293C60.0079 53.0509 59.9504 52.775 59.8326 52.5306C59.7149 52.2862 59.5412 52.0823 59.3299 51.9403C59.1186 51.7983 58.8774 51.7236 58.6318 51.7238Z" fill="url(#paint3_linear_550_9313)"/>
</g>
<defs>
<filter id="filter0_b_550_9313" x="-62.3008" y="-61.3389" width="226.602" height="237.525" filterUnits="userSpaceOnUse" color-interpolation-filters="sRGB">
<feFlood flood-opacity="0" result="BackgroundImageFix"/>
<feGaussianBlur in="BackgroundImageFix" stdDeviation="35"/>
<feComposite in2="SourceAlpha" operator="in" result="effect1_backgroundBlur_550_9313"/>
<feBlend mode="normal" in="SourceGraphic" in2="effect1_backgroundBlur_550_9313" result="shape"/>
</filter>
<filter id="filter1_di_550_9313" x="33" y="36.4238" width="36" height="49" filterUnits="userSpaceOnUse" color-interpolation-filters="sRGB">
<feFlood flood-opacity="0" result="BackgroundImageFix"/>
<feColorMatrix in="SourceAlpha" type="matrix" values="0 0 0 0 0 0 0 0 0 0 0 0 0 0 0 0 0 0 127 0" result="hardAlpha"/>
<feOffset dy="3"/>
<feGaussianBlur stdDeviation="4.5"/>
<feComposite in2="hardAlpha" operator="out"/>
<feColorMatrix type="matrix" values="0 0 0 0 1 0 0 0 0 1 0 0 0 0 1 0 0 0 0.2 0"/>
<feBlend mode="normal" in2="BackgroundImageFix" result="effect1_dropShadow_550_9313"/>
<feBlend mode="normal" in="SourceGraphic" in2="effect1_dropShadow_550_9313" result="shape"/>
<feColorMatrix in="SourceAlpha" type="matrix" values="0 0 0 0 0 0 0 0 0 0 0 0 0 0 0 0 0 0 127 0" result="hardAlpha"/>
<feOffset/>
<feGaussianBlur stdDeviation="1.24444"/>
<feComposite in2="hardAlpha" operator="arithmetic" k2="-1" k3="1"/>
<feColorMatrix type="matrix" values="0 0 0 0 1 0 0 0 0 1 0 0 0 0 1 0 0 0 1 0"/>
<feBlend mode="normal" in2="shape" result="effect2_innerShadow_550_9313"/>
</filter>
<linearGradient id="paint0_linear_550_9313" x1="27.2086" y1="49.5289" x2="57.6942" y2="23.015" gradientUnits="userSpaceOnUse">
<stop stop-color="#B65FFC"/>
<stop offset="1"/>
</linearGradient>
<linearGradient id="paint1_linear_550_9313" x1="51" y1="7.42383" x2="51" y2="71.7717" gradientUnits="userSpaceOnUse">
<stop stop-color="#B65FFC"/>
<stop offset="1" stop-color="#B65FFC" stop-opacity="0"/>
</linearGradient>
<linearGradient id="paint2_linear_550_9313" x1="25" y1="14.9238" x2="77.5" y2="99.4238" gradientUnits="userSpaceOnUse">
<stop stop-color="#F4EFFF"/>
<stop offset="0.442178" stop-color="#B65FFC"/>
<stop offset="1" stop-color="#F4EFFF"/>
</linearGradient>
<linearGradient id="paint3_linear_550_9313" x1="47.5385" y1="52.9638" x2="61.789" y2="65.4665" gradientUnits="userSpaceOnUse">
<stop stop-color="white"/>
<stop offset="1" stop-color="#B65FFC"/>
</linearGradient>
</defs>
</svg>
