<svg width="20" height="19" viewBox="0 0 20 19" fill="none" xmlns="http://www.w3.org/2000/svg">
<path d="M9.51859 18.9318C9.15859 16.8678 7.69459 14.2758 4.91059 12.1878C3.54259 11.1558 2.15059 10.4838 0.782594 10.1958V9.18783C3.49459 8.53983 6.15859 6.71583 7.86259 4.24383C8.72659 2.99583 9.27859 1.77183 9.51859 0.499828H10.5266C10.9346 2.92383 12.8066 5.61183 15.3506 7.41183C16.5986 8.29983 17.8946 8.89983 19.2146 9.18783V10.1958C16.5506 10.7478 13.4546 13.1238 11.9186 15.5478C11.1506 16.7718 10.6946 17.8998 10.5266 18.9318H9.51859Z" fill="url(#paint0_linear_550_9311)"/>
<defs>
<linearGradient id="paint0_linear_550_9311" x1="10" y1="-5.07617" x2="10" y2="23.9238" gradientUnits="userSpaceOnUse">
<stop stop-color="#0A0040"/>
<stop offset="1" stop-color="#2A82F8"/>
</linearGradient>
</defs>
</svg>
