<svg width="32" height="24" viewBox="0 0 32 24" fill="none" xmlns="http://www.w3.org/2000/svg">
<g clip-path="url(#clip0_87_749)">
<path d="M31.3313 4.27476C30.9633 2.89369 29.8791 1.80617 28.5022 1.43707C26.0067 0.766291 16 0.766291 16 0.766291C16 0.766291 5.99333 0.766291 3.4978 1.43707C2.12102 1.80617 1.03665 2.89369 0.668678 4.27476C0 6.77783 0 12.0003 0 12.0003C0 12.0003 0 17.2228 0.668678 19.7261C1.03665 21.107 2.12102 22.1945 3.4978 22.5637C5.99333 23.2344 16 23.2344 16 23.2344C16 23.2344 26.0067 23.2344 28.5022 22.5637C29.8791 22.1945 30.9633 21.107 31.3313 19.7261C32 17.2228 32 12.0003 32 12.0003C32 12.0003 32 6.77783 31.3313 4.27476Z" fill="#ED1D24"/>
<path d="M12.7275 16.7422L21.0912 12.0008L12.7275 7.25893V16.7422Z" fill="white"/>
</g>
<defs>
<clipPath id="clip0_87_749">
<rect width="32" height="22.4681" fill="white" transform="translate(0 0.766113)"/>
</clipPath>
</defs>
</svg>
