<svg id="Layer_1" height="512" viewBox="0 0 32 32" width="512" xmlns="http://www.w3.org/2000/svg" data-name="Layer 1"><path d="m0 5.5h32v21h-32z" fill="#3d9635"/><g fill="#fff"><path d="m5.96 10.058c-.047.735-.107 2.035.449 2.167.671.069.3-1.281.543-1.526.046-.12.131-.12.138.031v1.15a.531.531 0 0 0 .383.552c.176-.012.293-.006.362.189.029.66.055 1.319.082 1.979 0 0 .411.138.43-1.112a12.988 12.988 0 0 1 -.047-1.488c0-.138.16-.151.274-.075.176.138.254.307.526.238.416-.132.663-.351.67-.716a3.456 3.456 0 0 0 -.187-1.024c.019-.063-.082-.219-.061-.282.074.132.186.119.211 0a1.04 1.04 0 0 0 -.356-.622c-.148-.145-.366-.113-.445.195a1.822 1.822 0 0 0 .343 1.1 1.216 1.216 0 0 1 .083.553.248.248 0 0 1 -.339-.076s-.334-.282-.334-.339a1.5 1.5 0 0 0 -.028-.886 1.194 1.194 0 0 0 -.219-.477c-.082-.107-.194-.107-.247 0a1.845 1.845 0 0 0 .026 1.168c.074.252.193.409.139.409-.047.144-.14.106-.208-.057a4.536 4.536 0 0 1 -.115-1.074c-.031-.283-.064-.886-.229-1.043-.1-.151-.251-.075-.3.069a6.3 6.3 0 0 0 .017.817 10.027 10.027 0 0 1 .205 1.322c.014.622-.319.27-.3-.044a3.169 3.169 0 0 0 -.016-1.192c-.055-.164-.119-.2-.253-.17-.106-.012-.376.321-.451.873a4.989 4.989 0 0 0 -.092.541c-.039.282-.205.483-.321-.044-.1-.384-.164-1.326-.333-1.106"/><path d="m7.787 13.073c-.594.333-1.169.635-1.753.949a1.86 1.86 0 0 1 1.387-1.263c.36.013.268.157.366.314"/><path d="m10.02 8.915a.514.514 0 0 0 -.111.037.372.372 0 0 0 -.235.459c.169 1.156.276 2.035.445 3.185.03.138-.074.314-.2.3-.222-.169-.277-.515-.654-.5a.784.784 0 0 0 -.625.66 1.869 1.869 0 0 0 0 .753.508.508 0 0 0 .625.176c.165-.075.3-.263.362-.22.036.076-.006.679-.781 1.138-.479.238-.857.3-1.063-.139-.124-.276.01-1.319-.3-1.08-.923 2.676 2.159 3.053 2.5.113.023-.082.092-.163.14-.145.024.013.039.044.045.107-.072 2.657-2.383 2.833-2.775 2a2.779 2.779 0 0 1 -.139-.9.507.507 0 0 0 -.1-.3c-.093-.075-.219.132-.247.49a3.6 3.6 0 0 0 -.028.641c.123 2.111 3.1 1.206 3.587-.534a6.682 6.682 0 0 0 .075-1.658h.01l.007-.006c.3.358.712.044.8-.076a.129.129 0 0 1 .207-.025.453.453 0 0 0 .718-.226 8.749 8.749 0 0 0 .1-1 .814.814 0 0 0 -.322.151.1.1 0 0 0 -.023.05c-.012.088-.024.189-.038.283a.233.233 0 0 1 -.007.025.059.059 0 0 1 -.029.025.1.1 0 0 1 -.151-.075c-.07-.358-.363-.415-.542.151-.123.113-.338.131-.362-.026.031-.383-.107-.433-.38-.257-.086-.754-.176-1.47-.264-2.224.116 0 .217.094.323-.05a4.544 4.544 0 0 0 -.485-1.275.262.262 0 0 0 -.022-.025s0 0-.008-.007h-.008c-.006-.006-.014-.006-.016-.012s-.026-.007-.039 0m-.828 4.127a.156.156 0 0 1 .164.113.221.221 0 0 1 -.034.2c-.024.044-.1.025-.16.025a.146.146 0 0 1 -.146-.082c-.021-.069.038-.138.066-.194l.01-.019a.206.206 0 0 1 .1-.044"/><path d="m12.1 8.852a.513.513 0 0 0 -.208.063.5.5 0 0 0 -.07.6c.117.056.234.194.155.263-.33.4-1.193 1.062-1.236 1.188v.006.006h.007a1.984 1.984 0 0 0 .644.006v-.006a9.545 9.545 0 0 0 1.064-1.206c-.043-.044-.088-.075-.133-.119a.086.086 0 0 1 0-.138.432.432 0 0 0 .037-.6.479.479 0 0 0 -.264-.056m-.041.345c.055-.006.118.057.15.132s.016.164-.037.183-.127-.044-.163-.126-.015-.17.04-.182c0 0 .005-.007.01-.007"/><path d="m6.1 14.97a2.172 2.172 0 0 0 -.18 1.73.345.345 0 0 0 .373.138c.205-.1.3-.571.247-.741-.069-.126-.123-.145-.193-.038-.144.327-.205.1-.218-.088a4.8 4.8 0 0 1 .039-.929c.037-.258 0-.183-.072-.076"/><path d="m20.154 14.028c-.315-.773-.757-1.533-.9-1.822s-1.2-2.016-1.355-2.217c-.345-.459.559.195-.115-.722-.254-.245-.269-.258-.486-.459-.1-.088-.368-.239-.412.013a1.617 1.617 0 0 0 .023.546 1.9 1.9 0 0 0 .271.465 35.153 35.153 0 0 1 2.942 5.314c.146-.075.115-.986.028-1.118"/><path d="m18.76 16.6c-.064.075.153.42.436.414.471-.056.887-.358 1.27-1.143a2.189 2.189 0 0 0 .29-.88 21.57 21.57 0 0 0 -.317-4.447.8.8 0 0 1 .011-.308c.031-.044.134 0 .189-.1.082-.1-.212-.861-.38-1.156-.06-.132-.081-.22-.18.012a1.864 1.864 0 0 0 -.165.842c.225 1.747.293 3.285.443 5.032a.77.77 0 0 1 -.11.515 4.412 4.412 0 0 1 -1.487 1.219"/><path d="m24.162 19.157c-.341.22-.341.477-.065.483a1.621 1.621 0 0 0 1.415-.76 2.761 2.761 0 0 0 .228-.98 25.846 25.846 0 0 0 -.256-4.8 2.419 2.419 0 0 1 -.047-.452c.032-.082.184.012.236-.088.084-.088-.394-.785-.564-1.081-.058-.132-.078-.22-.178.019a1.5 1.5 0 0 0 -.1.836 52.015 52.015 0 0 1 .473 5.427 1.72 1.72 0 0 1 -.095.446 3.167 3.167 0 0 1 -.461.609c-.156.126-.483.252-.589.346"/><path d="m25.381 14.889c-.006-.446.011-.83-.006-1.162s-.149-1.577-.191-1.841-.094-.672-.158-.992a2.991 2.991 0 0 1 -.059-.566c.025-.088.134.006.183-.1a3.792 3.792 0 0 0 -.445-1.395c-.062-.132-.179-.088-.319.126-.135.138-.085.452-.035.754a31.041 31.041 0 0 1 .538 5.961c-.02.157.5-.484.492-.785"/><path d="m22.883 12.426c-.213-.006-.66-.465-.79-.735a.576.576 0 0 1 .025-.4c.08-.057.2-.126.291-.057 0 0 .094.145.076.163.116.063.167.025.179-.031.007-.088-.036-.145-.036-.245.049-.283.332-.32.44-.145a1.128 1.128 0 0 1 .119.49c0 .082-.116-.012-.181.007s-.081.1-.086.176c-.014.207-.034.527-.037.772"/><path d="m18.953 15.385c.06-.61-.019-1.841-.025-2.2-.02-.841-.145-2.468-.2-2.739-.067-.515.186.057.149-.244a3.432 3.432 0 0 0 -.629-1.326c-.095-.151-.091-.182-.241.038a1.761 1.761 0 0 0 .02 1.03 21.171 21.171 0 0 1 .4 2.99 29.981 29.981 0 0 1 .024 3.179c.161 0 .418-.3.507-.729"/><path d="m26.107 14.411c-.373-.71-.942-1.539-1.092-1.821s-1.433-2.394-1.594-2.582c-.469-.547.215-.088-.088-.522a3.966 3.966 0 0 0 -.554-.6c-.109-.075-.178-.232-.214.025a5.886 5.886 0 0 0 -.017.691.93.93 0 0 0 .187.428 40.056 40.056 0 0 1 3.366 5.5c.143-.075.094-.986.006-1.112"/><path d="m21.562 21.139a.368.368 0 0 0 -.106.653c-3.507 0-8.888-.062-10.037-.062-.648 0-2.689-.088-2.727-.088a1.981 1.981 0 0 0 1.9.879c1.558 0 8.772-.019 10.822-.019a.878.878 0 0 0 .13.842l.009.006a.011.011 0 0 0 .012.007h.006c.137.037.2-.076.244-.151a13.011 13.011 0 0 0 1.574-.006c.077.125.155.245.3.226.255-.063.456-.094.465-.679 0 0-.027-.992-.608-.929-.138.019-.522.062-.522.062-.447-.056-.777-.062-1.278-.088.047-.062.127-.332.028-.427a.164.164 0 0 0 -.12-.037h-.01s-.009-.007-.011-.013v-.006a1.251 1.251 0 0 1 -.056-.17h-.011m.238 1.42c.509.025.989.006 1.5.031a.228.228 0 0 1 -.014.289c0 .007 0 .007-.007.007h-.013c-.166-.007-.261-.007-.427-.013 0-.013-.006-.019-.006-.031-.04-.132-.324-.12-.392-.013v.006.013.012a.044.044 0 0 0 0 .019 3.179 3.179 0 0 1 -.653-.025c-.063-.088-.056-.251.021-.295"/><path d="m12.691 9.455c-.341 1.093.2 2.3.568 2.186.27.119.439-.458.55-1.087.077-.176.133-.2.172-.107-.011.842.053 1.031.245 1.282a.559.559 0 0 0 .808.012c.028-.025.334-.37.334-.37a.183.183 0 0 1 .278-.013c.1.1.086.283.3.4a.6.6 0 0 0 .665-.157c.123-.232.15-.314.206-.4.089-.132.236-.075.236-.031-.013.075-.1.144-.042.276.106.088.129.032.192.013.217-.12.38-.647.38-.647.007-.2-.089-.182-.156-.138s-.087.075-.171.132c-.1.012-.311.094-.41-.082-.106-.214-.106-.515-.187-.729 0-.012-.137-.333-.009-.358.063.013.2.057.224-.075.068-.126-.145-.49-.291-.666a.3.3 0 0 0 -.472-.019.634.634 0 0 0 -.126.39.668.668 0 0 0 .114.527 1.762 1.762 0 0 1 .262 1.074.389.389 0 0 1 -.346.2c-.09-.025-.24-.069-.32-.722a5.141 5.141 0 0 0 -.173-1.526c-.069-.2-.116-.4-.282-.051a.852.852 0 0 0 -.1.748 2.467 2.467 0 0 1 .106 1.162 2.137 2.137 0 0 1 -.2.32.307.307 0 0 1 -.421.063.507.507 0 0 1 -.251-.4 6.332 6.332 0 0 0 -.034-1.282c-.1-.239-.272-.151-.343-.082a3.046 3.046 0 0 0 -.63 1.451c-.1.352-.2.251-.274.107-.176-.182-.189-1.64-.4-1.4"/><path d="m13.843 11.723c0 .006 0 .006-.01.006v.006c-.022.013-.051.057-.11.107a.6.6 0 0 0 -.11.471c0 .032.187.6.345 1.011a3.527 3.527 0 0 1 .131 1.364 3.187 3.187 0 0 1 -1.222 1.432.562.562 0 0 1 -.51 0v-.006a.363.363 0 0 1 -.138-.327 3.126 3.126 0 0 0 1.229-1.426 1.663 1.663 0 0 0 .033-1.03 1.088 1.088 0 0 0 -.209-.471v-.007c.069-.037.246.113.276.019a1.552 1.552 0 0 0 -.352-.728.278.278 0 0 0 -.435-.032c-.146.094-.177.427-.109.723.08.213.3.251.45.691v.006a.945.945 0 0 1 -.026.458 4.937 4.937 0 0 1 -.921.968l-.006.006v.006h-.009v-.006a1.055 1.055 0 0 0 0-.144c0-.126.045-.428.042-.484v-.006c-.262.194-.352.785-.4.961a11.825 11.825 0 0 0 -1.868 1.438c-.229.4 1.574-.465 1.782-.565 0 0 0 0 .008.006a1.644 1.644 0 0 0 .161.371.894.894 0 0 0 .972.358 3.244 3.244 0 0 0 1.408-1.319c.053-.088.139-.157.216-.088a2.159 2.159 0 0 0 1.993 1.174c.225-.307.119-.464.027-.521-.03-.025-.486-.226-.556-.427-.043-.182.063-.346.282-.471a8.831 8.831 0 0 0 1.839-.4 1.957 1.957 0 0 1 .2-.71.312.312 0 0 1 .1-.126v-.006-.005-.013l-.1-.069-2-.012a.252.252 0 0 1 -.056-.032v-.006-.006-.007-.006-.006-.006a.124.124 0 0 1 .063-.044c.481-.069 1.327-.227 1.381-1.15a.768.768 0 0 0 -.7-.873.791.791 0 0 0 -.613.911c-.017.119.039.364-.073.389-.736.082-1.538.6-1.567.968h-.01v.006h-.01l-.008-.006a.214.214 0 0 1 -.1-.227 4.84 4.84 0 0 0 -.506-1.922c-.1-.119-.148-.163-.179-.169h-.012m2.922.823a.217.217 0 0 1 .156.044.223.223 0 0 1 .123.188v.013.006.006s-.007.006-.012.013c-.039.044-.124.037-.21-.019a.244.244 0 0 1 -.123-.182v-.007q0-.018.009-.018v-.013c0-.006 0-.006.01-.013a.066.066 0 0 1 .048-.018m-1.859 1.9h.023a5.211 5.211 0 0 0 .837.106c.232.019.346.22.13.308s-.42.145-.42.5a.531.531 0 0 1 0 .3.013.013 0 0 1 -.009.012v.007.006h-.005l-.01.006a.01.01 0 0 1 -.009.007c-.053.006-.127-.057-.184-.082a1.3 1.3 0 0 1 -.554-.923.225.225 0 0 1 .208-.245"/><path d="m8.48 9.468c.232.119.663.069.645-.346 0-.038-.007-.163-.01-.2-.045-.125-.176-.1-.2.032-.009.037.014.107-.018.132s-.097.014-.097-.102a.182.182 0 0 0 -.038-.1.059.059 0 0 0 -.051-.018c-.031.006-.031.012-.045.043a.29.29 0 0 0 -.018.1c-.006.044-.021.056-.048.063s-.021.006-.047-.013-.033-.031-.033-.059a.51.51 0 0 0 -.011-.1.1.1 0 0 0 -.057-.038c-.127 0-.136.164-.127.226-.012.013-.016.3.155.384"/><path d="m15.232 12.684c.231.119.779.05.647-.352 0-.038-.008-.163-.014-.2-.046-.125-.173-.094-.2.032-.007.044.018.113-.015.138s-.094 0-.092-.113a.163.163 0 0 0 -.038-.094.06.06 0 0 0 -.052-.019c-.03.006-.03.012-.048.044a.369.369 0 0 0 -.017.094c0 .044-.018.057-.046.063s-.02.006-.046-.013-.034-.025-.034-.056a.272.272 0 0 0 -.015-.1.087.087 0 0 0 -.056-.037c-.125 0-.131.163-.127.226-.007.006-.013.295.157.383"/><path d="m19.171 11.352c.229.119.662.063.644-.352 0-.031-.007-.157-.01-.194-.049-.12-.179-.095-.2.037-.011.038.013.107-.021.126-.016.025-.092.012-.089-.107a.226.226 0 0 0 -.038-.1.09.09 0 0 0 -.05-.007c-.031 0-.031.007-.049.038a.386.386 0 0 0 -.018.1c0 .037-.017.05-.046.056s-.024.006-.045-.013a.066.066 0 0 1 -.033-.056.491.491 0 0 0 -.016-.107.138.138 0 0 0 -.056-.025c-.125 0-.135.163-.127.22-.008.012-.014.3.158.383"/><path d="m21.209 14.688a1.745 1.745 0 0 0 -.134 1.532 1.178 1.178 0 0 0 .5.635.322.322 0 0 0 .519-.063c.235-.276.24-.974.349-1.112.08-.257.273-.214.368-.1a1.022 1.022 0 0 0 .336.326.521.521 0 0 0 .742.057.915.915 0 0 0 .395-.54 21.981 21.981 0 0 0 .029-3.179c-.011-.075-.227-1.307-.227-1.319s-.031-.628-.053-.773c-.006-.063-.019-.081.037-.075.059.063.065.069.1.081.059.013.112-.1.077-.207-.181-.377-.367-.76-.55-1.13-.042-.057-.1-.107-.172.006a.471.471 0 0 0 -.134.339c.017.27.059.547.074.817.074.458.147.923.221 1.388.068.986.088 1.891.156 2.877-.011.414-.124.974-.237 1.024 0 0-.161.113-.273-.007a3.668 3.668 0 0 1 -.4-.6c-.165-.169-.275-.125-.393 0a6.379 6.379 0 0 0 -.687 1.458c-.059.1-.218.188-.394-.006a2.3 2.3 0 0 1 -.244-1.426"/><path d="m19.274 8.927a.889.889 0 0 1 .3.792c-.041.283-.149.6-.228.553s.057-.283-.023-.541c-.049-.169-.328-.471-.3-.565a.19.19 0 0 1 .247-.239"/><path d="m21.874 14.97a7.8 7.8 0 0 0 -.044-1.243c-.012-.327-.331-3.022-.4-3.273-.078-.471.312-.063.267-.339-.134-.346-.469-.855-.573-1.156-.067-.132-.039-.245-.181-.032a2.959 2.959 0 0 0 -.127 1.181 28.737 28.737 0 0 1 .632 5.679c.16 0 .344-.408.424-.817"/><path d="m24.429 12.159c.192.113.3.7.28.867-.036.308-.135.641-.208.6s.016-.459-.022-.584c-.045-.183-.3-.516-.273-.616-.051-.208.112-.295.223-.264"/><path d="m11.418 13.9c.178.076.285.509.264.635-.036.226-.131.465-.2.439s.015-.339-.022-.433c-.014-.232-.264-.352-.259-.452-.047-.182.1-.214.215-.189"/><path d="m6.608 8.783c.266.088.281.528.264.659-.036.233-.131.484-.2.453s0-.346-.038-.446c-.034-.149-.263-.39-.234-.465-.051-.157.1-.233.211-.2"/><path d="m11.851 10.856a.573.573 0 0 0 -.155.71.289.289 0 0 0 .33.113c.2.031.318-.421.318-.421s.006-.126-.229.113c-.1.025-.113-.019-.139-.082a.636.636 0 0 1 .03-.352c.037-.113-.04-.163-.155-.081"/><path d="m13.378 8.613a.845.845 0 0 0 -.31.591c-.009.15-.034.15.056.251.067.107.132.094.262.013a.311.311 0 0 0 .126-.2c.032-.176-.163.081-.19-.114s.082-.251.2-.433c0-.119 0-.2-.146-.107"/><path d="m14.611 8.858a4.019 4.019 0 0 0 -.089.685c-.037.17.16.245.247.025a2.226 2.226 0 0 0 .14-.747c-.04-.258-.2-.245-.3.037"/><path d="m22.371 13.3c.028-.025 1.093-.879 1.093-.879.109-.044.086.44.037.433a4.244 4.244 0 0 1 -1.13.886c-.052.038-.105-.333 0-.44"/><path d="m23.344 13.293c.19.107.264.722.243.892.007.327-.181.59-.254.553s.009-.408-.028-.54a2.9 2.9 0 0 1 -.177-.622c-.053-.208.1-.321.216-.283"/><path d="m17 15.956a1.643 1.643 0 0 1 .3-.295.172.172 0 0 1 .207.044c.018.113-.066.226-.039.383.021.063.039.139.142.107a.661.661 0 0 1 .5-.163c.133 0 .134.251.054.251a3.5 3.5 0 0 0 -.677.27.142.142 0 0 1 -.2-.031.239.239 0 0 1 -.019-.22c.01-.126-.036-.2-.131-.188-.072.05-.133.075-.168-.013-.013-.069-.018-.107.028-.145"/><path d="m24.467 16.289a.167.167 0 0 1 0 .233c-.076.082-.127.119-.2.2-.033.069-.055.169.051.2.2.063.66-.27.66-.283a.165.165 0 0 0 .044-.182c-.044-.056-.14-.025-.206-.025-.033 0-.135-.025-.086-.119a1.01 1.01 0 0 0 .084-.183c.029-.081.005-.131-.111-.176a.878.878 0 0 0 -.285 0c-.068.019-.092.057-.1.145 0 .138.081.132.16.188"/></g></svg>