<svg width="105" height="26" viewBox="0 0 105 26" fill="none" xmlns="http://www.w3.org/2000/svg">
<path d="M26.144 25V7.976H29.76L29.952 10.824H30.08C30.464 9.736 31.0827 8.95733 31.936 8.488C32.8107 7.99733 33.8027 7.752 34.912 7.752C35.104 7.752 35.2747 7.752 35.424 7.752C35.5947 7.752 35.7547 7.752 35.904 7.752V11.528C35.776 11.528 35.616 11.528 35.424 11.528C35.2533 11.5067 35.0613 11.496 34.848 11.496C33.824 11.496 32.9707 11.6667 32.288 12.008C31.6053 12.328 31.0827 12.7973 30.72 13.416C30.3787 14.0347 30.1867 14.792 30.144 15.688V25H26.144ZM44.5178 25C43.4724 25 42.6511 24.8507 42.0538 24.552C41.4778 24.232 41.0724 23.784 40.8378 23.208C40.6031 22.632 40.4858 21.9387 40.4858 21.128V11.208H37.3498V7.976H40.4858V3.176L44.4538 2.76V7.976H48.0698V11.208H44.4538V20.392C44.4538 20.9253 44.5711 21.288 44.8058 21.48C45.0404 21.6507 45.4031 21.736 45.8938 21.736H48.0698V25H44.5178ZM57.7785 25.288C56.0505 25.288 54.5785 24.936 53.3625 24.232C52.1678 23.5067 51.2505 22.4933 50.6105 21.192C49.9705 19.8693 49.6505 18.3333 49.6505 16.584C49.6505 14.7707 49.9705 13.2027 50.6105 11.88C51.2505 10.536 52.1678 9.50133 53.3625 8.776C54.5572 8.05067 55.9758 7.688 57.6185 7.688C59.4958 7.688 61.0318 8.104 62.2265 8.936C63.4425 9.74667 64.3172 10.8773 64.8505 12.328C65.3838 13.7787 65.5652 15.4427 65.3945 17.32H53.5545C53.5545 18.408 53.7252 19.3253 54.0665 20.072C54.4292 20.7973 54.9198 21.352 55.5385 21.736C56.1785 22.0987 56.9252 22.28 57.7785 22.28C58.7812 22.28 59.6132 22.0453 60.2745 21.576C60.9358 21.0853 61.3625 20.456 61.5545 19.688H65.2985C65.1705 20.84 64.7652 21.8427 64.0825 22.696C63.3998 23.528 62.5145 24.168 61.4265 24.616C60.3385 25.064 59.1225 25.288 57.7785 25.288ZM53.5545 15.176L53.2025 14.76H61.8745L61.4905 15.208C61.5332 14.1627 61.3945 13.3093 61.0745 12.648C60.7545 11.9867 60.2958 11.496 59.6985 11.176C59.1012 10.856 58.4078 10.696 57.6185 10.696C56.8078 10.696 56.1038 10.8667 55.5065 11.208C54.9092 11.5493 54.4398 12.0613 54.0985 12.744C53.7572 13.4053 53.5758 14.216 53.5545 15.176ZM76.2525 25.288C74.9938 25.288 73.8525 25.0853 72.8285 24.68C71.8045 24.2533 70.9192 23.656 70.1725 22.888C69.4258 22.0987 68.8605 21.1707 68.4765 20.104C68.0925 19.016 67.9005 17.8107 67.9005 16.488C67.9005 14.696 68.2418 13.1493 68.9245 11.848C69.6285 10.5253 70.6098 9.50133 71.8685 8.776C73.1485 8.02933 74.6525 7.656 76.3805 7.656C77.8098 7.656 79.0792 7.92267 80.1885 8.456C81.2978 8.98933 82.1832 9.736 82.8445 10.696C83.5272 11.6347 83.9005 12.7333 83.9645 13.992H80.0605C79.9538 13.3307 79.7192 12.776 79.3565 12.328C79.0152 11.88 78.5778 11.5387 78.0445 11.304C77.5112 11.0693 76.9245 10.952 76.2845 10.952C75.3672 10.952 74.5778 11.1867 73.9165 11.656C73.2552 12.104 72.7538 12.744 72.4125 13.576C72.0925 14.408 71.9325 15.3787 71.9325 16.488C71.9325 17.704 72.1138 18.7173 72.4765 19.528C72.8392 20.3387 73.3405 20.9573 73.9805 21.384C74.6418 21.7893 75.3992 21.992 76.2525 21.992C76.9992 21.992 77.6498 21.864 78.2045 21.608C78.7592 21.3307 79.1965 20.9573 79.5165 20.488C79.8578 19.9973 80.0605 19.4427 80.1245 18.824H84.0285C83.9432 20.1253 83.5592 21.2667 82.8765 22.248C82.1938 23.208 81.2872 23.9547 80.1565 24.488C79.0258 25.0213 77.7245 25.288 76.2525 25.288ZM87.144 25V1.672H91.144V11.208H91.336C91.8267 10.0133 92.5733 9.128 93.576 8.552C94.5787 7.95467 95.6987 7.656 96.936 7.656C97.7893 7.656 98.5787 7.79467 99.304 8.072C100.051 8.328 100.691 8.744 101.224 9.32C101.779 9.87467 102.205 10.6107 102.504 11.528C102.824 12.424 102.984 13.512 102.984 14.792V25H98.984V15.656C98.984 14.5893 98.856 13.7147 98.6 13.032C98.344 12.328 97.9493 11.8053 97.416 11.464C96.904 11.1227 96.232 10.952 95.4 10.952C94.504 10.952 93.736 11.1653 93.096 11.592C92.4773 12.0187 91.9973 12.584 91.656 13.288C91.3147 13.992 91.144 14.7707 91.144 15.624V25H87.144Z" fill="white"/>
<path d="M2.37931 20.4L0 25H4.75862L2.37931 20.4Z" fill="white"/>
<path d="M4.75862 15.8L9.25287 25H13.7471L7.13793 11.2L4.75862 15.8Z" fill="white"/>
<path d="M9.25287 6.6L18.2414 25H23L11.5 2L9.25287 6.6Z" fill="white"/>
</svg>
