<svg id="Layer_1" data-name="Layer 1" xmlns="http://www.w3.org/2000/svg" width="23.14" height="18" viewBox="0 0 23.14 18"><defs><style>.cls-1{fill:#cfd8dc;}.cls-2{fill:#2196f3;}.cls-3{fill:#546e7a;}.cls-4{fill:#fff;}</style></defs><rect class="cls-1" width="23.14" height="18" rx="3"/><path class="cls-2" d="M1.93,0H9l4.5,18H1.93A1.92,1.92,0,0,1,0,16.09v0H0V1.93A1.92,1.92,0,0,1,1.91,0Z" transform="translate(0 0)"/><path class="cls-3" d="M14.18,11.72a16,16,0,0,0,5.1-5.87l1.15.58A16.5,16.5,0,0,1,15,12.86Z" transform="translate(0 0)"/><path class="cls-3" d="M19.93,12.86a14.5,14.5,0,0,1-5-4.5l1.14-.65a12.88,12.88,0,0,0,4.49,4ZM13.5,5.79h7.71V7.07H13.5Z" transform="translate(0 0)"/><path class="cls-3" d="M16.71,4.5H18V7.07H16.71Z" transform="translate(0 0)"/><path class="cls-4" d="M3.86,10.29H7.71v1.28H3.86Z" transform="translate(0 0)"/><path class="cls-4" d="M3.93,12.86,5.78,7.07l1.87,5.79H9L6.43,5.14H5.14L2.57,12.86Z" transform="translate(0 0)"/></svg>