<?xml version="1.0" encoding="UTF-8"?><svg id="Layer_1" xmlns="http://www.w3.org/2000/svg" viewBox="0 0 200 200"><defs><style>.cls-1{fill:#cadbea;}.cls-1,.cls-2,.cls-3{stroke-linecap:round;stroke-linejoin:round;stroke-width:6.5px;}.cls-1,.cls-3{stroke:#cadbea;}.cls-2{stroke:#818a91;}.cls-2,.cls-3{fill:none;}</style></defs><path class="cls-2" d="m63.99,128.17h-4.62c-5.49,0-9.94-4.45-9.94-9.94h0c0-5.49,4.45-9.94,9.94-9.94h3.97"/><rect class="cls-2" x="49.42" y="128.17" width="69.08" height="19.89" rx="9.94" ry="9.94"/><line class="cls-2" x1="63.34" y1="148.06" x2="14.88" y2="148.06"/><path class="cls-1" d="m146.53,90.06c0,12.78-9.84,23.14-21.97,23.14s-21.97-10.36-21.97-23.14c0-5.43,1.78-10.43,4.75-14.37,6.19-2.51,8.87-4.3,14.34-8.57.94-.13,1.9-.2,2.88-.2,12.13,0,21.97,10.36,21.97,23.14Z"/><line class="cls-2" x1="158.2" y1="65.56" x2="170.41" y2="65.56"/><line class="cls-2" x1="170.41" y1="114.55" x2="158.2" y2="114.55"/><polyline class="cls-3" points="63.99 104.47 63.99 128.17 185.12 128.17 185.12 51.94 119.91 51.94"/><line class="cls-2" x1="78.69" y1="114.55" x2="90.91" y2="114.55"/><path class="cls-2" d="m34.73,108.28l12.83-.04c14.96-.04,28.52-8.81,34.69-22.44l4.63-10.23h15.14c9.66,0,18.34-5.89,21.91-14.87l1.12-2.81c1.13-2.85-.97-5.94-4.03-5.94h-52.64c-8.97,0-17.62,3.32-24.28,9.32l-11.18,10.06c-3.62,3.26-8.33,5.07-13.2,5.07h-4.83"/></svg>