<svg width="174" height="72" viewBox="0 0 174 72" fill="none" xmlns="http://www.w3.org/2000/svg">
<path id="Vector" d="M94.7875 31.3711C101.452 25.8715 108.165 20.4395 114.926 15.0752L119.997 11.0447C120.808 10.3633 121.707 9.69635 122.663 9.00044C123.596 8.34515 124.563 7.74019 125.561 7.18817C129.689 4.9375 134.268 3.63961 138.962 3.38963C146.276 3.05622 153.499 5.12373 159.53 9.27732C165.561 13.4309 170.071 19.443 172.372 26.3983C173.091 28.7613 173.576 31.1893 173.821 33.6473C174.06 36.1208 174.06 38.6115 173.821 41.0849C173.539 43.5853 172.995 46.0491 172.198 48.4355C171.347 50.8285 170.249 53.1267 168.924 55.2932C164.822 61.8703 158.681 66.9231 151.439 69.6798C144.198 72.4365 136.254 72.7455 128.82 70.5597C126.334 69.8183 123.939 68.802 121.678 67.5296C120.548 66.9497 119.432 66.1668 118.432 65.5289L115.752 63.7456L105.161 56.4095C98.0619 51.5188 90.9819 46.6087 83.9213 41.6793C76.8511 36.7355 69.7809 31.8061 62.7541 26.8042L52.2066 19.3376L49.5698 17.4674L48.9178 16.9889L48.3672 16.6265L47.2951 15.9161C45.8371 15.046 44.2992 14.3178 42.7023 13.7414C39.4288 12.6564 35.9614 12.2847 32.5325 12.6511C29.1037 13.0174 25.7928 14.1135 22.822 15.8656C19.8513 17.6176 17.2894 19.9853 15.3082 22.8097C13.3271 25.634 11.9724 28.8497 11.3353 32.241C10.6923 35.7437 10.7761 39.3413 11.5816 42.8102C12.4119 46.2909 13.9944 49.5473 16.2178 52.35C18.5208 55.229 21.4006 57.5936 24.6719 59.2916C27.9433 60.9895 31.5336 61.9832 35.2119 62.2088C38.9804 62.4133 42.7469 61.7744 46.2375 60.3385C47.1246 59.9828 47.9905 59.5762 48.8309 59.1206C49.6857 58.6277 50.4245 58.2073 51.3953 57.6708L56.9588 54.3507C60.6533 52.118 64.3767 49.9143 68.1437 47.7831C71.9106 45.6518 75.6775 43.4336 79.5169 41.4474C76.3488 44.434 73.1373 47.3336 69.8823 50.1463C66.6514 53.0459 63.3626 55.8585 60.0737 58.6567L55.1332 62.8757C54.7059 63.2465 54.2559 63.5903 53.7859 63.9051C53.2933 64.253 52.8151 64.6155 52.337 64.9344C51.3084 65.5579 50.2942 66.1957 49.2076 66.7177C44.8474 68.9225 40.0522 70.1308 35.1685 70.2552C30.2 70.3535 25.2686 69.3787 20.7107 67.3971C16.1528 65.4156 12.0754 62.4739 8.75642 58.7727C5.36378 54.9878 2.86348 50.4891 1.43988 45.6083C0.0198463 40.7202 -0.355348 35.5876 0.338765 30.5447C1.04851 25.4239 2.88967 20.5256 5.72839 16.206C8.5705 11.872 12.3233 8.21067 16.7249 5.47737C21.1335 2.74207 26.0715 0.973062 31.2132 0.287017C36.4243 -0.37843 41.718 0.116645 46.7156 1.73684C49.1912 2.57363 51.5787 3.65167 53.8438 4.95543C54.3943 5.28889 54.9304 5.65135 55.481 5.99931L56.2778 6.52124L56.9443 6.98519L59.6101 8.82645L70.201 16.235C77.2712 21.1547 84.3222 26.1131 91.3538 31.1101C98.3854 36.1072 105.403 41.1043 112.405 46.1013L122.909 53.6549L125.532 55.5541C126.343 56.0905 126.98 56.5835 127.748 57.0039C129.219 57.8999 130.79 58.6201 132.428 59.1497C135.741 60.2347 139.249 60.5904 142.713 60.1926C146.176 59.7947 149.513 58.6526 152.494 56.8444C155.559 55.0436 158.199 52.6003 160.231 49.6823C161.233 48.217 162.083 46.6527 162.766 45.0139C163.417 43.34 163.902 41.6065 164.215 39.8381C164.869 36.2014 164.737 32.4666 163.827 28.8854C162.917 25.3041 161.251 21.9595 158.941 19.0767C156.503 16.1095 153.468 13.6892 150.033 11.9731C146.598 10.2571 142.841 9.28375 139.006 9.11643C135.036 8.93194 131.075 9.64038 127.415 11.1897C126.488 11.5666 125.589 12.0306 124.706 12.4945L123.387 13.2339L122.025 14.1038L116.578 17.5834C109.401 22.2034 102.138 26.7994 94.7875 31.3711Z" fill="url(#paint0_linear_526_2369)"/>
<defs>
<linearGradient id="paint0_linear_526_2369" x1="14.2041" y1="11.4085" x2="180.08" y2="47.1881" gradientUnits="userSpaceOnUse">
<stop stop-color="#B65FFC"/>
<stop offset="1" stop-color="#B65FFC" stop-opacity="0.4"/>
</linearGradient>
</defs>
</svg>
