<svg width="126" height="58" viewBox="0 0 126 58" fill="none" xmlns="http://www.w3.org/2000/svg">
<path d="M30.7396 20.0748H4.27065C1.92411 20.0748 0.046875 21.9521 0.046875 24.2987V50.7682C0.046875 54.5227 4.59916 56.4 7.27422 53.7718L33.7432 27.3023C36.3713 24.6272 34.4941 20.0748 30.7396 20.0748Z" fill="url(#paint0_linear_64_768)"/>
<path d="M31.5844 0.738892H4.36456C1.97109 0.738892 0 2.66309 0 5.10355V32.324C0 36.1724 4.69308 38.1435 7.41506 35.3745L34.6349 8.15411C37.4038 5.43207 35.4797 0.738892 31.5844 0.738892Z" fill="url(#paint1_linear_64_768)"/>
<path d="M7.46229 35.3746L22.7617 20.0748H4.27099C1.92446 20.0748 0.0472243 21.9521 0.0472243 24.2987V32.2771C0.000293534 36.1724 4.69337 38.0966 7.46229 35.3746Z" fill="#2F7BF2"/>
<path d="M46.8281 20.6075H61.4236V23.9396H50.9111V31.261H59.124V34.5931H50.9111V45.4344H46.8281V20.6075Z" fill="#2B3648"/>
<path d="M63.582 20.5136C63.582 19.0587 64.7084 17.9323 66.1632 17.9323C67.5711 17.9323 68.7444 19.0587 68.7444 20.5136C68.7444 21.9685 67.6181 23.0948 66.1632 23.0948C64.7084 23.1418 63.582 21.9685 63.582 20.5136ZM64.1452 25.723H68.2282V45.3874H64.1452V25.723Z" fill="#2B3648"/>
<path d="M86.3906 34.4054C86.3906 30.7916 84.4196 28.9613 81.4629 28.9613C78.4593 28.9613 76.4883 30.8386 76.4883 34.4054V45.3874H72.4053V25.723H76.4883V27.9757C77.8023 26.38 79.9611 25.3945 82.3546 25.3945C86.9538 25.3945 90.4267 28.3042 90.4267 33.7953V45.3874H86.3906V34.4054Z" fill="#2B3648"/>
<path d="M98.5927 45.3874H94.5098V25.723H98.5927V28.5858C99.7191 26.6147 101.69 25.3945 104.459 25.3945V29.6183H103.427C100.423 29.6183 98.5927 30.8855 98.5927 35.0155V45.3874Z" fill="#2B3648"/>
<path d="M115.066 25.3945C118.398 25.3945 120.65 26.9432 121.871 28.5858V25.723H125.954V45.3874H121.871V42.4307C120.604 44.1203 118.257 45.669 114.972 45.669C109.856 45.669 105.773 41.4921 105.773 35.4379C105.773 29.3837 109.903 25.3945 115.066 25.3945ZM115.91 28.9144C112.86 28.9144 109.95 31.214 109.95 35.4379C109.95 39.6617 112.86 42.1491 115.91 42.1491C118.961 42.1491 121.871 39.7556 121.871 35.5317C121.871 31.3079 119.008 28.9144 115.91 28.9144Z" fill="#2B3648"/>
<path d="M51.5213 52.6619H52.0375V54.8208C51.7559 55.0554 51.4274 55.2432 51.052 55.384C50.6765 55.5248 50.3011 55.5717 49.8787 55.5717C49.3155 55.5717 48.7993 55.4309 48.33 55.1493C47.8607 54.8677 47.4852 54.4923 47.2036 54.0699C46.922 53.6006 46.7812 53.0843 46.7812 52.5681C46.7812 52.0049 46.922 51.5356 47.2036 51.0662C47.4852 50.5969 47.8607 50.2684 48.33 49.9868C48.7993 49.7052 49.3155 49.5644 49.8787 49.5644C50.3011 49.5644 50.6765 49.6583 51.052 49.7991C51.4274 49.9399 51.7559 50.1276 52.0375 50.4092L51.709 50.8316C51.4743 50.5969 51.1927 50.4092 50.8642 50.3153C50.5357 50.1745 50.2072 50.1276 49.8787 50.1276C49.4094 50.1276 48.987 50.2215 48.6116 50.4561C48.2361 50.6908 47.9076 50.9724 47.7199 51.3478C47.4852 51.7233 47.3914 52.1457 47.3914 52.615C47.3914 53.0843 47.4852 53.5067 47.7199 53.8821C47.9545 54.2576 48.2361 54.5861 48.6585 54.7739C49.0339 55.0085 49.4563 55.1024 49.9256 55.1024C50.2072 55.1024 50.4888 55.0554 50.7704 54.9616C51.052 54.8677 51.2866 54.7269 51.5682 54.5861V52.6619H51.5213Z" fill="#2B3648"/>
<path d="M54.1023 49.5175C54.1962 49.6113 54.1962 49.7052 54.1962 49.799C54.1962 49.8929 54.1493 49.9868 54.1023 50.0806C54.0085 50.1745 53.9146 50.2214 53.8208 50.2214C53.7269 50.2214 53.633 50.1745 53.5392 50.0806C53.4453 49.9868 53.4453 49.8929 53.4453 49.799C53.4453 49.7052 53.4922 49.6113 53.5392 49.5175C53.633 49.4236 53.7269 49.4236 53.8208 49.4236C53.9146 49.4236 54.0554 49.4705 54.1023 49.5175ZM53.5392 51.1131H54.1023V55.5716H53.5392V51.1131Z" fill="#2B3648"/>
<path d="M58.4667 55.5247V54.7737C58.279 55.0553 58.0443 55.2431 57.7627 55.3369C57.4811 55.4777 57.1526 55.5247 56.7772 55.5247C56.4956 55.5247 56.214 55.4777 55.9794 55.3369C55.7447 55.2431 55.557 55.0553 55.4631 54.8676C55.3223 54.6799 55.2754 54.4452 55.2754 54.1636C55.2754 53.7882 55.4162 53.4597 55.6978 53.2719C55.9794 53.0373 56.4017 52.9434 56.918 52.9434H58.4198V52.6149C58.4198 52.2864 58.3259 52.0048 58.0912 51.817C57.8566 51.6293 57.575 51.5354 57.1526 51.5354C56.6833 51.5354 56.214 51.7232 55.6978 52.0517L55.4631 51.6762C55.7447 51.4885 56.0263 51.3008 56.3079 51.2069C56.5895 51.1131 56.871 51.0661 57.2465 51.0661C57.7627 51.0661 58.1851 51.2069 58.5136 51.4885C58.7952 51.7701 58.936 52.1456 58.9829 52.6149V55.5716H58.4667V55.5247ZM57.9035 54.8207C58.1851 54.6329 58.3728 54.3983 58.4667 54.0228V53.4127H57.0118C56.6364 53.4127 56.3079 53.4597 56.1201 53.6005C55.9324 53.7412 55.7916 53.929 55.7916 54.1636C55.7916 54.4452 55.8855 54.6329 56.0732 54.8207C56.2609 54.9615 56.5425 55.0553 56.871 55.0553C57.2934 55.1023 57.6219 55.0084 57.9035 54.8207Z" fill="#2B3648"/>
<path d="M64.8968 55.2431C64.5683 55.4308 64.2867 55.5716 63.9112 55.5716C63.5827 55.5716 63.3011 55.4777 63.1134 55.2431C62.9257 55.0553 62.8318 54.7268 62.8318 54.3044V51.6763H62.1748V51.2539H62.8318V50.1275H63.395V51.2539H64.8499V51.7232H63.395V54.2575C63.395 54.8207 63.5827 55.1023 64.0051 55.1023C64.2398 55.1023 64.4744 55.0084 64.756 54.8676L64.8968 55.2431Z" fill="#2B3648"/>
<path d="M68.6044 55.5246V54.7737C68.4167 55.0553 68.182 55.243 67.9004 55.3369C67.6188 55.4777 67.2903 55.5246 66.9149 55.5246C66.6333 55.5246 66.3517 55.4777 66.117 55.3369C65.8824 55.243 65.6947 55.0553 65.6008 54.8676C65.46 54.6799 65.4131 54.4452 65.4131 54.1636C65.4131 53.7882 65.5539 53.4596 65.8355 53.2719C66.117 53.0373 66.5394 52.9434 67.0557 52.9434H68.5574V52.6149C68.5574 52.2863 68.4636 52.0048 68.2289 51.817C68.0412 51.6293 67.7127 51.5354 67.2903 51.5354C66.821 51.5354 66.3517 51.7232 65.8355 52.0517L65.6008 51.6762C65.8824 51.4885 66.164 51.3008 66.4456 51.2069C66.7271 51.113 67.0087 51.0661 67.3842 51.0661C67.9004 51.0661 68.3228 51.2069 68.6513 51.4885C68.9329 51.7701 69.0737 52.1455 69.1206 52.6149V55.5716H68.6044V55.5246ZM68.0412 54.8207C68.3228 54.6329 68.5105 54.3983 68.6044 54.0228V53.4127H67.1495C66.7741 53.4127 66.4456 53.4596 66.2578 53.6004C66.0701 53.7412 65.9293 53.929 65.9293 54.1636C65.9293 54.4452 66.0232 54.6329 66.2109 54.8207C66.3986 54.9615 66.6802 55.0553 67.0087 55.0553C67.4311 55.1022 67.7596 55.0084 68.0412 54.8207ZM66.9618 49.752C67.0557 49.8928 67.2434 49.9398 67.3842 49.9398C67.5719 49.9398 67.7127 49.8928 67.8066 49.752C67.9004 49.6112 67.9943 49.4704 67.9943 49.2827H68.4167C68.4167 49.6112 68.3228 49.8459 68.0881 50.0336C67.9004 50.2213 67.6658 50.3152 67.3372 50.3152C67.0557 50.3152 66.821 50.2213 66.5864 50.0336C66.3986 49.8459 66.3048 49.6112 66.2578 49.2827H66.6802C66.7741 49.4704 66.8679 49.6112 66.9618 49.752Z" fill="#2B3648"/>
<path d="M74.1888 51.5354C74.4703 51.864 74.6581 52.2864 74.6581 52.8026V55.5246H74.0949V52.9434C74.0949 52.521 74.001 52.1925 73.7664 51.9578C73.5317 51.7232 73.2032 51.5824 72.7808 51.5824C72.3115 51.5824 71.9361 51.7232 71.7014 52.0048C71.4198 52.2863 71.279 52.6618 71.2321 53.1311V55.5246H70.6689V51.0661H71.1852V52.0986C71.326 51.7701 71.5606 51.4885 71.8422 51.3008C72.1238 51.1131 72.4992 51.0192 72.9216 51.0192C73.4379 51.0661 73.8602 51.2539 74.1888 51.5354Z" fill="#2B3648"/>
<path d="M79.8674 51.1131V55.1023C79.8674 55.5247 79.7736 55.9001 79.5859 56.2286C79.3981 56.5572 79.1635 56.7918 78.788 56.9795C78.4595 57.1673 78.0841 57.2611 77.6148 57.2611C76.9577 57.2611 76.3476 57.0265 75.7845 56.6041L76.066 56.1817C76.3007 56.3694 76.5354 56.5102 76.77 56.651C77.0047 56.7449 77.2862 56.7918 77.5678 56.7918C78.0841 56.7918 78.4595 56.651 78.788 56.3694C79.0696 56.0878 79.2573 55.6654 79.2573 55.1961V54.4922C79.1165 54.8207 78.8819 55.0553 78.6003 55.2431C78.3187 55.4308 77.9902 55.5247 77.5678 55.5247C77.1924 55.5247 76.8169 55.4308 76.5354 55.2431C76.2068 55.0553 75.9722 54.8207 75.8314 54.4922C75.6437 54.1636 75.5498 53.7882 75.5498 53.3658C75.5498 52.9434 75.6437 52.568 75.8314 52.2864C76.0191 51.9578 76.2538 51.7232 76.5354 51.5355C76.8639 51.3477 77.1924 51.2539 77.6148 51.2539C77.9902 51.2539 78.3187 51.3477 78.6003 51.5355C78.8819 51.7232 79.1165 51.9578 79.2573 52.2864V51.3008H79.8674V51.1131ZM78.5534 54.6799C78.788 54.5391 78.9758 54.3514 79.1165 54.0698C79.2573 53.8351 79.3043 53.5066 79.3043 53.225C79.3043 52.8965 79.2573 52.6149 79.1165 52.3802C78.9758 52.1456 78.788 51.9109 78.5534 51.7701C78.3187 51.6293 78.0371 51.5355 77.7086 51.5355C77.3801 51.5355 77.1455 51.6293 76.8639 51.7701C76.6292 51.9109 76.4415 52.0986 76.3007 52.3802C76.1599 52.6149 76.113 52.9434 76.113 53.225C76.113 53.5535 76.1599 53.8351 76.3007 54.0698C76.4415 54.3044 76.6292 54.5391 76.8639 54.6799C77.0985 54.8207 77.3801 54.9145 77.7086 54.9145C78.0371 54.9145 78.3187 54.8207 78.5534 54.6799Z" fill="#2B3648"/>
<path d="M87.3762 51.1131V55.1023C87.3762 55.5247 87.2824 55.9001 87.0946 56.2286C86.9069 56.5572 86.6723 56.7918 86.2968 56.9795C85.9683 57.1673 85.5929 57.2611 85.1235 57.2611C84.4665 57.2611 83.8564 57.0265 83.2932 56.6041L83.5748 56.1817C83.8095 56.3694 84.0441 56.5102 84.2788 56.651C84.5134 56.7449 84.795 56.7918 85.0766 56.7918C85.5929 56.7918 85.9683 56.651 86.2968 56.3694C86.5784 56.0878 86.7661 55.6654 86.7661 55.1961V54.4922C86.6253 54.8207 86.3907 55.0553 86.1091 55.2431C85.8275 55.4308 85.499 55.5247 85.0766 55.5247C84.7012 55.5247 84.3257 55.4308 84.0441 55.2431C83.7156 55.0553 83.481 54.8207 83.3402 54.4922C83.1525 54.1636 83.0586 53.7882 83.0586 53.3658C83.0586 52.9434 83.1525 52.568 83.3402 52.2864C83.5279 51.9578 83.7626 51.7232 84.0441 51.5355C84.3727 51.3477 84.7012 51.2539 85.1235 51.2539C85.499 51.2539 85.8275 51.3477 86.1091 51.5355C86.3907 51.7232 86.6253 51.9578 86.7661 52.2864V51.3008H87.3762V51.1131ZM86.0622 54.6799C86.2968 54.5391 86.4845 54.3514 86.6253 54.0698C86.7661 53.8351 86.8131 53.5066 86.8131 53.225C86.8131 52.8965 86.7661 52.6149 86.6253 52.3802C86.4845 52.1456 86.2968 51.9109 86.0622 51.7701C85.8275 51.6293 85.5459 51.5355 85.2174 51.5355C84.8889 51.5355 84.6542 51.6293 84.3727 51.7701C84.138 51.9109 83.9503 52.0986 83.8095 52.3802C83.6687 52.6149 83.6218 52.9434 83.6218 53.225C83.6218 53.5535 83.6687 53.8351 83.8095 54.0698C83.9503 54.3044 84.138 54.5391 84.3727 54.6799C84.6073 54.8207 84.8889 54.9145 85.2174 54.9145C85.5459 54.9145 85.8275 54.8207 86.0622 54.6799Z" fill="#2B3648"/>
<path d="M89.3943 49.5175C89.4882 49.6113 89.4882 49.7052 89.4882 49.799C89.4882 49.8929 89.4413 49.9868 89.3943 50.0806C89.3005 50.1745 89.2066 50.2214 89.1127 50.2214C89.0189 50.2214 88.925 50.1745 88.8312 50.0806C88.7373 49.9868 88.7373 49.8929 88.7373 49.799C88.7373 49.7052 88.7842 49.6113 88.8312 49.5175C88.925 49.4236 89.0189 49.4236 89.1127 49.4236C89.2535 49.4236 89.3474 49.4705 89.3943 49.5175ZM88.8312 51.1131H89.3943V55.5716H88.8312V51.1131Z" fill="#2B3648"/>
<path d="M93.7587 55.5248V54.7739C93.571 55.0555 93.3363 55.2432 93.0547 55.3371C92.7731 55.4779 92.4446 55.5248 92.0692 55.5248C91.7876 55.5248 91.506 55.4779 91.2713 55.3371C91.0367 55.2432 90.849 55.0555 90.7551 54.8677C90.6143 54.68 90.5674 54.4454 90.5674 54.1638C90.5674 53.7883 90.7082 53.4598 90.9898 53.2721C91.2713 53.0374 91.6937 52.9435 92.21 52.9435H93.7117V52.615C93.7117 52.2865 93.6179 52.0049 93.3832 51.8172C93.1955 51.6295 92.867 51.5356 92.4446 51.5356C91.9753 51.5356 91.506 51.7233 90.9898 52.0518L90.7551 51.6764C91.0367 51.4887 91.3183 51.3009 91.5999 51.2071C91.8814 51.1132 92.163 51.0663 92.5385 51.0663C93.0547 51.0663 93.4771 51.2071 93.8056 51.4887C94.0872 51.7702 94.228 52.1457 94.2749 52.615V55.5717H93.7587V55.5248ZM93.1955 54.8208C93.4771 54.6331 93.6648 54.3984 93.7587 54.023V53.4129H92.3038C91.9284 53.4129 91.5999 53.4598 91.4121 53.6006C91.2244 53.7414 91.0836 53.9291 91.0836 54.1638C91.0836 54.4454 91.1775 54.6331 91.3652 54.8208C91.5529 54.9616 91.8345 55.0555 92.163 55.0555C92.5854 55.1024 92.9139 55.0085 93.1955 54.8208ZM93.1486 49.189L93.7117 49.4237L92.6323 50.2684L92.1161 50.2215L93.1486 49.189Z" fill="#2B3648"/>
<path d="M100.189 55.2431C99.8603 55.4308 99.5787 55.5716 99.2032 55.5716C98.8747 55.5716 98.5931 55.4777 98.4054 55.2431C98.2177 55.0553 98.1238 54.7268 98.1238 54.3044V51.6763H97.4668V51.2539H98.1238V50.1275H98.687V51.2539H100.142V51.7232H98.687V54.2575C98.687 54.8207 98.8747 55.1023 99.2971 55.1023C99.5318 55.1023 99.7664 55.0084 100.048 54.8676L100.189 55.2431Z" fill="#2B3648"/>
<path d="M102.3 51.3477C102.582 51.16 102.91 51.0661 103.286 51.0661V51.5824C102.816 51.5824 102.441 51.7232 102.159 52.0048C101.878 52.2864 101.69 52.6618 101.69 53.1311V55.5247H101.127V51.0661H101.69V52.0986C101.831 51.7701 102.019 51.5355 102.3 51.3477Z" fill="#2B3648"/>
<path d="M104.694 49.5175C104.788 49.6113 104.788 49.7052 104.788 49.799C104.788 49.8929 104.741 49.9868 104.694 50.0806C104.6 50.1745 104.506 50.2214 104.413 50.2214C104.319 50.2214 104.225 50.1745 104.131 50.0806C104.037 49.9868 104.037 49.8929 104.037 49.799C104.037 49.7052 104.084 49.6113 104.131 49.5175C104.225 49.4236 104.319 49.4236 104.413 49.4236C104.506 49.4236 104.6 49.4705 104.694 49.5175ZM104.694 56.2756C104.788 56.3695 104.788 56.4634 104.788 56.5572C104.788 56.6511 104.741 56.7449 104.694 56.8388C104.6 56.9327 104.506 56.9796 104.413 56.9796C104.319 56.9796 104.225 56.9327 104.131 56.8388C104.037 56.7449 104.037 56.6511 104.037 56.5572C104.037 56.4634 104.084 56.3695 104.131 56.2756C104.225 56.1818 104.319 56.1818 104.413 56.1818C104.506 56.1818 104.6 56.2287 104.694 56.2756ZM104.131 51.1131H104.694V55.5716H104.131V51.1131Z" fill="#2B3648"/>
<path d="M110.701 55.2431C110.372 55.4308 110.09 55.5716 109.715 55.5716C109.386 55.5716 109.105 55.4777 108.917 55.2431C108.729 55.0553 108.636 54.7268 108.636 54.3044V51.6763H107.979V51.2539H108.636V50.1275H109.199V51.2539H110.654V51.7232H109.199V54.2575C109.199 54.8207 109.386 55.1023 109.809 55.1023C110.043 55.1023 110.278 55.0084 110.56 54.8676L110.701 55.2431Z" fill="#2B3648"/>
<path d="M115.253 51.5356C115.535 51.8641 115.723 52.2865 115.723 52.8027V55.5248H115.159V52.9435C115.159 52.5212 115.066 52.1926 114.831 51.958C114.596 51.7233 114.268 51.5825 113.845 51.5825C113.376 51.5825 112.954 51.7702 112.672 52.0518C112.39 52.3804 112.25 52.8027 112.25 53.319V55.4779H111.687V49.189H112.25V52.0988C112.531 51.3948 113.141 51.0193 114.033 51.0193C114.502 51.0663 114.925 51.254 115.253 51.5356Z" fill="#2B3648"/>
<path d="M121.635 50.5969C121.635 50.8316 121.588 50.9724 121.448 51.1601C121.307 51.3009 121.166 51.3948 120.931 51.4417V55.5248H120.368V54.4453C120.227 54.7739 119.993 55.0554 119.711 55.2432C119.43 55.4309 119.054 55.5248 118.679 55.5248C118.162 55.5248 117.74 55.384 117.459 55.0554C117.177 54.7269 117.036 54.3045 117.036 53.7883V51.0662H117.599V53.6475C117.599 54.0699 117.693 54.3984 117.928 54.6331C118.162 54.8677 118.491 54.9616 118.866 54.9616C119.336 54.9616 119.711 54.7739 119.993 54.4923C120.274 54.1637 120.415 53.7414 120.415 53.2251V51.0662H120.65C120.838 51.0662 120.978 51.0193 121.072 50.9255C121.166 50.8316 121.213 50.7377 121.213 50.5969C121.213 50.4561 121.166 50.3153 121.072 50.1745L121.541 49.9868C121.588 50.2215 121.635 50.4092 121.635 50.5969ZM119.289 56.2757C119.383 56.3695 119.383 56.4634 119.383 56.5573C119.383 56.6511 119.336 56.745 119.289 56.8389C119.195 56.9327 119.101 56.9796 119.007 56.9796C118.913 56.9796 118.82 56.9327 118.726 56.8389C118.632 56.745 118.632 56.6511 118.632 56.5573C118.632 56.4634 118.679 56.3695 118.726 56.2757C118.82 56.1818 118.913 56.1818 119.007 56.1818C119.101 56.1818 119.242 56.2287 119.289 56.2757Z" fill="#2B3648"/>
<path d="M124.264 51.5824C123.936 51.5824 123.654 51.6762 123.42 51.817C123.185 51.9578 122.95 52.1925 122.809 52.4272C122.669 52.7087 122.575 52.9903 122.575 53.3189C122.575 53.6474 122.669 53.9759 122.809 54.2106C122.95 54.4922 123.138 54.6799 123.42 54.8207C123.654 54.9615 123.936 55.0553 124.264 55.0553C124.546 55.0553 124.828 55.0084 125.062 54.9145C125.297 54.8207 125.485 54.6799 125.672 54.4922L126.001 54.8207C125.813 55.0553 125.531 55.2431 125.25 55.3839C124.968 55.5247 124.64 55.5716 124.264 55.5716C123.842 55.5716 123.467 55.4777 123.138 55.29C122.809 55.1023 122.528 54.8207 122.34 54.4922C122.152 54.1636 122.059 53.7412 122.059 53.3189C122.059 52.8965 122.152 52.521 122.34 52.1456C122.528 51.817 122.809 51.5355 123.138 51.3477C123.467 51.16 123.842 51.0661 124.264 51.0661C124.593 51.0661 124.921 51.1131 125.203 51.2539C125.485 51.3477 125.719 51.5355 125.954 51.7232L125.625 52.0986C125.25 51.7701 124.781 51.5824 124.264 51.5824Z" fill="#2B3648"/>
<defs>
<linearGradient id="paint0_linear_64_768" x1="30.9524" y1="21.7729" x2="-0.556109" y2="40.4113" gradientUnits="userSpaceOnUse">
<stop stop-color="#C06AE4"/>
<stop offset="1" stop-color="#4D24C6"/>
</linearGradient>
<linearGradient id="paint1_linear_64_768" x1="35.0192" y1="1.96764" x2="2.1626e-07" y2="22.2419" gradientUnits="userSpaceOnUse">
<stop stop-color="#00FDC2"/>
<stop offset="1" stop-color="#00C3DE"/>
</linearGradient>
</defs>
</svg>
