<svg width="100" height="100" viewBox="0 0 100 100" fill="none" xmlns="http://www.w3.org/2000/svg">
<mask id="mask0_110_1625" style="mask-type:alpha" maskUnits="userSpaceOnUse" x="16" y="7" width="100" height="113">
<path d="M66 119.11C52.1281 117.141 39.4326 110.233 30.2468 99.6535C21.061 89.074 16.0022 75.5347 16 61.5239V41.6811C15.9951 39.1686 16.6528 36.6993 17.9069 34.5222C19.161 32.3452 20.967 30.5373 23.1429 29.2811L58.8571 8.88111C61.0152 7.64839 63.4575 7 65.9429 7C68.4282 7 70.8705 7.64839 73.0286 8.88111L108.857 29.2811C111.033 30.5373 112.839 32.3452 114.093 34.5222C115.347 36.6993 116.005 39.1686 116 41.6811V61.5096C116.004 75.5237 110.948 89.0681 101.761 99.6511C92.5747 110.234 79.8756 117.144 66 119.11Z" fill="black"/>
</mask>
<g mask="url(#mask0_110_1625)">
<path d="M53.6739 14.6582C52.386 15.0227 51.148 15.5463 49.9884 16.2172L26.2308 29.1557C23.6908 30.6298 21.5825 32.7513 20.1186 35.306C18.6546 37.8607 17.8868 40.7583 17.8926 43.7066L12.8926 61.9913C12.8926 62.1757 12.8926 62.3433 12.8926 62.5277C21.3998 68.926 32.0162 71.8179 42.5731 70.6126C53.1299 69.4073 62.8308 64.1959 69.6939 56.0428C76.5571 47.8897 67.0647 53.4102 66.5003 42.7449C65.9359 32.0796 61.3421 22.0333 53.6572 14.6582H53.6739Z" fill="#FF4932" fill-opacity="0.8"/>
<path d="M61.1102 76C59.5711 76.007 58.0755 76.511 56.846 77.4369C55.6165 78.3627 54.719 79.6609 54.2871 81.1382C53.8551 82.6154 53.9119 84.1927 54.4489 85.6351C54.9859 87.0775 55.9745 88.3078 57.2674 89.1428C60.6986 85.883 63.7208 82.218 66.2674 78.2286C65.603 77.5278 64.8035 76.969 63.9171 76.586C63.0307 76.2029 62.0758 76.0036 61.1102 76Z" fill="white"/>
</g>
<g filter="url(#filter0_b_110_1625)">
<path d="M38.6863 11.3137C44.9347 5.06532 55.0653 5.06532 61.3137 11.3137L88.6863 38.6863C94.9347 44.9347 94.9347 55.0653 88.6863 61.3137L61.3137 88.6863C55.0653 94.9347 44.9347 94.9347 38.6863 88.6863L11.3137 61.3137C5.06532 55.0653 5.06532 44.9347 11.3137 38.6863L38.6863 11.3137Z" fill="black" fill-opacity="0.05"/>
<path d="M39.2363 11.8637C45.1809 5.91903 54.8191 5.91903 60.7637 11.8637L88.1363 39.2363C94.081 45.1809 94.081 54.8191 88.1363 60.7637L60.7637 88.1363C54.8191 94.081 45.1809 94.081 39.2363 88.1363L11.8637 60.7637C5.91903 54.8191 5.91903 45.1809 11.8637 39.2363L39.2363 11.8637Z" stroke="url(#paint0_linear_110_1625)" stroke-width="1.55556"/>
</g>
<path d="M38.6863 26.3137C44.9347 20.0653 55.0653 20.0653 61.3137 26.3137L73.6863 38.6863C79.9347 44.9347 79.9347 55.0653 73.6863 61.3137L61.3137 73.6863C55.0653 79.9347 44.9347 79.9347 38.6863 73.6863L26.3137 61.3137C20.0653 55.0653 20.0653 44.9347 26.3137 38.6863L38.6863 26.3137Z" fill="black" fill-opacity="0.4"/>
<g filter="url(#filter1_i_110_1625)">
<path d="M61.7872 40.1467C61.1061 39.4653 60.2976 38.9249 59.4076 38.5561C58.5177 38.1874 57.5638 37.9976 56.6005 37.9976C55.6372 37.9976 54.6833 38.1874 53.7933 38.5561C52.9034 38.9249 52.0948 39.4653 51.4138 40.1467L50.0005 41.56L48.5872 40.1467C47.2116 38.7711 45.3459 37.9983 43.4005 37.9983C41.4551 37.9983 39.5894 38.7711 38.2138 40.1467C36.8382 41.5222 36.0654 43.3879 36.0654 45.3333C36.0654 47.2787 36.8382 49.1444 38.2138 50.52L50.0005 62.3067L61.7872 50.52C62.4685 49.839 63.009 49.0304 63.3777 48.1405C63.7465 47.2505 63.9363 46.2966 63.9363 45.3333C63.9363 44.37 63.7465 43.4161 63.3777 42.5262C63.009 41.6362 62.4685 40.8277 61.7872 40.1467Z" fill="url(#paint1_linear_110_1625)"/>
</g>
<defs>
<filter id="filter0_b_110_1625" x="-71.1508" y="-71.1503" width="242.302" height="242.301" filterUnits="userSpaceOnUse" color-interpolation-filters="sRGB">
<feFlood flood-opacity="0" result="BackgroundImageFix"/>
<feGaussianBlur in="BackgroundImageFix" stdDeviation="38.8889"/>
<feComposite in2="SourceAlpha" operator="in" result="effect1_backgroundBlur_110_1625"/>
<feBlend mode="normal" in="SourceGraphic" in2="effect1_backgroundBlur_110_1625" result="shape"/>
</filter>
<filter id="filter1_i_110_1625" x="36.0654" y="37.998" width="27.8711" height="24.3091" filterUnits="userSpaceOnUse" color-interpolation-filters="sRGB">
<feFlood flood-opacity="0" result="BackgroundImageFix"/>
<feBlend mode="normal" in="SourceGraphic" in2="BackgroundImageFix" result="shape"/>
<feColorMatrix in="SourceAlpha" type="matrix" values="0 0 0 0 0 0 0 0 0 0 0 0 0 0 0 0 0 0 127 0" result="hardAlpha"/>
<feOffset/>
<feGaussianBlur stdDeviation="1.24444"/>
<feComposite in2="hardAlpha" operator="arithmetic" k2="-1" k3="1"/>
<feColorMatrix type="matrix" values="0 0 0 0 1 0 0 0 0 1 0 0 0 0 1 0 0 0 1 0"/>
<feBlend mode="normal" in2="shape" result="effect1_innerShadow_110_1625"/>
</filter>
<linearGradient id="paint0_linear_110_1625" x1="50" y1="0" x2="50" y2="74.332" gradientUnits="userSpaceOnUse">
<stop stop-color="#FF4932"/>
<stop offset="1" stop-color="#FF4932" stop-opacity="0"/>
</linearGradient>
<linearGradient id="paint1_linear_110_1625" x1="44.6411" y1="46.2627" x2="54.4008" y2="63.1701" gradientUnits="userSpaceOnUse">
<stop stop-color="white"/>
<stop offset="1" stop-color="#FF4932"/>
</linearGradient>
</defs>
</svg>
