<svg width="29" height="23" viewBox="0 0 29 23" fill="none" xmlns="http://www.w3.org/2000/svg">
<path d="M0.865234 22.0645L0.0351562 20.6699C3.20052 19.0098 5.28125 17.582 6.27734 16.3867C6.98568 15.5456 7.33984 14.7044 7.33984 13.8633C7.33984 13.0443 6.72005 12.0814 5.48047 10.9746C3.77604 9.44727 2.92383 7.94206 2.92383 6.45898C2.92383 4.97591 3.46615 3.69206 4.55078 2.60742C5.63542 1.50065 6.9082 0.947266 8.36914 0.947266C9.85221 0.947266 11.1582 1.55599 12.2871 2.77344C13.4382 3.96875 14.0137 5.42969 14.0137 7.15625C14.0137 9.87891 13.084 12.4134 11.2246 14.7598C8.87826 17.748 5.42513 20.1829 0.865234 22.0645ZM15.541 22.1309L14.7441 20.7695C17.821 19.1315 19.9017 17.6706 20.9863 16.3867C21.6947 15.5234 22.0488 14.7044 22.0488 13.9297C22.0488 13.1549 21.4844 12.2363 20.3555 11.1738C19.2266 10.1113 18.4629 9.19271 18.0645 8.41797C17.7767 7.86458 17.6328 7.21159 17.6328 6.45898C17.6328 4.97591 18.1641 3.70312 19.2266 2.64062C20.2891 1.57812 21.5951 1.04688 23.1445 1.04688C24.694 1.04688 26 1.6224 27.0625 2.77344C28.125 3.90234 28.6562 5.36328 28.6562 7.15625C28.6562 9.90104 27.804 12.3581 26.0996 14.5273C23.8639 17.4271 20.3444 19.9616 15.541 22.1309Z" fill="white"/>
</svg>
