<svg width="29" height="23" viewBox="0 0 29 23" fill="none" xmlns="http://www.w3.org/2000/svg">
<path d="M13.1504 0.947266L13.9473 2.30859C10.8483 3.94661 8.75651 5.40755 7.67188 6.69141C6.96354 7.55469 6.60938 8.3737 6.60938 9.14844C6.60938 9.92318 7.17383 10.8418 8.30273 11.9043C9.45378 12.9668 10.2285 13.8854 10.627 14.6602C10.9147 15.2135 11.0586 15.8555 11.0586 16.5859C11.0586 18.069 10.5273 19.3418 9.46484 20.4043C8.40234 21.4668 7.08529 21.998 5.51367 21.998C3.96419 21.998 2.6582 21.4336 1.5957 20.3047C0.555339 19.1536 0.0351562 17.6927 0.0351562 15.9219C0.0351562 13.1771 0.876302 10.709 2.55859 8.51758C4.79427 5.63997 8.32487 3.11654 13.1504 0.947266ZM27.793 0.947266L28.623 2.4082C25.4577 4.06836 23.377 5.49609 22.3809 6.69141C21.6947 7.53255 21.3516 8.38477 21.3516 9.24805C21.3516 10.0449 21.9603 10.9967 23.1777 12.1035C24.8822 13.6309 25.7344 15.1361 25.7344 16.6191C25.7344 18.1022 25.1921 19.3971 24.1074 20.5039C23.0449 21.5885 21.7832 22.1309 20.3223 22.1309C18.8171 22.1309 17.5 21.5332 16.3711 20.3379C15.2422 19.1204 14.6777 17.6374 14.6777 15.8887C14.6777 13.1439 15.6074 10.5983 17.4668 8.25195C19.8132 5.24154 23.2552 2.80664 27.793 0.947266Z" fill="white"/>
</svg>
