<svg width="20" height="19" viewBox="0 0 20 19" fill="none" xmlns="http://www.w3.org/2000/svg">
<path d="M9.51859 18.508C9.15859 16.444 7.69459 13.852 4.91059 11.764C3.54259 10.732 2.15059 10.06 0.782594 9.772V8.764C3.49459 8.116 6.15859 6.292 7.86259 3.82C8.72659 2.572 9.27859 1.348 9.51859 0.0759997H10.5266C10.9346 2.5 12.8066 5.188 15.3506 6.988C16.5986 7.876 17.8946 8.476 19.2146 8.764V9.772C16.5506 10.324 13.4546 12.7 11.9186 15.124C11.1506 16.348 10.6946 17.476 10.5266 18.508H9.51859Z" fill="url(#paint0_linear_110_1640)"/>
<defs>
<linearGradient id="paint0_linear_110_1640" x1="-5.00402" y1="20.0476" x2="14.8738" y2="15.7613" gradientUnits="userSpaceOnUse">
<stop stop-color="#2F7BF2"/>
<stop offset="1" stop-color="#1CFFC7"/>
</linearGradient>
</defs>
</svg>
